<svg width="26" height="32" viewBox="0 0 26 32" fill="none" xmlns="http://www.w3.org/2000/svg">
<path d="M0.825195 28.5894V3.31056C0.825195 2.50511 1.0752 1.88553 1.5752 1.45183C2.07458 1.01812 2.66782 0.80127 3.35494 0.80127C3.52718 0.80127 3.74124 0.816759 3.99713 0.847738C4.2524 0.878717 4.4962 0.956164 4.72854 1.08008L24.617 13.9054C24.9888 14.1532 25.2831 14.4475 25.4999 14.7883C25.7168 15.129 25.8252 15.5163 25.8252 15.95C25.8252 16.3837 25.7168 16.7709 25.4999 17.1117C25.2831 17.4524 24.9888 17.7467 24.617 17.9946L4.72854 30.8199C4.49434 30.9438 4.24806 31.0212 3.98969 31.0522C3.73195 31.0832 3.51695 31.0987 3.34471 31.0987C2.65636 31.0987 2.06435 30.8818 1.56869 30.4481C1.07303 30.0144 0.825195 29.3948 0.825195 28.5894ZM2.86981 29.4258L24.2453 15.95L2.86981 2.47413V29.4258Z" fill="white"/>
</svg>
