<svg width="26" height="30" viewBox="0 0 26 30" fill="none" xmlns="http://www.w3.org/2000/svg">
<path d="M12.9998 29.4998C11.2221 29.4998 9.55539 29.1665 7.99984 28.4998C6.44428 27.8332 5.08317 26.9165 3.9165 25.7498C2.74984 24.5832 1.83317 23.2221 1.1665 21.6665C0.499837 20.1109 0.166504 18.4443 0.166504 16.6665H1.1665C1.1665 19.9534 2.31525 22.7475 4.61275 25.0486C6.91053 27.3494 9.70623 28.4998 12.9998 28.4998C16.2934 28.4998 19.0891 27.3511 21.3869 25.0536C23.6844 22.7558 24.8332 19.9601 24.8332 16.6665C24.8332 13.3729 23.6919 10.5772 21.4094 8.27942C19.1272 5.98192 16.3425 4.83317 13.0553 4.83317H12.1665L14.9998 7.6665L14.2778 8.36109L10.2219 4.26359L14.3611 0.166504L15.0832 0.861087L12.1111 3.83317H12.9998C14.7776 3.83317 16.4443 4.1665 17.9998 4.83317C19.5554 5.49984 20.9165 6.4165 22.0832 7.58317C23.2498 8.74984 24.1665 10.1109 24.8332 11.6665C25.4998 13.2221 25.8332 14.8887 25.8332 16.6665C25.8332 18.4443 25.4998 20.1109 24.8332 21.6665C24.1665 23.2221 23.2498 24.5832 22.0832 25.7498C20.9165 26.9165 19.5554 27.8332 17.9998 28.4998C16.4443 29.1665 14.7776 29.4998 12.9998 29.4998ZM8.9165 21.0832V13.3053H6.72192V12.2498H9.99984V21.0832H8.9165ZM14.3053 21.0832C13.8386 21.0832 13.4396 20.9175 13.1082 20.5861C12.7768 20.2544 12.6111 19.8553 12.6111 19.3886V13.9444C12.6111 13.4778 12.7768 13.0786 13.1082 12.7469C13.4396 12.4155 13.8386 12.2498 14.3053 12.2498H17.1665C17.6332 12.2498 18.0322 12.4155 18.3636 12.7469C18.6953 13.0786 18.8611 13.4778 18.8611 13.9444V19.3886C18.8611 19.8553 18.6953 20.2544 18.3636 20.5861C18.0322 20.9175 17.6332 21.0832 17.1665 21.0832H14.3053ZM14.1944 19.9998H17.2778C17.4444 19.9998 17.5694 19.9582 17.6528 19.8748C17.7361 19.7915 17.7778 19.6665 17.7778 19.4998V13.8053C17.7778 13.6386 17.7361 13.5136 17.6528 13.4303C17.5694 13.3469 17.4444 13.3053 17.2778 13.3053H14.1944C14.0278 13.3053 13.9028 13.3469 13.8194 13.4303C13.7361 13.5136 13.6944 13.6386 13.6944 13.8053V19.4998C13.6944 19.6665 13.7361 19.7915 13.8194 19.8748C13.9028 19.9582 14.0278 19.9998 14.1944 19.9998Z" fill="white"/>
</svg>
