<svg width="24" height="24" viewBox="0 0 24 24" fill="none" xmlns="http://www.w3.org/2000/svg">
<mask id="path-1-inside-1_11631_4649" fill="white">
<path fill-rule="evenodd" clip-rule="evenodd" d="M21.8033 14.8836C22.6613 14.8836 23.1209 13.8741 22.5575 13.227L12.754 1.96642C12.3554 1.50859 11.6442 1.50859 11.2456 1.96642L1.44206 13.227C0.878688 13.8741 1.33829 14.8836 2.19628 14.8836H5.5434C6.09568 14.8836 6.5434 15.3313 6.5434 15.8836V22.9001C6.5434 23.4524 6.99111 23.9001 7.5434 23.9001H16.3434C16.8957 23.9001 17.3434 23.4524 17.3434 22.9001V15.8836C17.3434 15.3313 17.7911 14.8836 18.3434 14.8836H21.8033Z"/>
</mask>
<path d="M22.5575 13.227L22.1804 13.5553L22.5575 13.227ZM12.3769 2.29473L22.1804 13.5553L22.9346 12.8986L13.1311 1.63811L12.3769 2.29473ZM1.81917 13.5553L11.6227 2.29473L10.8685 1.63811L1.06495 12.8986L1.81917 13.5553ZM5.5434 14.3836H2.19628V15.3836H5.5434V14.3836ZM7.0434 22.9001V15.8836H6.0434V22.9001H7.0434ZM16.3434 23.4001H7.5434V24.4001H16.3434V23.4001ZM16.8434 15.8836V22.9001H17.8434V15.8836H16.8434ZM21.8033 14.3836H18.3434V15.3836H21.8033V14.3836ZM17.8434 15.8836C17.8434 15.6074 18.0673 15.3836 18.3434 15.3836V14.3836C17.515 14.3836 16.8434 15.0552 16.8434 15.8836H17.8434ZM16.3434 24.4001C17.1718 24.4001 17.8434 23.7285 17.8434 22.9001H16.8434C16.8434 23.1763 16.6195 23.4001 16.3434 23.4001V24.4001ZM6.0434 22.9001C6.0434 23.7285 6.71497 24.4001 7.5434 24.4001V23.4001C7.26725 23.4001 7.0434 23.1763 7.0434 22.9001H6.0434ZM5.5434 15.3836C5.81954 15.3836 6.0434 15.6074 6.0434 15.8836H7.0434C7.0434 15.0552 6.37182 14.3836 5.5434 14.3836V15.3836ZM1.06495 12.8986C0.219894 13.8693 0.909301 15.3836 2.19628 15.3836V14.3836C1.76729 14.3836 1.53748 13.8788 1.81917 13.5553L1.06495 12.8986ZM22.1804 13.5553C22.4621 13.8788 22.2323 14.3836 21.8033 14.3836V15.3836C23.0903 15.3836 23.7797 13.8693 22.9346 12.8986L22.1804 13.5553ZM13.1311 1.63811C12.5332 0.951359 11.4664 0.951361 10.8685 1.63811L11.6227 2.29473C11.822 2.06582 12.1776 2.06582 12.3769 2.29473L13.1311 1.63811Z" fill="white" mask="url(#path-1-inside-1_11631_4649)"/>
</svg>
