<svg width="24" height="24" viewBox="0 0 24 24" fill="none" xmlns="http://www.w3.org/2000/svg">
<mask id="mask0_11631_4740" style="mask-type:alpha" maskUnits="userSpaceOnUse" x="0" y="0" width="24" height="24">
<rect width="24" height="24" fill="#D9D9D9"/>
</mask>
<g mask="url(#mask0_11631_4740)">
<path d="M2.3079 24V10.0054H1V4.83924H7.703C7.39782 4.59945 7.18529 4.30725 7.0654 3.96262C6.9455 3.6182 6.88556 3.25646 6.88556 2.87738C6.88556 2.07804 7.16534 1.39869 7.72491 0.839345C8.28425 0.279781 8.9636 0 9.76294 0C10.2643 0 10.7221 0.125341 11.1362 0.376022C11.5504 0.626703 11.8992 0.948229 12.1826 1.3406C12.4659 0.948229 12.8147 0.626703 13.2289 0.376022C13.6431 0.125341 14.1008 0 14.6022 0C15.4015 0 16.0809 0.279781 16.6402 0.839345C17.1998 1.39869 17.4796 2.07804 17.4796 2.87738C17.4796 3.24796 17.4196 3.60763 17.2997 3.9564C17.1798 4.30518 16.9673 4.59945 16.6621 4.83924H23.7575V10.0054H22.4496V24H2.3079ZM14.6022 0.915531C14.0463 0.915531 13.5804 1.10354 13.2044 1.47956C12.8283 1.85559 12.6403 2.32153 12.6403 2.87738C12.6403 3.43324 12.8283 3.89918 13.2044 4.2752C13.5804 4.65123 14.0463 4.83924 14.6022 4.83924C15.158 4.83924 15.624 4.65123 16 4.2752C16.376 3.89918 16.564 3.43324 16.564 2.87738C16.564 2.32153 16.376 1.85559 16 1.47956C15.624 1.10354 15.158 0.915531 14.6022 0.915531ZM7.80109 2.87738C7.80109 3.43324 7.9891 3.89918 8.36512 4.2752C8.74114 4.65123 9.20708 4.83924 9.76294 4.83924C10.3188 4.83924 10.7847 4.65123 11.1608 4.2752C11.5368 3.89918 11.7248 3.43324 11.7248 2.87738C11.7248 2.32153 11.5368 1.85559 11.1608 1.47956C10.7847 1.10354 10.3188 0.915531 9.76294 0.915531C9.20708 0.915531 8.74114 1.10354 8.36512 1.47956C7.9891 1.85559 7.80109 2.32153 7.80109 2.87738ZM1.91553 5.75477V9.08992H11.921V5.75477H1.91553ZM11.921 23.0845V10.0054H3.22343V23.0845H11.921ZM12.8365 23.0845H21.5341V10.0054H12.8365V23.0845ZM22.842 9.08992V5.75477H12.8365V9.08992H22.842Z" fill="white" stroke="black" stroke-width="0.392371"/>
</g>
</svg>
