<svg width="24" height="24" viewBox="0 0 24 24" fill="none" xmlns="http://www.w3.org/2000/svg">
<circle cx="12.0261" cy="12.0002" r="10.8311" stroke="white" stroke-width="0.442087"/>
<path d="M12.1503 22.8314C13.744 22.8314 15.1274 21.5451 16.0992 19.6016C17.0776 17.6448 17.6764 14.957 17.6764 12.0002C17.6764 9.04346 17.0776 6.35568 16.0992 4.39891C15.1274 2.45536 13.744 1.16909 12.1503 1.16909C10.5565 1.16909 9.17309 2.45536 8.20132 4.39891C7.22294 6.35568 6.62417 9.04346 6.62417 12.0002C6.62417 14.957 7.22294 17.6448 8.20132 19.6016C9.17309 21.5451 10.5565 22.8314 12.1503 22.8314Z" stroke="white" stroke-width="0.442087"/>
<path d="M2.18164 7.5791H21.7631" stroke="white" stroke-width="0.442087" stroke-linecap="round"/>
<path d="M2.74219 17.3057H21.3098" stroke="white" stroke-width="0.442087" stroke-linecap="round"/>
<path d="M1.5 12.124H22.7788" stroke="white" stroke-width="0.442087" stroke-linecap="round"/>
</svg>
