<svg width="18" height="18" viewBox="0 0 18 18" fill="none" xmlns="http://www.w3.org/2000/svg">
<path d="M9.00325 18C7.75875 18 6.58867 17.7638 5.493 17.2915C4.3975 16.8192 3.4445 16.1782 2.634 15.3685C1.8235 14.5588 1.18192 13.6067 0.70925 12.512C0.236417 11.4175 0 10.2479 0 9.00325C0 7.75875 0.236167 6.58867 0.7085 5.493C1.18083 4.3975 1.82183 3.4445 2.6315 2.634C3.44117 1.8235 4.39333 1.18192 5.488 0.70925C6.5825 0.236417 7.75208 0 8.99675 0C10.2413 0 11.4113 0.236167 12.507 0.708501C13.6025 1.18083 14.5555 1.82183 15.366 2.6315C16.1765 3.44117 16.8181 4.39333 17.2908 5.488C17.7636 6.5825 18 7.75208 18 8.99675C18 10.2413 17.7638 11.4113 17.2915 12.507C16.8192 13.6025 16.1782 14.5555 15.3685 15.366C14.5588 16.1765 13.6067 16.8181 12.512 17.2908C11.4175 17.7636 10.2479 18 9.00325 18ZM9 17C11.2333 17 13.125 16.225 14.675 14.675C16.225 13.125 17 11.2333 17 9C17 8.88333 16.999 8.76567 16.997 8.647C16.9952 8.5285 16.9878 8.41475 16.975 8.30575C16.9302 8.75058 16.7533 9.1185 16.4443 9.4095C16.1353 9.70067 15.7564 9.84625 15.3077 9.84625H12.7693C12.3039 9.84625 11.9055 9.68075 11.574 9.34975C11.2427 9.01892 11.077 8.62117 11.077 8.1565V7.31175H7.69225V5.622C7.69225 5.15733 7.858 4.758 8.1895 4.424C8.52083 4.09 8.91917 3.923 9.3845 3.923H10.2308V3.15375C10.2308 2.66792 10.3894 2.28558 10.7068 2.00675C11.0241 1.72792 11.4033 1.56733 11.8443 1.525C11.3956 1.352 10.9358 1.22125 10.4648 1.13275C9.99375 1.04425 9.5055 1 9 1C6.76667 1 4.875 1.775 3.325 3.325C1.775 4.875 1 6.76667 1 9V9.2885C1 9.37817 1.00642 9.47433 1.01925 9.577H5.5C6.44617 9.577 7.24683 9.9045 7.902 10.5595C8.557 11.2147 8.8845 12.0124 8.8845 12.9528V13.8077H6.34625V16.5385C6.75642 16.6858 7.18492 16.7996 7.63175 16.8798C8.07858 16.9599 8.53467 17 9 17Z" fill="white"/>
</svg>
