<svg width="16" height="16" viewBox="0 0 16 16" fill="none" xmlns="http://www.w3.org/2000/svg">
<path d="M7.33333 8.66667H0.666667C0.477778 8.66667 0.319444 8.60269 0.191667 8.47473C0.0638889 8.3468 0 8.18826 0 7.9991C0 7.80994 0.0638889 7.6517 0.191667 7.52437C0.319444 7.39701 0.477778 7.33333 0.666667 7.33333H7.33333V0.666667C7.33333 0.477778 7.39731 0.319444 7.52527 0.191667C7.6532 0.0638889 7.81175 0 8.0009 0C8.19006 0 8.3483 0.0638889 8.47563 0.191667C8.60299 0.319444 8.66667 0.477778 8.66667 0.666667V7.33333H15.3333C15.5222 7.33333 15.6806 7.39731 15.8083 7.52527C15.9361 7.6532 16 7.81175 16 8.0009C16 8.19006 15.9361 8.3483 15.8083 8.47563C15.6806 8.60299 15.5222 8.66667 15.3333 8.66667H8.66667V15.3333C8.66667 15.5222 8.60269 15.6806 8.47473 15.8083C8.3468 15.9361 8.18826 16 7.9991 16C7.80994 16 7.6517 15.9361 7.52437 15.8083C7.39701 15.6806 7.33333 15.5222 7.33333 15.3333V8.66667Z" fill="white"/>
</svg>
