<svg width="22" height="16" viewBox="0 0 22 16" fill="none" xmlns="http://www.w3.org/2000/svg">
<path d="M3.7248 15.5C2.84014 15.5 2.09172 15.1929 1.47955 14.5788C0.867388 13.9648 0.557471 13.2108 0.549805 12.317C0.549805 12.1852 0.554971 12.0571 0.565305 11.9327C0.575471 11.8084 0.597221 11.6777 0.630555 11.5405L2.73055 3.1405C2.93489 2.35483 3.35097 1.71833 3.97881 1.231C4.60647 0.743666 5.32181 0.5 6.1248 0.5H15.8748C16.6778 0.5 17.3931 0.743666 18.0208 1.231C18.6486 1.71833 19.0647 2.35483 19.2691 3.1405L21.3691 11.5405C21.4024 11.6777 21.4283 11.8126 21.4468 11.9453C21.4655 12.0779 21.4748 12.2102 21.4748 12.342C21.4748 13.2358 21.1636 13.9856 20.5411 14.5913C19.9187 15.1971 19.1637 15.5 18.2761 15.5C17.6649 15.5 17.1042 15.3391 16.5941 15.0173C16.0837 14.6954 15.6914 14.2628 15.4171 13.7193L14.6978 12.25C14.5761 12 14.3935 11.8125 14.1498 11.6875C13.9061 11.5625 13.6478 11.5 13.3748 11.5H8.62481C8.35497 11.5 8.09747 11.5609 7.85231 11.6827C7.60697 11.8046 7.42347 11.9937 7.30181 12.25L6.58256 13.7193C6.32106 14.2756 5.93072 14.7115 5.41156 15.027C4.89256 15.3423 4.3303 15.5 3.7248 15.5ZM3.80506 14.5C4.20789 14.5 4.58014 14.391 4.92181 14.173C5.26347 13.9552 5.52022 13.6661 5.69206 13.3057L6.39206 11.8615C6.60256 11.4352 6.9113 11.1017 7.31831 10.861C7.72514 10.6203 8.16064 10.5 8.62481 10.5H13.3748C13.8466 10.5 14.2838 10.6276 14.6863 10.8828C15.089 11.1379 15.4044 11.4706 15.6326 11.8808L16.3326 13.3057C16.5044 13.6661 16.7611 13.9552 17.1028 14.173C17.4445 14.391 17.8212 14.5 18.2331 14.5C18.8399 14.5 19.3601 14.2946 19.7938 13.8837C20.2273 13.4727 20.446 12.9698 20.4498 12.375C20.4498 12.3403 20.4267 12.1435 20.3806 11.7845L18.2806 3.4095C18.1382 2.857 17.844 2.40067 17.3978 2.0405C16.9516 1.68017 16.444 1.5 15.8748 1.5H6.1248C5.5418 1.5 5.02656 1.68017 4.57905 2.0405C4.13139 2.40067 3.84472 2.857 3.71906 3.4095L1.61905 11.7845C1.59855 11.859 1.57547 12.0475 1.5498 12.35C1.5498 12.958 1.77189 13.4683 2.21605 13.881C2.66039 14.2937 3.19006 14.5 3.80506 14.5ZM12.4998 6.76925C12.7061 6.76925 12.886 6.69267 13.0393 6.5395C13.1925 6.38617 13.2691 6.20633 13.2691 6C13.2691 5.79367 13.1925 5.61383 13.0393 5.4605C12.886 5.30733 12.7061 5.23075 12.4998 5.23075C12.2935 5.23075 12.1136 5.30733 11.9603 5.4605C11.8071 5.61383 11.7306 5.79367 11.7306 6C11.7306 6.20633 11.8071 6.38617 11.9603 6.5395C12.1136 6.69267 12.2935 6.76925 12.4998 6.76925ZM14.4998 4.76925C14.7061 4.76925 14.886 4.69267 15.0393 4.5395C15.1925 4.38617 15.2691 4.20633 15.2691 4C15.2691 3.79367 15.1925 3.61383 15.0393 3.4605C14.886 3.30733 14.7061 3.23075 14.4998 3.23075C14.2935 3.23075 14.1136 3.30733 13.9603 3.4605C13.8071 3.61383 13.7306 3.79367 13.7306 4C13.7306 4.20633 13.8071 4.38617 13.9603 4.5395C14.1136 4.69267 14.2935 4.76925 14.4998 4.76925ZM14.4998 8.76925C14.7061 8.76925 14.886 8.69267 15.0393 8.5395C15.1925 8.38617 15.2691 8.20633 15.2691 8C15.2691 7.79367 15.1925 7.61383 15.0393 7.4605C14.886 7.30733 14.7061 7.23075 14.4998 7.23075C14.2935 7.23075 14.1136 7.30733 13.9603 7.4605C13.8071 7.61383 13.7306 7.79367 13.7306 8C13.7306 8.20633 13.8071 8.38617 13.9603 8.5395C14.1136 8.69267 14.2935 8.76925 14.4998 8.76925ZM16.4998 6.76925C16.7061 6.76925 16.886 6.69267 17.0393 6.5395C17.1925 6.38617 17.2691 6.20633 17.2691 6C17.2691 5.79367 17.1925 5.61383 17.0393 5.4605C16.886 5.30733 16.7061 5.23075 16.4998 5.23075C16.2935 5.23075 16.1136 5.30733 15.9603 5.4605C15.8071 5.61383 15.7306 5.79367 15.7306 6C15.7306 6.20633 15.8071 6.38617 15.9603 6.5395C16.1136 6.69267 16.2935 6.76925 16.4998 6.76925ZM7.49881 8.19225C7.62647 8.19225 7.73222 8.1505 7.81606 8.067C7.90006 7.9835 7.94206 7.87783 7.94206 7.75V6.44225H9.24981C9.37764 6.44225 9.4833 6.40058 9.5668 6.31725C9.6503 6.23392 9.69206 6.1285 9.69206 6.001C9.69206 5.87333 9.6503 5.76758 9.5668 5.68375C9.4833 5.59975 9.37764 5.55775 9.24981 5.55775H7.94206V4.25C7.94206 4.12217 7.90039 4.0165 7.81706 3.933C7.73372 3.8495 7.62831 3.80775 7.50081 3.80775C7.37314 3.80775 7.26739 3.8495 7.18356 3.933C7.09956 4.0165 7.05756 4.12217 7.05756 4.25V5.55775H5.7498C5.62197 5.55775 5.51631 5.59942 5.43281 5.68275C5.34931 5.76608 5.30756 5.8715 5.30756 5.999C5.30756 6.12667 5.34931 6.23242 5.43281 6.31625C5.51631 6.40025 5.62197 6.44225 5.7498 6.44225H7.05756V7.75C7.05756 7.87783 7.09922 7.9835 7.18256 8.067C7.26589 8.1505 7.3713 8.19225 7.49881 8.19225Z" fill="white"/>
</svg>
