<svg
  width="22"
  height="22"
  viewBox="0 0 22 22"
  fill="none"
  xmlns="http://www.w3.org/2000/svg"
>
  <path
    d="M13.3536 15.0241C13.7266 14.8039 14.1701 14.8314 14.4262 15.0871L17.3616 18.0176C17.6447 18.3002 17.6246 18.7368 17.3425 18.9624C15.8241 20.1765 13.9618 20.9774 11.9251 21.1957C11.5667 21.2341 11.2453 20.9399 11.2453 20.5411L11.2453 16.3866C11.2453 16.0184 11.5497 15.6806 11.9797 15.5784C12.4697 15.462 12.9317 15.2732 13.3536 15.0241Z"
    stroke="white"
    stroke-width="0.6"
  />
  <path
    d="M18.9407 17.3496C18.7143 17.6288 18.2805 17.6474 17.999 17.3664L15.0861 14.4583C14.8233 14.196 14.8012 13.7368 15.0383 13.3595C15.3051 12.9348 15.5096 12.4669 15.6391 11.9686C15.748 11.5492 16.0812 11.2556 16.4428 11.2556L20.5592 11.2556C20.9596 11.2556 21.2542 11.5794 21.2134 11.9388C20.9824 13.9762 20.1679 15.8367 18.9407 17.3496Z"
    stroke="white"
    stroke-width="0.6"
  />
  <path
    d="M16.4943 10.3711C16.1228 10.3711 15.7828 10.0613 15.6841 9.62599C15.566 9.10506 15.3664 8.61517 15.0995 8.17051C14.8749 7.79648 14.9009 7.34904 15.1582 7.09129L18.0508 4.19395C18.3334 3.91085 18.77 3.93088 18.9956 4.21305C20.2224 5.74735 21.0274 7.63288 21.2356 9.69464C21.2717 10.052 20.9777 10.3711 20.5806 10.3711L16.4943 10.3711Z"
    stroke="white"
    stroke-width="0.6"
  />
  <path
    d="M11.2595 1.0139C11.2595 0.615122 11.5809 0.320831 11.9393 0.359251C14.0018 0.58034 15.8855 1.39891 17.4143 2.63894C17.6934 2.86538 17.7121 3.29924 17.4311 3.58071L14.5464 6.47012C14.2858 6.7312 13.8306 6.75486 13.4542 6.52222C13.0092 6.24722 12.5176 6.04017 11.9939 5.91573C11.5639 5.81356 11.2595 5.47579 11.2595 5.1076V1.0139Z"
    stroke="white"
    stroke-width="0.6"
  />
  <path
    d="M10.3804 1.07347C10.3804 0.674693 10.059 0.380402 9.70057 0.418821C7.63809 0.63991 5.75438 1.45848 4.22564 2.69851C3.94647 2.92495 3.92784 3.35881 4.20884 3.64028L7.09345 6.52969C7.35409 6.79077 7.8093 6.81443 8.18573 6.58179C8.63068 6.30679 9.12231 6.09974 9.64603 5.9753C10.076 5.87313 10.3804 5.53536 10.3804 5.16717V1.07347Z"
    stroke="white"
    stroke-width="0.6"
  />
  <path
    d="M8.22499 15.0048C7.85201 14.7846 7.40847 14.8122 7.15239 15.0678L4.21704 17.9983C3.93394 18.2809 3.95397 18.7175 4.23615 18.9432C5.7545 20.1572 7.61681 20.9581 9.65346 21.1764C10.0119 21.2149 10.3333 20.9206 10.3333 20.5218L10.3333 16.3673C10.3333 15.9991 10.0289 15.6613 9.59892 15.5591C9.10887 15.4427 8.64691 15.2539 8.22499 15.0048Z"
    stroke="white"
    stroke-width="0.6"
  />
  <path
    d="M2.63787 17.3679C2.86431 17.6471 3.29816 17.6657 3.57963 17.3847L6.49253 14.4766C6.75528 14.2143 6.77736 13.7552 6.5403 13.3778C6.27355 12.9531 6.06898 12.4852 5.93954 11.9869C5.8306 11.5675 5.49744 11.2739 5.13583 11.2739L1.01941 11.2739C0.61901 11.2739 0.324449 11.5977 0.365208 11.9571C0.596263 13.9945 1.41068 15.855 2.63787 17.3679Z"
    stroke="white"
    stroke-width="0.6"
  />
  <path
    d="M5.10653 10.4021C5.47802 10.4021 5.81806 10.0923 5.91672 9.65699C6.0348 9.13607 6.23443 8.64617 6.50137 8.20151C6.72592 7.82748 6.69992 7.38005 6.4426 7.1223L3.55007 4.22496C3.26744 3.94186 2.83082 3.96188 2.6052 4.24406C1.37839 5.77835 0.573421 7.66388 0.365186 9.72564C0.32909 10.083 0.623093 10.4021 1.02026 10.4021H5.10653Z"
    stroke="white"
    stroke-width="0.6"
  />
</svg>