<svg viewBox="0 0 19 21" fill="none" xmlns="http://www.w3.org/2000/svg">
    <path
        d="M2.62502 20.281C2.12502 20.281 1.70302 20.109 1.35902 19.765C1.01502 19.422 0.843018 19.0005 0.843018 18.5005V4.53101H1.84352V18.5005C1.84352 18.6875 1.92702 18.8645 2.09402 19.0315C2.26002 19.1985 2.43702 19.282 2.62502 19.282H13.593V20.281H2.62502ZM5.87552 17.032C5.37552 17.032 4.95352 16.86 4.60952 16.516C4.26552 16.172 4.09352 15.75 4.09352 15.25V1.78151C4.09352 1.28151 4.26552 0.865006 4.60952 0.532006C4.95352 0.198006 5.37552 0.0310059 5.87552 0.0310059H16.344C16.844 0.0310059 17.2605 0.198006 17.5935 0.532006C17.9265 0.865006 18.093 1.28151 18.093 1.78151V15.25C18.093 15.75 17.9265 16.172 17.5935 16.516C17.2605 16.86 16.844 17.032 16.344 17.032H5.87552ZM5.87552 16.0315H16.344C16.531 16.0315 16.703 15.948 16.86 15.781C17.016 15.615 17.094 15.438 17.094 15.25V1.78151C17.094 1.59351 17.016 1.42151 16.86 1.26551C16.703 1.10951 16.531 1.03151 16.344 1.03151H5.87552C5.68752 1.03151 5.51002 1.10951 5.34302 1.26551C5.17702 1.42151 5.09402 1.59351 5.09402 1.78151V15.25C5.09402 15.438 5.17702 15.615 5.34302 15.781C5.51002 15.948 5.68752 16.0315 5.87552 16.0315Z"
        fill="currentColor" />
</svg>