<svg width="20" height="20" viewBox="0 0 20 20" fill="none" xmlns="http://www.w3.org/2000/svg">
<path d="M1.89703 20C1.37679 20 0.930556 19.8129 0.558333 19.4387C0.186111 19.0645 0 18.6145 0 18.0887C0 17.5407 0.1871 17.0889 0.5613 16.7333C0.935478 16.3778 1.38548 16.2 1.9113 16.2C2.45932 16.2 2.91111 16.3792 3.26667 16.7377C3.62222 17.0962 3.8 17.5513 3.8 18.103C3.8 18.6232 3.62076 19.0694 3.26227 19.4417C2.90378 19.8139 2.4487 20 1.89703 20ZM12.7304 20C12.1879 20 11.7361 19.8129 11.375 19.4387C11.0139 19.0645 10.8333 18.6145 10.8333 18.0887C10.8333 17.5407 11.0149 17.0889 11.378 16.7333C11.741 16.3778 12.1966 16.2 12.7446 16.2C13.2704 16.2 13.7167 16.3792 14.0833 16.7377C14.45 17.0962 14.6333 17.5513 14.6333 18.103C14.6333 18.6232 14.4485 19.0694 14.0789 19.4417C13.7093 19.8139 13.2598 20 12.7304 20ZM7.29703 14.6C6.75457 14.6 6.30278 14.4185 5.94167 14.0554C5.58056 13.6923 5.4 13.2367 5.4 12.6887C5.4 12.1629 5.58154 11.7167 5.94463 11.35C6.3077 10.9833 6.76326 10.8 7.3113 10.8C7.8371 10.8 8.28333 10.9848 8.65 11.3544C9.01667 11.724 9.2 12.1735 9.2 12.703C9.2 13.2454 9.0152 13.6972 8.6456 14.0583C8.276 14.4194 7.82648 14.6 7.29703 14.6ZM18.097 14.6C17.5768 14.6 17.1306 14.4185 16.7583 14.0554C16.3861 13.6923 16.2 13.2367 16.2 12.6887C16.2 12.1629 16.3871 11.7167 16.7613 11.35C17.1355 10.9833 17.5855 10.8 18.1113 10.8C18.6593 10.8 19.1111 10.9848 19.4667 11.3544C19.8222 11.724 20 12.1735 20 12.703C20 13.2454 19.8208 13.6972 19.4623 14.0583C19.1038 14.4194 18.6487 14.6 18.097 14.6ZM1.89703 9.16667C1.37679 9.16667 0.930556 8.98512 0.558333 8.62203C0.186111 8.25897 0 7.80341 0 7.25537C0 6.72957 0.1871 6.28333 0.5613 5.91667C0.935478 5.55 1.38548 5.36667 1.9113 5.36667C2.45932 5.36667 2.91111 5.55147 3.26667 5.92107C3.62222 6.29069 3.8 6.74021 3.8 7.26963C3.8 7.8121 3.62076 8.26389 3.26227 8.625C2.90378 8.98611 2.4487 9.16667 1.89703 9.16667ZM12.7304 9.16667C12.1879 9.16667 11.7361 8.98512 11.375 8.62203C11.0139 8.25897 10.8333 7.80341 10.8333 7.25537C10.8333 6.72957 11.0149 6.28333 11.378 5.91667C11.741 5.55 12.1966 5.36667 12.7446 5.36667C13.2704 5.36667 13.7167 5.55147 14.0833 5.92107C14.45 6.29069 14.6333 6.74021 14.6333 7.26963C14.6333 7.8121 14.4485 8.26389 14.0789 8.625C13.7093 8.98611 13.2598 9.16667 12.7304 9.16667ZM7.29703 3.8C6.75457 3.8 6.30278 3.6129 5.94167 3.2387C5.58056 2.86452 5.4 2.41452 5.4 1.8887C5.4 1.34068 5.58154 0.888889 5.94463 0.533333C6.3077 0.177778 6.76326 0 7.3113 0C7.8371 0 8.28333 0.179245 8.65 0.537734C9.01667 0.896245 9.2 1.35132 9.2 1.90297C9.2 2.42321 9.0152 2.86944 8.6456 3.24167C8.276 3.61389 7.82648 3.8 7.29703 3.8ZM18.097 3.8C17.5768 3.8 17.1306 3.6129 16.7583 3.2387C16.3861 2.86452 16.2 2.41452 16.2 1.8887C16.2 1.34068 16.3871 0.888889 16.7613 0.533333C17.1355 0.177778 17.5855 0 18.1113 0C18.6593 0 19.1111 0.179245 19.4667 0.537734C19.8222 0.896245 20 1.35132 20 1.90297C20 2.42321 19.8208 2.86944 19.4623 3.24167C19.1038 3.61389 18.6487 3.8 18.097 3.8Z" fill="#212020"/>
</svg>
