<svg width="27" height="30" viewBox="0 0 27 30" fill="none" xmlns="http://www.w3.org/2000/svg">
<path d="M3.16659 29.5C2.50409 29.5 1.94957 29.2767 1.50304 28.8302C1.05652 28.3837 0.833252 27.8292 0.833252 27.1667V2.83333C0.833252 2.17083 1.05652 1.61632 1.50304 1.16979C1.94957 0.723264 2.50409 0.5 3.16659 0.5H16.4166L23.1666 7.25V13.0139H22.1666V7.83333H15.8333V1.5H3.16659C2.83325 1.5 2.5277 1.63889 2.24992 1.91667C1.97214 2.19444 1.83325 2.5 1.83325 2.83333V27.1667C1.83325 27.5 1.97214 27.8056 2.24992 28.0833C2.5277 28.3611 2.83325 28.5 3.16659 28.5H10.7499V29.5H3.16659ZM20.6944 19.4305L21.4166 20.0833L14.9166 26.5833V28.4167H16.7499L23.2221 21.9167L23.9444 22.6389L17.1666 29.4167H13.9166V26.2083L20.6944 19.4305ZM23.9444 22.6389L20.6944 19.4305L22.5138 17.6111C22.7453 17.3889 23.0198 17.2778 23.3374 17.2778C23.655 17.2778 23.9268 17.3889 24.1527 17.6111L25.7638 19.2222C25.986 19.4482 26.0971 19.7199 26.0971 20.0375C26.0971 20.3551 25.986 20.6296 25.7638 20.8611L23.9444 22.6389Z" fill="#FFF"/>
</svg>
