<svg width="35" height="25" viewBox="0 0 35 25" fill="none" xmlns="http://www.w3.org/2000/svg">
<path fill-rule="evenodd" clip-rule="evenodd" d="M1.26753 1.10542H33.3702V23.9108H1.26753V1.10542ZM0.467529 0.30542H1.26753H33.3702H34.1702V1.10542V23.9108V24.7108H33.3702H1.26753H0.467529V23.9108V1.10542V0.30542ZM16.9919 6.81409V8.32432H17.7919V6.81406C18.9931 6.89884 20.0887 7.36256 20.9615 8.08737L19.9925 9.22743L20.6021 9.74554L21.5401 8.64192C22.3544 9.54192 22.879 10.7067 22.9697 11.9919H21.4595V12.7919H22.9697C22.8849 13.9931 22.4212 15.0887 21.6964 15.9615L20.5564 14.9925L20.0382 15.6021L21.1419 16.5401C20.2419 17.3544 19.0771 17.879 17.7919 17.9697V16.4595H16.9919V17.9697C15.7067 17.879 14.5419 17.3544 13.6419 16.5401L14.7455 15.6021L14.2274 14.9925L13.0874 15.9615C12.3626 15.0887 11.8988 13.9931 11.8141 12.7919H13.3243V11.9919H11.8141C11.902 10.7486 12.3963 9.61748 13.1651 8.73074L14.2036 9.76933L14.7693 9.20364L13.7307 8.16505C14.6175 7.39631 15.7486 6.90196 16.9919 6.81409ZM11.0123 11.9919C11.2188 8.64808 13.9961 6 17.3919 6C19.0904 6 20.6342 6.66252 21.779 7.74324C21.8763 7.83511 21.9707 7.93 22.0621 8.02777C23.045 9.07919 23.6771 10.4628 23.7715 11.9919C23.7796 12.1242 23.7838 12.2576 23.7838 12.3919C23.7838 12.5262 23.7796 12.6596 23.7715 12.7919C23.6764 14.3321 23.0358 15.7248 22.0405 16.779C21.9487 16.8763 21.8538 16.9707 21.756 17.0621C20.7046 18.045 19.321 18.6771 17.7919 18.7715C17.6596 18.7796 17.5262 18.7838 17.3919 18.7838C17.2575 18.7838 17.1242 18.7796 16.9919 18.7715C15.4628 18.6771 14.0792 18.045 13.0278 17.0621C12.93 16.9707 12.8351 16.8763 12.7432 16.779C11.748 15.7248 11.1074 14.3321 11.0123 12.7919C11.0041 12.6596 11 12.5262 11 12.3919C11 12.2576 11.0041 12.1242 11.0123 11.9919ZM17.3919 14.4972C18.5546 14.4972 19.4973 13.5546 19.4973 12.3918C19.4973 11.229 18.5546 10.2864 17.3919 10.2864C16.2291 10.2864 15.2864 11.229 15.2864 12.3918C15.2864 13.5546 16.2291 14.4972 17.3919 14.4972ZM17.3919 15.2972C18.9965 15.2972 20.2973 13.9964 20.2973 12.3918C20.2973 10.7872 18.9965 9.48641 17.3919 9.48641C15.7872 9.48641 14.4864 10.7872 14.4864 12.3918C14.4864 13.9964 15.7872 15.2972 17.3919 15.2972Z" fill="#FFF"/>
</svg>
