<svg width="36" height="26" viewBox="0 0 36 26" fill="none" xmlns="http://www.w3.org/2000/svg">
<path d="M3.4001 25.4001C2.6001 25.4001 1.93343 25.1334 1.4001 24.6001C0.866764 24.0668 0.600098 23.4001 0.600098 22.6001V3.4001C0.600098 2.6001 0.866764 1.93343 1.4001 1.4001C1.93343 0.866764 2.6001 0.600098 3.4001 0.600098H16.2001L18.0001 2.4001H32.6001C33.4001 2.4001 34.0668 2.66676 34.6001 3.2001C35.1334 3.73343 35.4001 4.4001 35.4001 5.2001V22.6001C35.4001 23.4001 35.1334 24.0668 34.6001 24.6001C34.0668 25.1334 33.4001 25.4001 32.6001 25.4001H3.4001ZM26.0001 24.2001H32.6001C33.0668 24.2001 33.4501 24.0501 33.7501 23.7501C34.0501 23.4501 34.2001 23.0668 34.2001 22.6001V5.2001C34.2001 4.73343 34.0501 4.3501 33.7501 4.0501C33.4501 3.7501 33.0668 3.6001 32.6001 3.6001H26.0001V7.73345H30.1334V11.8445H26.0001V15.9556H30.1334V20.0667H26.0001V24.2001ZM3.4001 24.2001H21.8667V20.0667H26.0001V15.9556H21.8667V11.8445H26.0001V7.73345H21.8667V3.6001H17.5167L15.7167 1.8001H3.4001C2.93343 1.8001 2.5501 1.9501 2.2501 2.2501C1.9501 2.5501 1.8001 2.93343 1.8001 3.4001V22.6001C1.8001 23.0668 1.9501 23.4501 2.2501 23.7501C2.5501 24.0501 2.93343 24.2001 3.4001 24.2001Z" fill="#fff"/>
</svg>
