<svg xmlns="http://www.w3.org/2000/svg" width="40" height="40" viewBox="0 0 40 40" fill="none">
    <mask id="mask0_5248_41346" style="mask-type:alpha" maskUnits="userSpaceOnUse" x="0" y="0" width="40" height="40">
        <rect width="40" height="40" fill="#D9D9D9"/>
    </mask>
    <g mask="url(#mask0_5248_41346)">
        <path d="M14.9658 25.8396C15.645 25.8396 16.2225 25.6043 16.6983 25.1338C17.1744 24.6632 17.4125 24.0922 17.4125 23.4208C17.4125 22.7494 17.1744 22.1785 16.6983 21.7079C16.2225 21.2374 15.645 21.0021 14.9658 21.0021C14.3019 21.0021 13.7375 21.2374 13.2725 21.7079C12.8072 22.1785 12.5746 22.7494 12.5746 23.4208C12.5746 24.0922 12.8072 24.6632 13.2725 25.1338C13.7375 25.6043 14.3019 25.8396 14.9658 25.8396ZM25.0342 25.8396C25.7056 25.8396 26.2765 25.6043 26.7471 25.1338C27.2176 24.6632 27.4529 24.0922 27.4529 23.4208C27.4529 22.7494 27.2176 22.1785 26.7471 21.7079C26.2765 21.2374 25.7056 21.0021 25.0342 21.0021C24.3628 21.0021 23.7882 21.2374 23.3104 21.7079C22.8329 22.1785 22.5942 22.7494 22.5942 23.4208C22.5942 24.0922 22.8329 24.6632 23.3104 25.1338C23.7882 25.6043 24.3628 25.8396 25.0342 25.8396ZM19.9988 17.3313C20.6782 17.3313 21.256 17.0967 21.7321 16.6275C22.2085 16.1583 22.4467 15.584 22.4467 14.9046C22.4467 14.2254 22.2086 13.6537 21.7325 13.1896C21.2567 12.7257 20.6792 12.4937 20 12.4937C19.3219 12.4937 18.7504 12.7263 18.2854 13.1913C17.8201 13.6565 17.5875 14.2281 17.5875 14.9058C17.5875 15.585 17.8196 16.159 18.2838 16.6279C18.7476 17.0968 19.3193 17.3313 19.9988 17.3313ZM20.0129 35C17.9293 35 15.9803 34.6064 14.1658 33.8192C12.3511 33.0319 10.7638 31.959 9.40375 30.6004C8.04375 29.2415 6.96986 27.655 6.18208 25.8408C5.39403 24.0264 5 22.0767 5 19.9917C5 17.9208 5.39361 15.9739 6.18083 14.1508C6.96806 12.3278 8.04097 10.7408 9.39958 9.39C10.7585 8.03917 12.345 6.96986 14.1592 6.18208C15.9736 5.39403 17.9233 5 20.0083 5C22.0792 5 24.0261 5.39361 25.8492 6.18083C27.6722 6.96806 29.2592 8.03639 30.61 9.38583C31.9608 10.7353 33.0301 12.3222 33.8179 14.1467C34.606 15.9708 35 17.9176 35 19.9871C35 22.0707 34.6064 24.0197 33.8192 25.8342C33.0319 27.6489 31.9636 29.2344 30.6142 30.5908C29.2647 31.9475 27.6778 33.0215 25.8533 33.8129C24.0292 34.6043 22.0824 35 20.0129 35ZM20.0138 33.5896C23.7896 33.5896 26.9963 32.2699 29.6338 29.6304C32.271 26.9907 33.5896 23.776 33.5896 19.9863C33.5896 16.2104 32.2726 13.0037 29.6388 10.3662C27.0049 7.72903 23.7919 6.41042 20 6.41042C16.2194 6.41042 13.0093 7.72736 10.3696 10.3612C7.73014 12.9951 6.41042 16.2081 6.41042 20C6.41042 23.7806 7.73014 26.9907 10.3696 29.6304C13.0093 32.2699 16.224 33.5896 20.0138 33.5896Z" fill="white"/>
    </g>
</svg>
