<svg width="40" height="40" viewBox="0 0 40 40" fill="none" xmlns="http://www.w3.org/2000/svg">
<mask id="mask0_5544_42990" style="mask-type:alpha" maskUnits="userSpaceOnUse" x="0" y="0" width="40" height="40">
<rect width="40" height="40" fill="#D9D9D9"/>
</mask>
<g mask="url(#mask0_5544_42990)">
<path d="M7.87516 32.5C6.40072 32.5 5.15336 31.9882 4.13308 30.9646C3.1128 29.9413 2.59627 28.6847 2.5835 27.195C2.5835 26.9753 2.59211 26.7618 2.60933 26.5546C2.62627 26.3474 2.66252 26.1294 2.71808 25.9008L6.21808 11.9008C6.55863 10.5914 7.25211 9.53056 8.2985 8.71833C9.34461 7.90611 10.5368 7.5 11.8752 7.5H28.1252C29.4635 7.5 30.6557 7.90611 31.7018 8.71833C32.7482 9.53056 33.4417 10.5914 33.7822 11.9008L37.2822 25.9008C37.3378 26.1294 37.381 26.3543 37.4118 26.5754C37.4429 26.7965 37.4585 27.0169 37.4585 27.2367C37.4585 28.7264 36.9397 29.976 35.9022 30.9854C34.865 31.9951 33.6067 32.5 32.1272 32.5C31.1086 32.5 30.1742 32.2318 29.3239 31.6954C28.4734 31.159 27.8195 30.4379 27.3622 29.5321L26.1635 27.0833C25.9607 26.6667 25.6563 26.3542 25.2502 26.1458C24.8441 25.9375 24.4135 25.8333 23.9585 25.8333H16.0418C15.5921 25.8333 15.1629 25.9349 14.7543 26.1379C14.3454 26.341 14.0396 26.6561 13.8368 27.0833L12.6381 29.5321C12.2022 30.4593 11.5517 31.1858 10.6864 31.7117C9.82141 32.2372 8.88433 32.5 7.87516 32.5ZM7.99016 31.0896C8.70989 31.0896 9.37739 30.8983 9.99266 30.5158C10.6079 30.1331 11.0692 29.616 11.3764 28.9646L12.5431 26.5575C12.8828 25.8861 13.3659 25.3625 13.9922 24.9867C14.6189 24.6108 15.3021 24.4229 16.0418 24.4229H23.9585C24.7107 24.4229 25.3961 24.6233 26.0147 25.0242C26.6336 25.425 27.1284 25.9468 27.4989 26.5896L28.6656 28.9646C28.9728 29.616 29.4347 30.1331 30.0514 30.5158C30.6681 30.8983 31.3385 31.0896 32.0627 31.0896C33.1463 31.0896 34.0729 30.7238 34.8427 29.9921C35.6121 29.2601 36 28.36 36.0064 27.2917C36.0064 27.1842 35.9659 26.8313 35.8847 26.2329L32.3847 12.2746C32.1292 11.2996 31.6074 10.4951 30.8193 9.86125C30.0313 9.22736 29.1332 8.91042 28.1252 8.91042H11.8752C10.8468 8.91042 9.9378 9.22583 9.14808 9.85667C8.35836 10.4875 7.84752 11.2935 7.61558 12.2746L4.11558 26.2329C4.10002 26.3482 4.05947 26.6872 3.99391 27.25C3.99391 28.3494 4.3853 29.2643 5.16808 29.9946C5.95113 30.7246 6.89183 31.0896 7.99016 31.0896ZM22.5056 17.8204C22.8147 17.8204 23.0834 17.7046 23.3114 17.4729C23.5397 17.241 23.6539 16.9704 23.6539 16.6613C23.6539 16.3521 23.5381 16.0835 23.3064 15.8554C23.0745 15.6271 22.8039 15.5129 22.4947 15.5129C22.1856 15.5129 21.917 15.6288 21.6889 15.8604C21.4606 16.0924 21.3464 16.3629 21.3464 16.6721C21.3464 16.9813 21.4622 17.2499 21.6939 17.4779C21.9259 17.7062 22.1964 17.8204 22.5056 17.8204ZM25.8389 14.4871C26.1481 14.4871 26.4167 14.3712 26.6447 14.1396C26.8731 13.9076 26.9872 13.6371 26.9872 13.3279C26.9872 13.0188 26.8714 12.7501 26.6397 12.5221C26.4078 12.2938 26.1372 12.1796 25.8281 12.1796C25.5189 12.1796 25.2503 12.2954 25.0222 12.5271C24.7939 12.759 24.6797 13.0296 24.6797 13.3388C24.6797 13.6479 24.7956 13.9165 25.0272 14.1446C25.2592 14.3729 25.5297 14.4871 25.8389 14.4871ZM25.8389 21.1538C26.1481 21.1538 26.4167 21.0379 26.6447 20.8063C26.8731 20.5743 26.9872 20.3038 26.9872 19.9946C26.9872 19.6854 26.8714 19.4168 26.6397 19.1888C26.4078 18.9604 26.1372 18.8463 25.8281 18.8463C25.5189 18.8463 25.2503 18.9621 25.0222 19.1938C24.7939 19.4257 24.6797 19.6962 24.6797 20.0054C24.6797 20.3146 24.7956 20.5832 25.0272 20.8113C25.2592 21.0396 25.5297 21.1538 25.8389 21.1538ZM29.1722 17.8204C29.4814 17.8204 29.75 17.7046 29.9781 17.4729C30.2064 17.241 30.3206 16.9704 30.3206 16.6613C30.3206 16.3521 30.2047 16.0835 29.9731 15.8554C29.7411 15.6271 29.4706 15.5129 29.1614 15.5129C28.8522 15.5129 28.5836 15.6288 28.3556 15.8604C28.1272 16.0924 28.0131 16.3629 28.0131 16.6721C28.0131 16.9813 28.1289 17.2499 28.3606 17.4779C28.5925 17.7062 28.8631 17.8204 29.1722 17.8204ZM14.1639 20.2458C14.3545 20.2458 14.5166 20.1832 14.6502 20.0579C14.7838 19.9329 14.8506 19.7747 14.8506 19.5833V17.3292H17.0835C17.2707 17.3292 17.4314 17.2668 17.5656 17.1421C17.7 17.0176 17.7672 16.8601 17.7672 16.6696C17.7672 16.479 17.7 16.3169 17.5656 16.1833C17.4314 16.0497 17.2707 15.9829 17.0835 15.9829H14.8506V13.75C14.8506 13.5628 14.7832 13.4021 14.6485 13.2679C14.5138 13.1335 14.3511 13.0663 14.1606 13.0663C13.97 13.0663 13.8131 13.1335 13.6897 13.2679C13.5661 13.4021 13.5043 13.5628 13.5043 13.75V15.9829H11.2502C11.0588 15.9829 10.9006 16.0503 10.7756 16.185C10.6503 16.3197 10.5877 16.4824 10.5877 16.6729C10.5877 16.8635 10.6503 17.0204 10.7756 17.1438C10.9006 17.2674 11.0588 17.3292 11.2502 17.3292H13.5043V19.5833C13.5043 19.7747 13.5667 19.9329 13.6914 20.0579C13.8159 20.1832 13.9734 20.2458 14.1639 20.2458Z" fill="white"/>
</g>
</svg>
