<?xml version="1.0"?>

<svg xmlns="http://www.w3.org/2000/svg" xmlns:xlink="http://www.w3.org/1999/xlink" version="1.1" width="873px" height="873px" viewBox="0 0 873 873">
<defs/>
<rect x="24" y="24" width="25" height="25" fill="#4ba2ef"/>
<rect x="49" y="24" width="25" height="25" fill="#4ba2ef"/>
<rect x="74" y="24" width="25" height="25" fill="#4ba2ef"/>
<rect x="99" y="24" width="25" height="25" fill="#4ba2ef"/>
<rect x="124" y="24" width="25" height="25" fill="#4ba2ef"/>
<rect x="149" y="24" width="25" height="25" fill="#4ba2ef"/>
<rect x="174" y="24" width="25" height="25" fill="#4ba2ef"/>
<rect x="299" y="24" width="25" height="25" fill="#4ba2ef"/>
<rect x="324" y="24" width="25" height="25" fill="#4ba2ef"/>
<rect x="374" y="24" width="25" height="25" fill="#4ba2ef"/>
<rect x="399" y="24" width="25" height="25" fill="#4ba2ef"/>
<rect x="474" y="24" width="25" height="25" fill="#4ba2ef"/>
<rect x="499" y="24" width="25" height="25" fill="#4ba2ef"/>
<rect x="524" y="24" width="25" height="25" fill="#4ba2ef"/>
<rect x="549" y="24" width="25" height="25" fill="#4ba2ef"/>
<rect x="574" y="24" width="25" height="25" fill="#4ba2ef"/>
<rect x="599" y="24" width="25" height="25" fill="#4ba2ef"/>
<rect x="624" y="24" width="25" height="25" fill="#4ba2ef"/>
<rect x="674" y="24" width="25" height="25" fill="#4ba2ef"/>
<rect x="699" y="24" width="25" height="25" fill="#4ba2ef"/>
<rect x="724" y="24" width="25" height="25" fill="#4ba2ef"/>
<rect x="749" y="24" width="25" height="25" fill="#4ba2ef"/>
<rect x="774" y="24" width="25" height="25" fill="#4ba2ef"/>
<rect x="799" y="24" width="25" height="25" fill="#4ba2ef"/>
<rect x="824" y="24" width="25" height="25" fill="#4ba2ef"/>
<rect x="24" y="49" width="25" height="25" fill="#4ba2ef"/>
<rect x="174" y="49" width="25" height="25" fill="#4ba2ef"/>
<rect x="249" y="49" width="25" height="25" fill="#4ba2ef"/>
<rect x="274" y="49" width="25" height="25" fill="#4ba2ef"/>
<rect x="324" y="49" width="25" height="25" fill="#4ba2ef"/>
<rect x="349" y="49" width="25" height="25" fill="#4ba2ef"/>
<rect x="424" y="49" width="25" height="25" fill="#4ba2ef"/>
<rect x="549" y="49" width="25" height="25" fill="#4ba2ef"/>
<rect x="574" y="49" width="25" height="25" fill="#4ba2ef"/>
<rect x="599" y="49" width="25" height="25" fill="#4ba2ef"/>
<rect x="624" y="49" width="25" height="25" fill="#4ba2ef"/>
<rect x="674" y="49" width="25" height="25" fill="#4ba2ef"/>
<rect x="824" y="49" width="25" height="25" fill="#4ba2ef"/>
<rect x="24" y="74" width="25" height="25" fill="#4ba2ef"/>
<rect x="74" y="74" width="25" height="25" fill="#4ba2ef"/>
<rect x="99" y="74" width="25" height="25" fill="#4ba2ef"/>
<rect x="124" y="74" width="25" height="25" fill="#4ba2ef"/>
<rect x="174" y="74" width="25" height="25" fill="#4ba2ef"/>
<rect x="249" y="74" width="25" height="25" fill="#4ba2ef"/>
<rect x="274" y="74" width="25" height="25" fill="#4ba2ef"/>
<rect x="349" y="74" width="25" height="25" fill="#4ba2ef"/>
<rect x="424" y="74" width="25" height="25" fill="#4ba2ef"/>
<rect x="499" y="74" width="25" height="25" fill="#4ba2ef"/>
<rect x="574" y="74" width="25" height="25" fill="#4ba2ef"/>
<rect x="599" y="74" width="25" height="25" fill="#4ba2ef"/>
<rect x="624" y="74" width="25" height="25" fill="#4ba2ef"/>
<rect x="674" y="74" width="25" height="25" fill="#4ba2ef"/>
<rect x="724" y="74" width="25" height="25" fill="#4ba2ef"/>
<rect x="749" y="74" width="25" height="25" fill="#4ba2ef"/>
<rect x="774" y="74" width="25" height="25" fill="#4ba2ef"/>
<rect x="824" y="74" width="25" height="25" fill="#4ba2ef"/>
<rect x="24" y="99" width="25" height="25" fill="#4ba2ef"/>
<rect x="74" y="99" width="25" height="25" fill="#4ba2ef"/>
<rect x="99" y="99" width="25" height="25" fill="#4ba2ef"/>
<rect x="124" y="99" width="25" height="25" fill="#4ba2ef"/>
<rect x="174" y="99" width="25" height="25" fill="#4ba2ef"/>
<rect x="274" y="99" width="25" height="25" fill="#4ba2ef"/>
<rect x="299" y="99" width="25" height="25" fill="#4ba2ef"/>
<rect x="324" y="99" width="25" height="25" fill="#4ba2ef"/>
<rect x="349" y="99" width="25" height="25" fill="#4ba2ef"/>
<rect x="399" y="99" width="25" height="25" fill="#4ba2ef"/>
<rect x="424" y="99" width="25" height="25" fill="#4ba2ef"/>
<rect x="474" y="99" width="25" height="25" fill="#4ba2ef"/>
<rect x="574" y="99" width="25" height="25" fill="#4ba2ef"/>
<rect x="624" y="99" width="25" height="25" fill="#4ba2ef"/>
<rect x="674" y="99" width="25" height="25" fill="#4ba2ef"/>
<rect x="724" y="99" width="25" height="25" fill="#4ba2ef"/>
<rect x="749" y="99" width="25" height="25" fill="#4ba2ef"/>
<rect x="774" y="99" width="25" height="25" fill="#4ba2ef"/>
<rect x="824" y="99" width="25" height="25" fill="#4ba2ef"/>
<rect x="24" y="124" width="25" height="25" fill="#4ba2ef"/>
<rect x="74" y="124" width="25" height="25" fill="#4ba2ef"/>
<rect x="99" y="124" width="25" height="25" fill="#4ba2ef"/>
<rect x="124" y="124" width="25" height="25" fill="#4ba2ef"/>
<rect x="174" y="124" width="25" height="25" fill="#4ba2ef"/>
<rect x="224" y="124" width="25" height="25" fill="#4ba2ef"/>
<rect x="249" y="124" width="25" height="25" fill="#4ba2ef"/>
<rect x="299" y="124" width="25" height="25" fill="#4ba2ef"/>
<rect x="424" y="124" width="25" height="25" fill="#4ba2ef"/>
<rect x="449" y="124" width="25" height="25" fill="#4ba2ef"/>
<rect x="474" y="124" width="25" height="25" fill="#4ba2ef"/>
<rect x="499" y="124" width="25" height="25" fill="#4ba2ef"/>
<rect x="524" y="124" width="25" height="25" fill="#4ba2ef"/>
<rect x="574" y="124" width="25" height="25" fill="#4ba2ef"/>
<rect x="599" y="124" width="25" height="25" fill="#4ba2ef"/>
<rect x="624" y="124" width="25" height="25" fill="#4ba2ef"/>
<rect x="674" y="124" width="25" height="25" fill="#4ba2ef"/>
<rect x="724" y="124" width="25" height="25" fill="#4ba2ef"/>
<rect x="749" y="124" width="25" height="25" fill="#4ba2ef"/>
<rect x="774" y="124" width="25" height="25" fill="#4ba2ef"/>
<rect x="824" y="124" width="25" height="25" fill="#4ba2ef"/>
<rect x="24" y="149" width="25" height="25" fill="#4ba2ef"/>
<rect x="174" y="149" width="25" height="25" fill="#4ba2ef"/>
<rect x="249" y="149" width="25" height="25" fill="#4ba2ef"/>
<rect x="299" y="149" width="25" height="25" fill="#4ba2ef"/>
<rect x="449" y="149" width="25" height="25" fill="#4ba2ef"/>
<rect x="524" y="149" width="25" height="25" fill="#4ba2ef"/>
<rect x="549" y="149" width="25" height="25" fill="#4ba2ef"/>
<rect x="599" y="149" width="25" height="25" fill="#4ba2ef"/>
<rect x="674" y="149" width="25" height="25" fill="#4ba2ef"/>
<rect x="824" y="149" width="25" height="25" fill="#4ba2ef"/>
<rect x="24" y="174" width="25" height="25" fill="#4ba2ef"/>
<rect x="49" y="174" width="25" height="25" fill="#4ba2ef"/>
<rect x="74" y="174" width="25" height="25" fill="#4ba2ef"/>
<rect x="99" y="174" width="25" height="25" fill="#4ba2ef"/>
<rect x="124" y="174" width="25" height="25" fill="#4ba2ef"/>
<rect x="149" y="174" width="25" height="25" fill="#4ba2ef"/>
<rect x="174" y="174" width="25" height="25" fill="#4ba2ef"/>
<rect x="224" y="174" width="25" height="25" fill="#4ba2ef"/>
<rect x="274" y="174" width="25" height="25" fill="#4ba2ef"/>
<rect x="324" y="174" width="25" height="25" fill="#4ba2ef"/>
<rect x="374" y="174" width="25" height="25" fill="#4ba2ef"/>
<rect x="424" y="174" width="25" height="25" fill="#4ba2ef"/>
<rect x="474" y="174" width="25" height="25" fill="#4ba2ef"/>
<rect x="524" y="174" width="25" height="25" fill="#4ba2ef"/>
<rect x="574" y="174" width="25" height="25" fill="#4ba2ef"/>
<rect x="624" y="174" width="25" height="25" fill="#4ba2ef"/>
<rect x="674" y="174" width="25" height="25" fill="#4ba2ef"/>
<rect x="699" y="174" width="25" height="25" fill="#4ba2ef"/>
<rect x="724" y="174" width="25" height="25" fill="#4ba2ef"/>
<rect x="749" y="174" width="25" height="25" fill="#4ba2ef"/>
<rect x="774" y="174" width="25" height="25" fill="#4ba2ef"/>
<rect x="799" y="174" width="25" height="25" fill="#4ba2ef"/>
<rect x="824" y="174" width="25" height="25" fill="#4ba2ef"/>
<rect x="224" y="199" width="25" height="25" fill="#4ba2ef"/>
<rect x="324" y="199" width="25" height="25" fill="#4ba2ef"/>
<rect x="349" y="199" width="25" height="25" fill="#4ba2ef"/>
<rect x="399" y="199" width="25" height="25" fill="#4ba2ef"/>
<rect x="499" y="199" width="25" height="25" fill="#4ba2ef"/>
<rect x="624" y="199" width="25" height="25" fill="#4ba2ef"/>
<rect x="74" y="224" width="25" height="25" fill="#4ba2ef"/>
<rect x="99" y="224" width="25" height="25" fill="#4ba2ef"/>
<rect x="174" y="224" width="25" height="25" fill="#4ba2ef"/>
<rect x="199" y="224" width="25" height="25" fill="#4ba2ef"/>
<rect x="224" y="224" width="25" height="25" fill="#4ba2ef"/>
<rect x="249" y="224" width="25" height="25" fill="#4ba2ef"/>
<rect x="274" y="224" width="25" height="25" fill="#4ba2ef"/>
<rect x="324" y="224" width="25" height="25" fill="#4ba2ef"/>
<rect x="349" y="224" width="25" height="25" fill="#4ba2ef"/>
<rect x="399" y="224" width="25" height="25" fill="#4ba2ef"/>
<rect x="499" y="224" width="25" height="25" fill="#4ba2ef"/>
<rect x="524" y="224" width="25" height="25" fill="#4ba2ef"/>
<rect x="599" y="224" width="25" height="25" fill="#4ba2ef"/>
<rect x="649" y="224" width="25" height="25" fill="#4ba2ef"/>
<rect x="674" y="224" width="25" height="25" fill="#4ba2ef"/>
<rect x="724" y="224" width="25" height="25" fill="#4ba2ef"/>
<rect x="24" y="249" width="25" height="25" fill="#4ba2ef"/>
<rect x="99" y="249" width="25" height="25" fill="#4ba2ef"/>
<rect x="199" y="249" width="25" height="25" fill="#4ba2ef"/>
<rect x="299" y="249" width="25" height="25" fill="#4ba2ef"/>
<rect x="399" y="249" width="25" height="25" fill="#4ba2ef"/>
<rect x="424" y="249" width="25" height="25" fill="#4ba2ef"/>
<rect x="449" y="249" width="25" height="25" fill="#4ba2ef"/>
<rect x="474" y="249" width="25" height="25" fill="#4ba2ef"/>
<rect x="524" y="249" width="25" height="25" fill="#4ba2ef"/>
<rect x="549" y="249" width="25" height="25" fill="#4ba2ef"/>
<rect x="574" y="249" width="25" height="25" fill="#4ba2ef"/>
<rect x="599" y="249" width="25" height="25" fill="#4ba2ef"/>
<rect x="749" y="249" width="25" height="25" fill="#4ba2ef"/>
<rect x="774" y="249" width="25" height="25" fill="#4ba2ef"/>
<rect x="799" y="249" width="25" height="25" fill="#4ba2ef"/>
<rect x="824" y="249" width="25" height="25" fill="#4ba2ef"/>
<rect x="49" y="274" width="25" height="25" fill="#4ba2ef"/>
<rect x="74" y="274" width="25" height="25" fill="#4ba2ef"/>
<rect x="99" y="274" width="25" height="25" fill="#4ba2ef"/>
<rect x="124" y="274" width="25" height="25" fill="#4ba2ef"/>
<rect x="174" y="274" width="25" height="25" fill="#4ba2ef"/>
<rect x="199" y="274" width="25" height="25" fill="#4ba2ef"/>
<rect x="224" y="274" width="25" height="25" fill="#4ba2ef"/>
<rect x="299" y="274" width="25" height="25" fill="#4ba2ef"/>
<rect x="399" y="274" width="25" height="25" fill="#4ba2ef"/>
<rect x="449" y="274" width="25" height="25" fill="#4ba2ef"/>
<rect x="474" y="274" width="25" height="25" fill="#4ba2ef"/>
<rect x="599" y="274" width="25" height="25" fill="#4ba2ef"/>
<rect x="624" y="274" width="25" height="25" fill="#4ba2ef"/>
<rect x="649" y="274" width="25" height="25" fill="#4ba2ef"/>
<rect x="674" y="274" width="25" height="25" fill="#4ba2ef"/>
<rect x="699" y="274" width="25" height="25" fill="#4ba2ef"/>
<rect x="724" y="274" width="25" height="25" fill="#4ba2ef"/>
<rect x="774" y="274" width="25" height="25" fill="#4ba2ef"/>
<rect x="799" y="274" width="25" height="25" fill="#4ba2ef"/>
<rect x="74" y="299" width="25" height="25" fill="#4ba2ef"/>
<rect x="149" y="299" width="25" height="25" fill="#4ba2ef"/>
<rect x="224" y="299" width="25" height="25" fill="#4ba2ef"/>
<rect x="299" y="299" width="25" height="25" fill="#4ba2ef"/>
<rect x="324" y="299" width="25" height="25" fill="#4ba2ef"/>
<rect x="399" y="299" width="25" height="25" fill="#4ba2ef"/>
<rect x="424" y="299" width="25" height="25" fill="#4ba2ef"/>
<rect x="474" y="299" width="25" height="25" fill="#4ba2ef"/>
<rect x="599" y="299" width="25" height="25" fill="#4ba2ef"/>
<rect x="624" y="299" width="25" height="25" fill="#4ba2ef"/>
<rect x="649" y="299" width="25" height="25" fill="#4ba2ef"/>
<rect x="674" y="299" width="25" height="25" fill="#4ba2ef"/>
<rect x="699" y="299" width="25" height="25" fill="#4ba2ef"/>
<rect x="724" y="299" width="25" height="25" fill="#4ba2ef"/>
<rect x="799" y="299" width="25" height="25" fill="#4ba2ef"/>
<rect x="824" y="299" width="25" height="25" fill="#4ba2ef"/>
<rect x="49" y="324" width="25" height="25" fill="#4ba2ef"/>
<rect x="99" y="324" width="25" height="25" fill="#4ba2ef"/>
<rect x="124" y="324" width="25" height="25" fill="#4ba2ef"/>
<rect x="149" y="324" width="25" height="25" fill="#4ba2ef"/>
<rect x="174" y="324" width="25" height="25" fill="#4ba2ef"/>
<rect x="199" y="324" width="25" height="25" fill="#4ba2ef"/>
<rect x="249" y="324" width="25" height="25" fill="#4ba2ef"/>
<rect x="274" y="324" width="25" height="25" fill="#4ba2ef"/>
<rect x="324" y="324" width="25" height="25" fill="#4ba2ef"/>
<rect x="349" y="324" width="25" height="25" fill="#4ba2ef"/>
<rect x="374" y="324" width="25" height="25" fill="#4ba2ef"/>
<rect x="399" y="324" width="25" height="25" fill="#4ba2ef"/>
<rect x="424" y="324" width="25" height="25" fill="#4ba2ef"/>
<rect x="449" y="324" width="25" height="25" fill="#4ba2ef"/>
<rect x="474" y="324" width="25" height="25" fill="#4ba2ef"/>
<rect x="499" y="324" width="25" height="25" fill="#4ba2ef"/>
<rect x="549" y="324" width="25" height="25" fill="#4ba2ef"/>
<rect x="649" y="324" width="25" height="25" fill="#4ba2ef"/>
<rect x="674" y="324" width="25" height="25" fill="#4ba2ef"/>
<rect x="699" y="324" width="25" height="25" fill="#4ba2ef"/>
<rect x="749" y="324" width="25" height="25" fill="#4ba2ef"/>
<rect x="74" y="349" width="25" height="25" fill="#4ba2ef"/>
<rect x="99" y="349" width="25" height="25" fill="#4ba2ef"/>
<rect x="249" y="349" width="25" height="25" fill="#4ba2ef"/>
<rect x="274" y="349" width="25" height="25" fill="#4ba2ef"/>
<rect x="299" y="349" width="25" height="25" fill="#4ba2ef"/>
<rect x="399" y="349" width="25" height="25" fill="#4ba2ef"/>
<rect x="424" y="349" width="25" height="25" fill="#4ba2ef"/>
<rect x="474" y="349" width="25" height="25" fill="#4ba2ef"/>
<rect x="574" y="349" width="25" height="25" fill="#4ba2ef"/>
<rect x="624" y="349" width="25" height="25" fill="#4ba2ef"/>
<rect x="649" y="349" width="25" height="25" fill="#4ba2ef"/>
<rect x="674" y="349" width="25" height="25" fill="#4ba2ef"/>
<rect x="824" y="349" width="25" height="25" fill="#4ba2ef"/>
<rect x="24" y="374" width="25" height="25" fill="#4ba2ef"/>
<rect x="49" y="374" width="25" height="25" fill="#4ba2ef"/>
<rect x="149" y="374" width="25" height="25" fill="#4ba2ef"/>
<rect x="174" y="374" width="25" height="25" fill="#4ba2ef"/>
<rect x="249" y="374" width="25" height="25" fill="#4ba2ef"/>
<rect x="274" y="374" width="25" height="25" fill="#4ba2ef"/>
<rect x="324" y="374" width="25" height="25" fill="#4ba2ef"/>
<rect x="349" y="374" width="25" height="25" fill="#4ba2ef"/>
<rect x="449" y="374" width="25" height="25" fill="#4ba2ef"/>
<rect x="474" y="374" width="25" height="25" fill="#4ba2ef"/>
<rect x="549" y="374" width="25" height="25" fill="#4ba2ef"/>
<rect x="574" y="374" width="25" height="25" fill="#4ba2ef"/>
<rect x="599" y="374" width="25" height="25" fill="#4ba2ef"/>
<rect x="724" y="374" width="25" height="25" fill="#4ba2ef"/>
<rect x="774" y="374" width="25" height="25" fill="#4ba2ef"/>
<rect x="49" y="399" width="25" height="25" fill="#4ba2ef"/>
<rect x="99" y="399" width="25" height="25" fill="#4ba2ef"/>
<rect x="124" y="399" width="25" height="25" fill="#4ba2ef"/>
<rect x="149" y="399" width="25" height="25" fill="#4ba2ef"/>
<rect x="224" y="399" width="25" height="25" fill="#4ba2ef"/>
<rect x="274" y="399" width="25" height="25" fill="#4ba2ef"/>
<rect x="349" y="399" width="25" height="25" fill="#4ba2ef"/>
<rect x="374" y="399" width="25" height="25" fill="#4ba2ef"/>
<rect x="399" y="399" width="25" height="25" fill="#4ba2ef"/>
<rect x="574" y="399" width="25" height="25" fill="#4ba2ef"/>
<rect x="599" y="399" width="25" height="25" fill="#4ba2ef"/>
<rect x="624" y="399" width="25" height="25" fill="#4ba2ef"/>
<rect x="649" y="399" width="25" height="25" fill="#4ba2ef"/>
<rect x="674" y="399" width="25" height="25" fill="#4ba2ef"/>
<rect x="699" y="399" width="25" height="25" fill="#4ba2ef"/>
<rect x="749" y="399" width="25" height="25" fill="#4ba2ef"/>
<rect x="824" y="399" width="25" height="25" fill="#4ba2ef"/>
<rect x="24" y="424" width="25" height="25" fill="#4ba2ef"/>
<rect x="49" y="424" width="25" height="25" fill="#4ba2ef"/>
<rect x="174" y="424" width="25" height="25" fill="#4ba2ef"/>
<rect x="249" y="424" width="25" height="25" fill="#4ba2ef"/>
<rect x="324" y="424" width="25" height="25" fill="#4ba2ef"/>
<rect x="374" y="424" width="25" height="25" fill="#4ba2ef"/>
<rect x="449" y="424" width="25" height="25" fill="#4ba2ef"/>
<rect x="474" y="424" width="25" height="25" fill="#4ba2ef"/>
<rect x="499" y="424" width="25" height="25" fill="#4ba2ef"/>
<rect x="549" y="424" width="25" height="25" fill="#4ba2ef"/>
<rect x="599" y="424" width="25" height="25" fill="#4ba2ef"/>
<rect x="674" y="424" width="25" height="25" fill="#4ba2ef"/>
<rect x="774" y="424" width="25" height="25" fill="#4ba2ef"/>
<rect x="49" y="449" width="25" height="25" fill="#4ba2ef"/>
<rect x="74" y="449" width="25" height="25" fill="#4ba2ef"/>
<rect x="124" y="449" width="25" height="25" fill="#4ba2ef"/>
<rect x="149" y="449" width="25" height="25" fill="#4ba2ef"/>
<rect x="224" y="449" width="25" height="25" fill="#4ba2ef"/>
<rect x="324" y="449" width="25" height="25" fill="#4ba2ef"/>
<rect x="374" y="449" width="25" height="25" fill="#4ba2ef"/>
<rect x="399" y="449" width="25" height="25" fill="#4ba2ef"/>
<rect x="424" y="449" width="25" height="25" fill="#4ba2ef"/>
<rect x="474" y="449" width="25" height="25" fill="#4ba2ef"/>
<rect x="574" y="449" width="25" height="25" fill="#4ba2ef"/>
<rect x="649" y="449" width="25" height="25" fill="#4ba2ef"/>
<rect x="674" y="449" width="25" height="25" fill="#4ba2ef"/>
<rect x="699" y="449" width="25" height="25" fill="#4ba2ef"/>
<rect x="724" y="449" width="25" height="25" fill="#4ba2ef"/>
<rect x="799" y="449" width="25" height="25" fill="#4ba2ef"/>
<rect x="824" y="449" width="25" height="25" fill="#4ba2ef"/>
<rect x="49" y="474" width="25" height="25" fill="#4ba2ef"/>
<rect x="124" y="474" width="25" height="25" fill="#4ba2ef"/>
<rect x="174" y="474" width="25" height="25" fill="#4ba2ef"/>
<rect x="224" y="474" width="25" height="25" fill="#4ba2ef"/>
<rect x="249" y="474" width="25" height="25" fill="#4ba2ef"/>
<rect x="299" y="474" width="25" height="25" fill="#4ba2ef"/>
<rect x="324" y="474" width="25" height="25" fill="#4ba2ef"/>
<rect x="399" y="474" width="25" height="25" fill="#4ba2ef"/>
<rect x="499" y="474" width="25" height="25" fill="#4ba2ef"/>
<rect x="524" y="474" width="25" height="25" fill="#4ba2ef"/>
<rect x="574" y="474" width="25" height="25" fill="#4ba2ef"/>
<rect x="649" y="474" width="25" height="25" fill="#4ba2ef"/>
<rect x="674" y="474" width="25" height="25" fill="#4ba2ef"/>
<rect x="699" y="474" width="25" height="25" fill="#4ba2ef"/>
<rect x="724" y="474" width="25" height="25" fill="#4ba2ef"/>
<rect x="749" y="474" width="25" height="25" fill="#4ba2ef"/>
<rect x="774" y="474" width="25" height="25" fill="#4ba2ef"/>
<rect x="124" y="499" width="25" height="25" fill="#4ba2ef"/>
<rect x="149" y="499" width="25" height="25" fill="#4ba2ef"/>
<rect x="199" y="499" width="25" height="25" fill="#4ba2ef"/>
<rect x="274" y="499" width="25" height="25" fill="#4ba2ef"/>
<rect x="299" y="499" width="25" height="25" fill="#4ba2ef"/>
<rect x="324" y="499" width="25" height="25" fill="#4ba2ef"/>
<rect x="349" y="499" width="25" height="25" fill="#4ba2ef"/>
<rect x="474" y="499" width="25" height="25" fill="#4ba2ef"/>
<rect x="549" y="499" width="25" height="25" fill="#4ba2ef"/>
<rect x="624" y="499" width="25" height="25" fill="#4ba2ef"/>
<rect x="699" y="499" width="25" height="25" fill="#4ba2ef"/>
<rect x="749" y="499" width="25" height="25" fill="#4ba2ef"/>
<rect x="774" y="499" width="25" height="25" fill="#4ba2ef"/>
<rect x="49" y="524" width="25" height="25" fill="#4ba2ef"/>
<rect x="74" y="524" width="25" height="25" fill="#4ba2ef"/>
<rect x="99" y="524" width="25" height="25" fill="#4ba2ef"/>
<rect x="174" y="524" width="25" height="25" fill="#4ba2ef"/>
<rect x="224" y="524" width="25" height="25" fill="#4ba2ef"/>
<rect x="274" y="524" width="25" height="25" fill="#4ba2ef"/>
<rect x="299" y="524" width="25" height="25" fill="#4ba2ef"/>
<rect x="324" y="524" width="25" height="25" fill="#4ba2ef"/>
<rect x="349" y="524" width="25" height="25" fill="#4ba2ef"/>
<rect x="374" y="524" width="25" height="25" fill="#4ba2ef"/>
<rect x="399" y="524" width="25" height="25" fill="#4ba2ef"/>
<rect x="499" y="524" width="25" height="25" fill="#4ba2ef"/>
<rect x="574" y="524" width="25" height="25" fill="#4ba2ef"/>
<rect x="624" y="524" width="25" height="25" fill="#4ba2ef"/>
<rect x="674" y="524" width="25" height="25" fill="#4ba2ef"/>
<rect x="749" y="524" width="25" height="25" fill="#4ba2ef"/>
<rect x="774" y="524" width="25" height="25" fill="#4ba2ef"/>
<rect x="24" y="549" width="25" height="25" fill="#4ba2ef"/>
<rect x="49" y="549" width="25" height="25" fill="#4ba2ef"/>
<rect x="124" y="549" width="25" height="25" fill="#4ba2ef"/>
<rect x="149" y="549" width="25" height="25" fill="#4ba2ef"/>
<rect x="199" y="549" width="25" height="25" fill="#4ba2ef"/>
<rect x="249" y="549" width="25" height="25" fill="#4ba2ef"/>
<rect x="274" y="549" width="25" height="25" fill="#4ba2ef"/>
<rect x="299" y="549" width="25" height="25" fill="#4ba2ef"/>
<rect x="349" y="549" width="25" height="25" fill="#4ba2ef"/>
<rect x="374" y="549" width="25" height="25" fill="#4ba2ef"/>
<rect x="399" y="549" width="25" height="25" fill="#4ba2ef"/>
<rect x="424" y="549" width="25" height="25" fill="#4ba2ef"/>
<rect x="449" y="549" width="25" height="25" fill="#4ba2ef"/>
<rect x="524" y="549" width="25" height="25" fill="#4ba2ef"/>
<rect x="549" y="549" width="25" height="25" fill="#4ba2ef"/>
<rect x="624" y="549" width="25" height="25" fill="#4ba2ef"/>
<rect x="724" y="549" width="25" height="25" fill="#4ba2ef"/>
<rect x="749" y="549" width="25" height="25" fill="#4ba2ef"/>
<rect x="774" y="549" width="25" height="25" fill="#4ba2ef"/>
<rect x="799" y="549" width="25" height="25" fill="#4ba2ef"/>
<rect x="824" y="549" width="25" height="25" fill="#4ba2ef"/>
<rect x="99" y="574" width="25" height="25" fill="#4ba2ef"/>
<rect x="174" y="574" width="25" height="25" fill="#4ba2ef"/>
<rect x="249" y="574" width="25" height="25" fill="#4ba2ef"/>
<rect x="274" y="574" width="25" height="25" fill="#4ba2ef"/>
<rect x="324" y="574" width="25" height="25" fill="#4ba2ef"/>
<rect x="499" y="574" width="25" height="25" fill="#4ba2ef"/>
<rect x="524" y="574" width="25" height="25" fill="#4ba2ef"/>
<rect x="574" y="574" width="25" height="25" fill="#4ba2ef"/>
<rect x="599" y="574" width="25" height="25" fill="#4ba2ef"/>
<rect x="624" y="574" width="25" height="25" fill="#4ba2ef"/>
<rect x="649" y="574" width="25" height="25" fill="#4ba2ef"/>
<rect x="674" y="574" width="25" height="25" fill="#4ba2ef"/>
<rect x="724" y="574" width="25" height="25" fill="#4ba2ef"/>
<rect x="774" y="574" width="25" height="25" fill="#4ba2ef"/>
<rect x="799" y="574" width="25" height="25" fill="#4ba2ef"/>
<rect x="49" y="599" width="25" height="25" fill="#4ba2ef"/>
<rect x="74" y="599" width="25" height="25" fill="#4ba2ef"/>
<rect x="149" y="599" width="25" height="25" fill="#4ba2ef"/>
<rect x="199" y="599" width="25" height="25" fill="#4ba2ef"/>
<rect x="299" y="599" width="25" height="25" fill="#4ba2ef"/>
<rect x="324" y="599" width="25" height="25" fill="#4ba2ef"/>
<rect x="374" y="599" width="25" height="25" fill="#4ba2ef"/>
<rect x="399" y="599" width="25" height="25" fill="#4ba2ef"/>
<rect x="449" y="599" width="25" height="25" fill="#4ba2ef"/>
<rect x="549" y="599" width="25" height="25" fill="#4ba2ef"/>
<rect x="674" y="599" width="25" height="25" fill="#4ba2ef"/>
<rect x="724" y="599" width="25" height="25" fill="#4ba2ef"/>
<rect x="749" y="599" width="25" height="25" fill="#4ba2ef"/>
<rect x="799" y="599" width="25" height="25" fill="#4ba2ef"/>
<rect x="824" y="599" width="25" height="25" fill="#4ba2ef"/>
<rect x="24" y="624" width="25" height="25" fill="#4ba2ef"/>
<rect x="74" y="624" width="25" height="25" fill="#4ba2ef"/>
<rect x="124" y="624" width="25" height="25" fill="#4ba2ef"/>
<rect x="149" y="624" width="25" height="25" fill="#4ba2ef"/>
<rect x="174" y="624" width="25" height="25" fill="#4ba2ef"/>
<rect x="274" y="624" width="25" height="25" fill="#4ba2ef"/>
<rect x="299" y="624" width="25" height="25" fill="#4ba2ef"/>
<rect x="349" y="624" width="25" height="25" fill="#4ba2ef"/>
<rect x="374" y="624" width="25" height="25" fill="#4ba2ef"/>
<rect x="399" y="624" width="25" height="25" fill="#4ba2ef"/>
<rect x="424" y="624" width="25" height="25" fill="#4ba2ef"/>
<rect x="574" y="624" width="25" height="25" fill="#4ba2ef"/>
<rect x="624" y="624" width="25" height="25" fill="#4ba2ef"/>
<rect x="649" y="624" width="25" height="25" fill="#4ba2ef"/>
<rect x="674" y="624" width="25" height="25" fill="#4ba2ef"/>
<rect x="699" y="624" width="25" height="25" fill="#4ba2ef"/>
<rect x="724" y="624" width="25" height="25" fill="#4ba2ef"/>
<rect x="774" y="624" width="25" height="25" fill="#4ba2ef"/>
<rect x="799" y="624" width="25" height="25" fill="#4ba2ef"/>
<rect x="224" y="649" width="25" height="25" fill="#4ba2ef"/>
<rect x="249" y="649" width="25" height="25" fill="#4ba2ef"/>
<rect x="274" y="649" width="25" height="25" fill="#4ba2ef"/>
<rect x="324" y="649" width="25" height="25" fill="#4ba2ef"/>
<rect x="349" y="649" width="25" height="25" fill="#4ba2ef"/>
<rect x="374" y="649" width="25" height="25" fill="#4ba2ef"/>
<rect x="399" y="649" width="25" height="25" fill="#4ba2ef"/>
<rect x="424" y="649" width="25" height="25" fill="#4ba2ef"/>
<rect x="449" y="649" width="25" height="25" fill="#4ba2ef"/>
<rect x="474" y="649" width="25" height="25" fill="#4ba2ef"/>
<rect x="549" y="649" width="25" height="25" fill="#4ba2ef"/>
<rect x="574" y="649" width="25" height="25" fill="#4ba2ef"/>
<rect x="624" y="649" width="25" height="25" fill="#4ba2ef"/>
<rect x="724" y="649" width="25" height="25" fill="#4ba2ef"/>
<rect x="799" y="649" width="25" height="25" fill="#4ba2ef"/>
<rect x="24" y="674" width="25" height="25" fill="#4ba2ef"/>
<rect x="49" y="674" width="25" height="25" fill="#4ba2ef"/>
<rect x="74" y="674" width="25" height="25" fill="#4ba2ef"/>
<rect x="99" y="674" width="25" height="25" fill="#4ba2ef"/>
<rect x="124" y="674" width="25" height="25" fill="#4ba2ef"/>
<rect x="149" y="674" width="25" height="25" fill="#4ba2ef"/>
<rect x="174" y="674" width="25" height="25" fill="#4ba2ef"/>
<rect x="224" y="674" width="25" height="25" fill="#4ba2ef"/>
<rect x="299" y="674" width="25" height="25" fill="#4ba2ef"/>
<rect x="374" y="674" width="25" height="25" fill="#4ba2ef"/>
<rect x="424" y="674" width="25" height="25" fill="#4ba2ef"/>
<rect x="449" y="674" width="25" height="25" fill="#4ba2ef"/>
<rect x="524" y="674" width="25" height="25" fill="#4ba2ef"/>
<rect x="549" y="674" width="25" height="25" fill="#4ba2ef"/>
<rect x="624" y="674" width="25" height="25" fill="#4ba2ef"/>
<rect x="674" y="674" width="25" height="25" fill="#4ba2ef"/>
<rect x="724" y="674" width="25" height="25" fill="#4ba2ef"/>
<rect x="749" y="674" width="25" height="25" fill="#4ba2ef"/>
<rect x="774" y="674" width="25" height="25" fill="#4ba2ef"/>
<rect x="824" y="674" width="25" height="25" fill="#4ba2ef"/>
<rect x="24" y="699" width="25" height="25" fill="#4ba2ef"/>
<rect x="174" y="699" width="25" height="25" fill="#4ba2ef"/>
<rect x="249" y="699" width="25" height="25" fill="#4ba2ef"/>
<rect x="274" y="699" width="25" height="25" fill="#4ba2ef"/>
<rect x="374" y="699" width="25" height="25" fill="#4ba2ef"/>
<rect x="449" y="699" width="25" height="25" fill="#4ba2ef"/>
<rect x="474" y="699" width="25" height="25" fill="#4ba2ef"/>
<rect x="499" y="699" width="25" height="25" fill="#4ba2ef"/>
<rect x="624" y="699" width="25" height="25" fill="#4ba2ef"/>
<rect x="724" y="699" width="25" height="25" fill="#4ba2ef"/>
<rect x="749" y="699" width="25" height="25" fill="#4ba2ef"/>
<rect x="774" y="699" width="25" height="25" fill="#4ba2ef"/>
<rect x="824" y="699" width="25" height="25" fill="#4ba2ef"/>
<rect x="24" y="724" width="25" height="25" fill="#4ba2ef"/>
<rect x="74" y="724" width="25" height="25" fill="#4ba2ef"/>
<rect x="99" y="724" width="25" height="25" fill="#4ba2ef"/>
<rect x="124" y="724" width="25" height="25" fill="#4ba2ef"/>
<rect x="174" y="724" width="25" height="25" fill="#4ba2ef"/>
<rect x="249" y="724" width="25" height="25" fill="#4ba2ef"/>
<rect x="274" y="724" width="25" height="25" fill="#4ba2ef"/>
<rect x="299" y="724" width="25" height="25" fill="#4ba2ef"/>
<rect x="349" y="724" width="25" height="25" fill="#4ba2ef"/>
<rect x="374" y="724" width="25" height="25" fill="#4ba2ef"/>
<rect x="424" y="724" width="25" height="25" fill="#4ba2ef"/>
<rect x="524" y="724" width="25" height="25" fill="#4ba2ef"/>
<rect x="574" y="724" width="25" height="25" fill="#4ba2ef"/>
<rect x="624" y="724" width="25" height="25" fill="#4ba2ef"/>
<rect x="649" y="724" width="25" height="25" fill="#4ba2ef"/>
<rect x="674" y="724" width="25" height="25" fill="#4ba2ef"/>
<rect x="699" y="724" width="25" height="25" fill="#4ba2ef"/>
<rect x="724" y="724" width="25" height="25" fill="#4ba2ef"/>
<rect x="749" y="724" width="25" height="25" fill="#4ba2ef"/>
<rect x="824" y="724" width="25" height="25" fill="#4ba2ef"/>
<rect x="24" y="749" width="25" height="25" fill="#4ba2ef"/>
<rect x="74" y="749" width="25" height="25" fill="#4ba2ef"/>
<rect x="99" y="749" width="25" height="25" fill="#4ba2ef"/>
<rect x="124" y="749" width="25" height="25" fill="#4ba2ef"/>
<rect x="174" y="749" width="25" height="25" fill="#4ba2ef"/>
<rect x="224" y="749" width="25" height="25" fill="#4ba2ef"/>
<rect x="249" y="749" width="25" height="25" fill="#4ba2ef"/>
<rect x="274" y="749" width="25" height="25" fill="#4ba2ef"/>
<rect x="299" y="749" width="25" height="25" fill="#4ba2ef"/>
<rect x="324" y="749" width="25" height="25" fill="#4ba2ef"/>
<rect x="349" y="749" width="25" height="25" fill="#4ba2ef"/>
<rect x="374" y="749" width="25" height="25" fill="#4ba2ef"/>
<rect x="424" y="749" width="25" height="25" fill="#4ba2ef"/>
<rect x="449" y="749" width="25" height="25" fill="#4ba2ef"/>
<rect x="499" y="749" width="25" height="25" fill="#4ba2ef"/>
<rect x="574" y="749" width="25" height="25" fill="#4ba2ef"/>
<rect x="624" y="749" width="25" height="25" fill="#4ba2ef"/>
<rect x="724" y="749" width="25" height="25" fill="#4ba2ef"/>
<rect x="749" y="749" width="25" height="25" fill="#4ba2ef"/>
<rect x="24" y="774" width="25" height="25" fill="#4ba2ef"/>
<rect x="74" y="774" width="25" height="25" fill="#4ba2ef"/>
<rect x="99" y="774" width="25" height="25" fill="#4ba2ef"/>
<rect x="124" y="774" width="25" height="25" fill="#4ba2ef"/>
<rect x="174" y="774" width="25" height="25" fill="#4ba2ef"/>
<rect x="224" y="774" width="25" height="25" fill="#4ba2ef"/>
<rect x="249" y="774" width="25" height="25" fill="#4ba2ef"/>
<rect x="324" y="774" width="25" height="25" fill="#4ba2ef"/>
<rect x="349" y="774" width="25" height="25" fill="#4ba2ef"/>
<rect x="424" y="774" width="25" height="25" fill="#4ba2ef"/>
<rect x="449" y="774" width="25" height="25" fill="#4ba2ef"/>
<rect x="474" y="774" width="25" height="25" fill="#4ba2ef"/>
<rect x="499" y="774" width="25" height="25" fill="#4ba2ef"/>
<rect x="524" y="774" width="25" height="25" fill="#4ba2ef"/>
<rect x="549" y="774" width="25" height="25" fill="#4ba2ef"/>
<rect x="574" y="774" width="25" height="25" fill="#4ba2ef"/>
<rect x="599" y="774" width="25" height="25" fill="#4ba2ef"/>
<rect x="624" y="774" width="25" height="25" fill="#4ba2ef"/>
<rect x="699" y="774" width="25" height="25" fill="#4ba2ef"/>
<rect x="724" y="774" width="25" height="25" fill="#4ba2ef"/>
<rect x="749" y="774" width="25" height="25" fill="#4ba2ef"/>
<rect x="24" y="799" width="25" height="25" fill="#4ba2ef"/>
<rect x="174" y="799" width="25" height="25" fill="#4ba2ef"/>
<rect x="249" y="799" width="25" height="25" fill="#4ba2ef"/>
<rect x="374" y="799" width="25" height="25" fill="#4ba2ef"/>
<rect x="424" y="799" width="25" height="25" fill="#4ba2ef"/>
<rect x="449" y="799" width="25" height="25" fill="#4ba2ef"/>
<rect x="499" y="799" width="25" height="25" fill="#4ba2ef"/>
<rect x="524" y="799" width="25" height="25" fill="#4ba2ef"/>
<rect x="549" y="799" width="25" height="25" fill="#4ba2ef"/>
<rect x="649" y="799" width="25" height="25" fill="#4ba2ef"/>
<rect x="674" y="799" width="25" height="25" fill="#4ba2ef"/>
<rect x="724" y="799" width="25" height="25" fill="#4ba2ef"/>
<rect x="799" y="799" width="25" height="25" fill="#4ba2ef"/>
<rect x="24" y="824" width="25" height="25" fill="#4ba2ef"/>
<rect x="49" y="824" width="25" height="25" fill="#4ba2ef"/>
<rect x="74" y="824" width="25" height="25" fill="#4ba2ef"/>
<rect x="99" y="824" width="25" height="25" fill="#4ba2ef"/>
<rect x="124" y="824" width="25" height="25" fill="#4ba2ef"/>
<rect x="149" y="824" width="25" height="25" fill="#4ba2ef"/>
<rect x="174" y="824" width="25" height="25" fill="#4ba2ef"/>
<rect x="249" y="824" width="25" height="25" fill="#4ba2ef"/>
<rect x="299" y="824" width="25" height="25" fill="#4ba2ef"/>
<rect x="324" y="824" width="25" height="25" fill="#4ba2ef"/>
<rect x="374" y="824" width="25" height="25" fill="#4ba2ef"/>
<rect x="399" y="824" width="25" height="25" fill="#4ba2ef"/>
<rect x="424" y="824" width="25" height="25" fill="#4ba2ef"/>
<rect x="474" y="824" width="25" height="25" fill="#4ba2ef"/>
<rect x="524" y="824" width="25" height="25" fill="#4ba2ef"/>
<rect x="574" y="824" width="25" height="25" fill="#4ba2ef"/>
<rect x="599" y="824" width="25" height="25" fill="#4ba2ef"/>
<rect x="649" y="824" width="25" height="25" fill="#4ba2ef"/>
<rect x="674" y="824" width="25" height="25" fill="#4ba2ef"/>
<rect x="699" y="824" width="25" height="25" fill="#4ba2ef"/>
<rect x="724" y="824" width="25" height="25" fill="#4ba2ef"/>
</svg>

