<?xml version="1.0" standalone="no"?>
<svg xmlns="http://www.w3.org/2000/svg" width="500" height="500"><defs><clipPath id="clip-path-dot-color"><circle cx="26" cy="170" r="8" transform="rotate(0,26,170)"/><circle cx="26" cy="186" r="8" transform="rotate(0,26,186)"/><circle cx="26" cy="250" r="8" transform="rotate(0,26,250)"/><circle cx="26" cy="266" r="8" transform="rotate(0,26,266)"/><circle cx="26" cy="282" r="8" transform="rotate(0,26,282)"/><circle cx="26" cy="314" r="8" transform="rotate(0,26,314)"/><circle cx="26" cy="330" r="8" transform="rotate(0,26,330)"/><circle cx="26" cy="346" r="8" transform="rotate(0,26,346)"/><circle cx="42" cy="154" r="8" transform="rotate(0,42,154)"/><circle cx="42" cy="170" r="8" transform="rotate(0,42,170)"/><circle cx="42" cy="186" r="8" transform="rotate(0,42,186)"/><circle cx="42" cy="202" r="8" transform="rotate(0,42,202)"/><circle cx="42" cy="266" r="8" transform="rotate(0,42,266)"/><circle cx="42" cy="330" r="8" transform="rotate(0,42,330)"/><circle cx="42" cy="346" r="8" transform="rotate(0,42,346)"/><circle cx="58" cy="186" r="8" transform="rotate(0,58,186)"/><circle cx="58" cy="250" r="8" transform="rotate(0,58,250)"/><circle cx="58" cy="266" r="8" transform="rotate(0,58,266)"/><circle cx="58" cy="330" r="8" transform="rotate(0,58,330)"/><circle cx="58" cy="346" r="8" transform="rotate(0,58,346)"/><circle cx="74" cy="154" r="8" transform="rotate(0,74,154)"/><circle cx="74" cy="170" r="8" transform="rotate(0,74,170)"/><circle cx="74" cy="202" r="8" transform="rotate(0,74,202)"/><circle cx="74" cy="250" r="8" transform="rotate(0,74,250)"/><circle cx="74" cy="282" r="8" transform="rotate(0,74,282)"/><circle cx="74" cy="298" r="8" transform="rotate(0,74,298)"/><circle cx="74" cy="346" r="8" transform="rotate(0,74,346)"/><circle cx="90" cy="154" r="8" transform="rotate(0,90,154)"/><circle cx="90" cy="186" r="8" transform="rotate(0,90,186)"/><circle cx="90" cy="202" r="8" transform="rotate(0,90,202)"/><circle cx="90" cy="234" r="8" transform="rotate(0,90,234)"/><circle cx="90" cy="250" r="8" transform="rotate(0,90,250)"/><circle cx="90" cy="266" r="8" transform="rotate(0,90,266)"/><circle cx="90" cy="282" r="8" transform="rotate(0,90,282)"/><circle cx="90" cy="314" r="8" transform="rotate(0,90,314)"/><circle cx="90" cy="330" r="8" transform="rotate(0,90,330)"/><circle cx="106" cy="170" r="8" transform="rotate(0,106,170)"/><circle cx="106" cy="186" r="8" transform="rotate(0,106,186)"/><circle cx="106" cy="202" r="8" transform="rotate(0,106,202)"/><circle cx="106" cy="218" r="8" transform="rotate(0,106,218)"/><circle cx="106" cy="234" r="8" transform="rotate(0,106,234)"/><circle cx="106" cy="282" r="8" transform="rotate(0,106,282)"/><circle cx="122" cy="154" r="8" transform="rotate(0,122,154)"/><circle cx="122" cy="186" r="8" transform="rotate(0,122,186)"/><circle cx="122" cy="218" r="8" transform="rotate(0,122,218)"/><circle cx="122" cy="250" r="8" transform="rotate(0,122,250)"/><circle cx="122" cy="282" r="8" transform="rotate(0,122,282)"/><circle cx="122" cy="314" r="8" transform="rotate(0,122,314)"/><circle cx="122" cy="346" r="8" transform="rotate(0,122,346)"/><circle cx="138" cy="154" r="8" transform="rotate(0,138,154)"/><circle cx="138" cy="170" r="8" transform="rotate(0,138,170)"/><circle cx="138" cy="186" r="8" transform="rotate(0,138,186)"/><circle cx="138" cy="250" r="8" transform="rotate(0,138,250)"/><circle cx="138" cy="298" r="8" transform="rotate(0,138,298)"/><circle cx="138" cy="314" r="8" transform="rotate(0,138,314)"/><circle cx="154" cy="42" r="8" transform="rotate(0,154,42)"/><circle cx="154" cy="74" r="8" transform="rotate(0,154,74)"/><circle cx="154" cy="90" r="8" transform="rotate(0,154,90)"/><circle cx="154" cy="106" r="8" transform="rotate(0,154,106)"/><circle cx="154" cy="122" r="8" transform="rotate(0,154,122)"/><circle cx="154" cy="154" r="8" transform="rotate(0,154,154)"/><circle cx="154" cy="186" r="8" transform="rotate(0,154,186)"/><circle cx="154" cy="202" r="8" transform="rotate(0,154,202)"/><circle cx="154" cy="266" r="8" transform="rotate(0,154,266)"/><circle cx="154" cy="346" r="8" transform="rotate(0,154,346)"/><circle cx="154" cy="362" r="8" transform="rotate(0,154,362)"/><circle cx="154" cy="378" r="8" transform="rotate(0,154,378)"/><circle cx="154" cy="410" r="8" transform="rotate(0,154,410)"/><circle cx="154" cy="426" r="8" transform="rotate(0,154,426)"/><circle cx="154" cy="458" r="8" transform="rotate(0,154,458)"/><circle cx="170" cy="26" r="8" transform="rotate(0,170,26)"/><circle cx="170" cy="42" r="8" transform="rotate(0,170,42)"/><circle cx="170" cy="58" r="8" transform="rotate(0,170,58)"/><circle cx="170" cy="138" r="8" transform="rotate(0,170,138)"/><circle cx="170" cy="186" r="8" transform="rotate(0,170,186)"/><circle cx="170" cy="202" r="8" transform="rotate(0,170,202)"/><circle cx="170" cy="234" r="8" transform="rotate(0,170,234)"/><circle cx="170" cy="314" r="8" transform="rotate(0,170,314)"/><circle cx="170" cy="330" r="8" transform="rotate(0,170,330)"/><circle cx="170" cy="394" r="8" transform="rotate(0,170,394)"/><circle cx="170" cy="410" r="8" transform="rotate(0,170,410)"/><circle cx="170" cy="426" r="8" transform="rotate(0,170,426)"/><circle cx="170" cy="442" r="8" transform="rotate(0,170,442)"/><circle cx="170" cy="458" r="8" transform="rotate(0,170,458)"/><circle cx="186" cy="26" r="8" transform="rotate(0,186,26)"/><circle cx="186" cy="42" r="8" transform="rotate(0,186,42)"/><circle cx="186" cy="58" r="8" transform="rotate(0,186,58)"/><circle cx="186" cy="90" r="8" transform="rotate(0,186,90)"/><circle cx="186" cy="106" r="8" transform="rotate(0,186,106)"/><circle cx="186" cy="122" r="8" transform="rotate(0,186,122)"/><circle cx="186" cy="154" r="8" transform="rotate(0,186,154)"/><circle cx="186" cy="170" r="8" transform="rotate(0,186,170)"/><circle cx="186" cy="202" r="8" transform="rotate(0,186,202)"/><circle cx="186" cy="234" r="8" transform="rotate(0,186,234)"/><circle cx="186" cy="298" r="8" transform="rotate(0,186,298)"/><circle cx="186" cy="362" r="8" transform="rotate(0,186,362)"/><circle cx="186" cy="378" r="8" transform="rotate(0,186,378)"/><circle cx="186" cy="394" r="8" transform="rotate(0,186,394)"/><circle cx="186" cy="442" r="8" transform="rotate(0,186,442)"/><circle cx="202" cy="26" r="8" transform="rotate(0,202,26)"/><circle cx="202" cy="42" r="8" transform="rotate(0,202,42)"/><circle cx="202" cy="90" r="8" transform="rotate(0,202,90)"/><circle cx="202" cy="106" r="8" transform="rotate(0,202,106)"/><circle cx="202" cy="138" r="8" transform="rotate(0,202,138)"/><circle cx="202" cy="170" r="8" transform="rotate(0,202,170)"/><circle cx="202" cy="186" r="8" transform="rotate(0,202,186)"/><circle cx="202" cy="218" r="8" transform="rotate(0,202,218)"/><circle cx="202" cy="234" r="8" transform="rotate(0,202,234)"/><circle cx="202" cy="266" r="8" transform="rotate(0,202,266)"/><circle cx="202" cy="298" r="8" transform="rotate(0,202,298)"/><circle cx="202" cy="330" r="8" transform="rotate(0,202,330)"/><circle cx="202" cy="346" r="8" transform="rotate(0,202,346)"/><circle cx="202" cy="410" r="8" transform="rotate(0,202,410)"/><circle cx="202" cy="426" r="8" transform="rotate(0,202,426)"/><circle cx="202" cy="474" r="8" transform="rotate(0,202,474)"/><circle cx="218" cy="106" r="8" transform="rotate(0,218,106)"/><circle cx="218" cy="122" r="8" transform="rotate(0,218,122)"/><circle cx="218" cy="170" r="8" transform="rotate(0,218,170)"/><circle cx="218" cy="186" r="8" transform="rotate(0,218,186)"/><circle cx="218" cy="266" r="8" transform="rotate(0,218,266)"/><circle cx="218" cy="314" r="8" transform="rotate(0,218,314)"/><circle cx="218" cy="346" r="8" transform="rotate(0,218,346)"/><circle cx="218" cy="362" r="8" transform="rotate(0,218,362)"/><circle cx="218" cy="378" r="8" transform="rotate(0,218,378)"/><circle cx="218" cy="426" r="8" transform="rotate(0,218,426)"/><circle cx="218" cy="458" r="8" transform="rotate(0,218,458)"/><circle cx="234" cy="74" r="8" transform="rotate(0,234,74)"/><circle cx="234" cy="90" r="8" transform="rotate(0,234,90)"/><circle cx="234" cy="202" r="8" transform="rotate(0,234,202)"/><circle cx="234" cy="218" r="8" transform="rotate(0,234,218)"/><circle cx="234" cy="266" r="8" transform="rotate(0,234,266)"/><circle cx="234" cy="282" r="8" transform="rotate(0,234,282)"/><circle cx="234" cy="314" r="8" transform="rotate(0,234,314)"/><circle cx="234" cy="346" r="8" transform="rotate(0,234,346)"/><circle cx="234" cy="378" r="8" transform="rotate(0,234,378)"/><circle cx="234" cy="410" r="8" transform="rotate(0,234,410)"/><circle cx="234" cy="442" r="8" transform="rotate(0,234,442)"/><circle cx="234" cy="458" r="8" transform="rotate(0,234,458)"/><circle cx="234" cy="474" r="8" transform="rotate(0,234,474)"/><circle cx="250" cy="26" r="8" transform="rotate(0,250,26)"/><circle cx="250" cy="42" r="8" transform="rotate(0,250,42)"/><circle cx="250" cy="58" r="8" transform="rotate(0,250,58)"/><circle cx="250" cy="74" r="8" transform="rotate(0,250,74)"/><circle cx="250" cy="106" r="8" transform="rotate(0,250,106)"/><circle cx="250" cy="122" r="8" transform="rotate(0,250,122)"/><circle cx="250" cy="154" r="8" transform="rotate(0,250,154)"/><circle cx="250" cy="186" r="8" transform="rotate(0,250,186)"/><circle cx="250" cy="250" r="8" transform="rotate(0,250,250)"/><circle cx="250" cy="266" r="8" transform="rotate(0,250,266)"/><circle cx="250" cy="314" r="8" transform="rotate(0,250,314)"/><circle cx="250" cy="330" r="8" transform="rotate(0,250,330)"/><circle cx="250" cy="378" r="8" transform="rotate(0,250,378)"/><circle cx="250" cy="394" r="8" transform="rotate(0,250,394)"/><circle cx="250" cy="426" r="8" transform="rotate(0,250,426)"/><circle cx="250" cy="474" r="8" transform="rotate(0,250,474)"/><circle cx="266" cy="26" r="8" transform="rotate(0,266,26)"/><circle cx="266" cy="90" r="8" transform="rotate(0,266,90)"/><circle cx="266" cy="106" r="8" transform="rotate(0,266,106)"/><circle cx="266" cy="138" r="8" transform="rotate(0,266,138)"/><circle cx="266" cy="186" r="8" transform="rotate(0,266,186)"/><circle cx="266" cy="202" r="8" transform="rotate(0,266,202)"/><circle cx="266" cy="218" r="8" transform="rotate(0,266,218)"/><circle cx="266" cy="362" r="8" transform="rotate(0,266,362)"/><circle cx="266" cy="378" r="8" transform="rotate(0,266,378)"/><circle cx="266" cy="410" r="8" transform="rotate(0,266,410)"/><circle cx="266" cy="426" r="8" transform="rotate(0,266,426)"/><circle cx="266" cy="442" r="8" transform="rotate(0,266,442)"/><circle cx="266" cy="458" r="8" transform="rotate(0,266,458)"/><circle cx="282" cy="26" r="8" transform="rotate(0,282,26)"/><circle cx="282" cy="42" r="8" transform="rotate(0,282,42)"/><circle cx="282" cy="58" r="8" transform="rotate(0,282,58)"/><circle cx="282" cy="74" r="8" transform="rotate(0,282,74)"/><circle cx="282" cy="106" r="8" transform="rotate(0,282,106)"/><circle cx="282" cy="122" r="8" transform="rotate(0,282,122)"/><circle cx="282" cy="170" r="8" transform="rotate(0,282,170)"/><circle cx="282" cy="202" r="8" transform="rotate(0,282,202)"/><circle cx="282" cy="234" r="8" transform="rotate(0,282,234)"/><circle cx="282" cy="298" r="8" transform="rotate(0,282,298)"/><circle cx="282" cy="314" r="8" transform="rotate(0,282,314)"/><circle cx="282" cy="346" r="8" transform="rotate(0,282,346)"/><circle cx="282" cy="426" r="8" transform="rotate(0,282,426)"/><circle cx="282" cy="458" r="8" transform="rotate(0,282,458)"/><circle cx="298" cy="26" r="8" transform="rotate(0,298,26)"/><circle cx="298" cy="42" r="8" transform="rotate(0,298,42)"/><circle cx="298" cy="90" r="8" transform="rotate(0,298,90)"/><circle cx="298" cy="106" r="8" transform="rotate(0,298,106)"/><circle cx="298" cy="170" r="8" transform="rotate(0,298,170)"/><circle cx="298" cy="202" r="8" transform="rotate(0,298,202)"/><circle cx="298" cy="234" r="8" transform="rotate(0,298,234)"/><circle cx="298" cy="250" r="8" transform="rotate(0,298,250)"/><circle cx="298" cy="330" r="8" transform="rotate(0,298,330)"/><circle cx="298" cy="346" r="8" transform="rotate(0,298,346)"/><circle cx="298" cy="362" r="8" transform="rotate(0,298,362)"/><circle cx="298" cy="378" r="8" transform="rotate(0,298,378)"/><circle cx="298" cy="410" r="8" transform="rotate(0,298,410)"/><circle cx="298" cy="426" r="8" transform="rotate(0,298,426)"/><circle cx="314" cy="26" r="8" transform="rotate(0,314,26)"/><circle cx="314" cy="42" r="8" transform="rotate(0,314,42)"/><circle cx="314" cy="74" r="8" transform="rotate(0,314,74)"/><circle cx="314" cy="106" r="8" transform="rotate(0,314,106)"/><circle cx="314" cy="122" r="8" transform="rotate(0,314,122)"/><circle cx="314" cy="186" r="8" transform="rotate(0,314,186)"/><circle cx="314" cy="282" r="8" transform="rotate(0,314,282)"/><circle cx="314" cy="330" r="8" transform="rotate(0,314,330)"/><circle cx="314" cy="346" r="8" transform="rotate(0,314,346)"/><circle cx="314" cy="410" r="8" transform="rotate(0,314,410)"/><circle cx="314" cy="426" r="8" transform="rotate(0,314,426)"/><circle cx="314" cy="442" r="8" transform="rotate(0,314,442)"/><circle cx="314" cy="474" r="8" transform="rotate(0,314,474)"/><circle cx="330" cy="26" r="8" transform="rotate(0,330,26)"/><circle cx="330" cy="42" r="8" transform="rotate(0,330,42)"/><circle cx="330" cy="74" r="8" transform="rotate(0,330,74)"/><circle cx="330" cy="106" r="8" transform="rotate(0,330,106)"/><circle cx="330" cy="138" r="8" transform="rotate(0,330,138)"/><circle cx="330" cy="154" r="8" transform="rotate(0,330,154)"/><circle cx="330" cy="170" r="8" transform="rotate(0,330,170)"/><circle cx="330" cy="186" r="8" transform="rotate(0,330,186)"/><circle cx="330" cy="234" r="8" transform="rotate(0,330,234)"/><circle cx="330" cy="250" r="8" transform="rotate(0,330,250)"/><circle cx="330" cy="266" r="8" transform="rotate(0,330,266)"/><circle cx="330" cy="282" r="8" transform="rotate(0,330,282)"/><circle cx="330" cy="346" r="8" transform="rotate(0,330,346)"/><circle cx="330" cy="362" r="8" transform="rotate(0,330,362)"/><circle cx="330" cy="378" r="8" transform="rotate(0,330,378)"/><circle cx="330" cy="442" r="8" transform="rotate(0,330,442)"/><circle cx="330" cy="458" r="8" transform="rotate(0,330,458)"/><circle cx="330" cy="474" r="8" transform="rotate(0,330,474)"/><circle cx="346" cy="26" r="8" transform="rotate(0,346,26)"/><circle cx="346" cy="42" r="8" transform="rotate(0,346,42)"/><circle cx="346" cy="58" r="8" transform="rotate(0,346,58)"/><circle cx="346" cy="106" r="8" transform="rotate(0,346,106)"/><circle cx="346" cy="122" r="8" transform="rotate(0,346,122)"/><circle cx="346" cy="154" r="8" transform="rotate(0,346,154)"/><circle cx="346" cy="282" r="8" transform="rotate(0,346,282)"/><circle cx="346" cy="298" r="8" transform="rotate(0,346,298)"/><circle cx="346" cy="330" r="8" transform="rotate(0,346,330)"/><circle cx="346" cy="346" r="8" transform="rotate(0,346,346)"/><circle cx="346" cy="362" r="8" transform="rotate(0,346,362)"/><circle cx="346" cy="378" r="8" transform="rotate(0,346,378)"/><circle cx="346" cy="394" r="8" transform="rotate(0,346,394)"/><circle cx="346" cy="410" r="8" transform="rotate(0,346,410)"/><circle cx="346" cy="442" r="8" transform="rotate(0,346,442)"/><circle cx="346" cy="458" r="8" transform="rotate(0,346,458)"/><circle cx="362" cy="154" r="8" transform="rotate(0,362,154)"/><circle cx="362" cy="170" r="8" transform="rotate(0,362,170)"/><circle cx="362" cy="186" r="8" transform="rotate(0,362,186)"/><circle cx="362" cy="266" r="8" transform="rotate(0,362,266)"/><circle cx="362" cy="298" r="8" transform="rotate(0,362,298)"/><circle cx="362" cy="314" r="8" transform="rotate(0,362,314)"/><circle cx="362" cy="330" r="8" transform="rotate(0,362,330)"/><circle cx="362" cy="346" r="8" transform="rotate(0,362,346)"/><circle cx="362" cy="410" r="8" transform="rotate(0,362,410)"/><circle cx="362" cy="426" r="8" transform="rotate(0,362,426)"/><circle cx="362" cy="442" r="8" transform="rotate(0,362,442)"/><circle cx="362" cy="458" r="8" transform="rotate(0,362,458)"/><circle cx="378" cy="170" r="8" transform="rotate(0,378,170)"/><circle cx="378" cy="202" r="8" transform="rotate(0,378,202)"/><circle cx="378" cy="234" r="8" transform="rotate(0,378,234)"/><circle cx="378" cy="250" r="8" transform="rotate(0,378,250)"/><circle cx="378" cy="266" r="8" transform="rotate(0,378,266)"/><circle cx="378" cy="330" r="8" transform="rotate(0,378,330)"/><circle cx="378" cy="346" r="8" transform="rotate(0,378,346)"/><circle cx="378" cy="378" r="8" transform="rotate(0,378,378)"/><circle cx="378" cy="410" r="8" transform="rotate(0,378,410)"/><circle cx="378" cy="442" r="8" transform="rotate(0,378,442)"/><circle cx="394" cy="154" r="8" transform="rotate(0,394,154)"/><circle cx="394" cy="170" r="8" transform="rotate(0,394,170)"/><circle cx="394" cy="202" r="8" transform="rotate(0,394,202)"/><circle cx="394" cy="282" r="8" transform="rotate(0,394,282)"/><circle cx="394" cy="314" r="8" transform="rotate(0,394,314)"/><circle cx="394" cy="330" r="8" transform="rotate(0,394,330)"/><circle cx="394" cy="346" r="8" transform="rotate(0,394,346)"/><circle cx="394" cy="410" r="8" transform="rotate(0,394,410)"/><circle cx="394" cy="426" r="8" transform="rotate(0,394,426)"/><circle cx="394" cy="458" r="8" transform="rotate(0,394,458)"/><circle cx="410" cy="154" r="8" transform="rotate(0,410,154)"/><circle cx="410" cy="170" r="8" transform="rotate(0,410,170)"/><circle cx="410" cy="186" r="8" transform="rotate(0,410,186)"/><circle cx="410" cy="202" r="8" transform="rotate(0,410,202)"/><circle cx="410" cy="234" r="8" transform="rotate(0,410,234)"/><circle cx="410" cy="298" r="8" transform="rotate(0,410,298)"/><circle cx="410" cy="330" r="8" transform="rotate(0,410,330)"/><circle cx="410" cy="346" r="8" transform="rotate(0,410,346)"/><circle cx="410" cy="362" r="8" transform="rotate(0,410,362)"/><circle cx="410" cy="378" r="8" transform="rotate(0,410,378)"/><circle cx="410" cy="394" r="8" transform="rotate(0,410,394)"/><circle cx="410" cy="410" r="8" transform="rotate(0,410,410)"/><circle cx="426" cy="154" r="8" transform="rotate(0,426,154)"/><circle cx="426" cy="186" r="8" transform="rotate(0,426,186)"/><circle cx="426" cy="218" r="8" transform="rotate(0,426,218)"/><circle cx="426" cy="234" r="8" transform="rotate(0,426,234)"/><circle cx="426" cy="314" r="8" transform="rotate(0,426,314)"/><circle cx="426" cy="394" r="8" transform="rotate(0,426,394)"/><circle cx="426" cy="426" r="8" transform="rotate(0,426,426)"/><circle cx="426" cy="442" r="8" transform="rotate(0,426,442)"/><circle cx="426" cy="458" r="8" transform="rotate(0,426,458)"/><circle cx="442" cy="186" r="8" transform="rotate(0,442,186)"/><circle cx="442" cy="266" r="8" transform="rotate(0,442,266)"/><circle cx="442" cy="298" r="8" transform="rotate(0,442,298)"/><circle cx="442" cy="346" r="8" transform="rotate(0,442,346)"/><circle cx="442" cy="362" r="8" transform="rotate(0,442,362)"/><circle cx="442" cy="394" r="8" transform="rotate(0,442,394)"/><circle cx="442" cy="410" r="8" transform="rotate(0,442,410)"/><circle cx="442" cy="426" r="8" transform="rotate(0,442,426)"/><circle cx="442" cy="442" r="8" transform="rotate(0,442,442)"/><circle cx="442" cy="458" r="8" transform="rotate(0,442,458)"/><circle cx="442" cy="474" r="8" transform="rotate(0,442,474)"/><circle cx="458" cy="154" r="8" transform="rotate(0,458,154)"/><circle cx="458" cy="218" r="8" transform="rotate(0,458,218)"/><circle cx="458" cy="234" r="8" transform="rotate(0,458,234)"/><circle cx="458" cy="282" r="8" transform="rotate(0,458,282)"/><circle cx="458" cy="362" r="8" transform="rotate(0,458,362)"/><circle cx="458" cy="410" r="8" transform="rotate(0,458,410)"/><circle cx="458" cy="426" r="8" transform="rotate(0,458,426)"/><circle cx="458" cy="442" r="8" transform="rotate(0,458,442)"/><circle cx="458" cy="474" r="8" transform="rotate(0,458,474)"/><circle cx="474" cy="186" r="8" transform="rotate(0,474,186)"/><circle cx="474" cy="266" r="8" transform="rotate(0,474,266)"/><circle cx="474" cy="330" r="8" transform="rotate(0,474,330)"/><circle cx="474" cy="346" r="8" transform="rotate(0,474,346)"/><circle cx="474" cy="378" r="8" transform="rotate(0,474,378)"/><circle cx="474" cy="394" r="8" transform="rotate(0,474,394)"/><circle cx="474" cy="410" r="8" transform="rotate(0,474,410)"/></clipPath><clipPath id="clip-path-corners-square-color-0-0"><path clip-rule="evenodd" d="M 74 18a 56 56 0 1 0 0.1 0zm 0 16a 40 40 0 1 1 -0.1 0Z" transform="rotate(0,74,74)"/></clipPath><clipPath id="clip-path-corners-dot-color-0-0"><circle cx="74" cy="74" r="24" transform="rotate(0,74,74)"/></clipPath><clipPath id="clip-path-corners-square-color-1-0"><path clip-rule="evenodd" d="M 426 18a 56 56 0 1 0 0.1 0zm 0 16a 40 40 0 1 1 -0.1 0Z" transform="rotate(90,426,74)"/></clipPath><clipPath id="clip-path-corners-dot-color-1-0"><circle cx="426" cy="74" r="24" transform="rotate(90,426,74)"/></clipPath><clipPath id="clip-path-corners-square-color-0-1"><path clip-rule="evenodd" d="M 74 370a 56 56 0 1 0 0.1 0zm 0 16a 40 40 0 1 1 -0.1 0Z" transform="rotate(-90,74,426)"/></clipPath><clipPath id="clip-path-corners-dot-color-0-1"><circle cx="74" cy="426" r="24" transform="rotate(-90,74,426)"/></clipPath></defs><rect x="0" y="0" height="500" width="500" clip-path="url('#clip-path-background-color')" fill="#000"/><rect x="0" y="0" height="500" width="500" clip-path="url('#clip-path-dot-color')" fill="#4ba2ef"/><rect x="18" y="18" height="112" width="112" clip-path="url('#clip-path-corners-square-color-0-0')" fill="#4ba2ef"/><rect x="50" y="50" height="48" width="48" clip-path="url('#clip-path-corners-dot-color-0-0')" fill="#4ba2ef"/><rect x="370" y="18" height="112" width="112" clip-path="url('#clip-path-corners-square-color-1-0')" fill="#4ba2ef"/><rect x="402" y="50" height="48" width="48" clip-path="url('#clip-path-corners-dot-color-1-0')" fill="#4ba2ef"/><rect x="18" y="370" height="112" width="112" clip-path="url('#clip-path-corners-square-color-0-1')" fill="#4ba2ef"/><rect x="50" y="402" height="48" width="48" clip-path="url('#clip-path-corners-dot-color-0-1')" fill="#4ba2ef"/></svg>