<svg width="38" height="38" viewBox="0 0 38 38" fill="none" xmlns="http://www.w3.org/2000/svg">
<rect width="38" height="38" rx="19" fill="#806BFF" fill-opacity="0.2"/>
<mask id="mask0_5656_17599" style="mask-type:alpha" maskUnits="userSpaceOnUse" x="9" y="9" width="20" height="20">
<rect x="9" y="9" width="20" height="20" fill="#D9D9D9"/>
</mask>
<g mask="url(#mask0_5656_17599)">
<path d="M14.5126 26.5C14.1291 26.5 13.8089 26.3715 13.5519 26.1146C13.295 25.8576 13.1665 25.5374 13.1665 25.1539V12.8461C13.1665 12.4626 13.295 12.1424 13.5519 11.8854C13.8089 11.6285 14.1291 11.5 14.5126 11.5H21.0832L24.8332 15.25V25.1539C24.8332 25.5374 24.7047 25.8576 24.4478 26.1146C24.1908 26.3715 23.8706 26.5 23.487 26.5H14.5126ZM20.6665 15.6667V12.3333H14.5126C14.3845 12.3333 14.2669 12.3868 14.1601 12.4936C14.0533 12.6004 13.9998 12.718 13.9998 12.8461V25.1539C13.9998 25.282 14.0533 25.3996 14.1601 25.5064C14.2669 25.6132 14.3845 25.6667 14.5126 25.6667H23.487C23.6152 25.6667 23.7327 25.6132 23.8396 25.5064C23.9464 25.3996 23.9998 25.282 23.9998 25.1539V15.6667H20.6665Z" fill="#806BFF"/>
</g>
</svg>
