<svg width="38" height="38" viewBox="0 0 38 38" fill="none" xmlns="http://www.w3.org/2000/svg">
<rect width="38" height="38" rx="19" fill="#CD051B" fill-opacity="0.2"/>
<mask id="mask0_5656_17705" style="mask-type:alpha" maskUnits="userSpaceOnUse" x="7" y="7" width="24" height="24">
<rect x="7" y="7" width="24" height="24" fill="#D9D9D9"/>
</mask>
<g mask="url(#mask0_5656_17705)">
<path d="M14.6154 26.9997C14.1679 26.9997 13.7869 26.8424 13.4721 26.5276C13.1574 26.2129 13 25.8318 13 25.3843V12.9997H12V11.9997H16V11.2305H22V11.9997H26V12.9997H25V25.3843C25 25.8446 24.8458 26.2289 24.5375 26.5372C24.2292 26.8456 23.8449 26.9997 23.3846 26.9997H14.6154ZM24 12.9997H14V25.3843C14 25.5638 14.0577 25.7113 14.1731 25.8266C14.2885 25.942 14.4359 25.9997 14.6154 25.9997H23.3846C23.5385 25.9997 23.6795 25.9356 23.8077 25.8074C23.9359 25.6792 24 25.5382 24 25.3843V12.9997ZM16.8077 23.9997H17.8077V14.9997H16.8077V23.9997ZM20.1923 23.9997H21.1923V14.9997H20.1923V23.9997Z" fill="#CD051B"/>
</g>
</svg>
