<svg width="38" height="38" viewBox="0 0 38 38" fill="none" xmlns="http://www.w3.org/2000/svg">
<rect width="38" height="38" rx="19" fill="#1B88FF" fill-opacity="0.2"/>
<mask id="mask0_5656_17631" style="mask-type:alpha" maskUnits="userSpaceOnUse" x="9" y="9" width="20" height="20">
<rect x="9" y="9" width="20" height="20" fill="#D9D9D9"/>
</mask>
<g mask="url(#mask0_5656_17631)">
<path d="M16.1111 23.8889H22.3333V23H16.1111V23.8889ZM16.1111 20.3333H22.3333V19.4444H16.1111V20.3333ZM14.4359 27C14.0268 27 13.6852 26.863 13.4111 26.5889C13.137 26.3148 13 25.9732 13 25.5641V12.4359C13 12.0268 13.137 11.6852 13.4111 11.4111C13.6852 11.137 14.0268 11 14.4359 11H21.4444L25.4444 15V25.5641C25.4444 25.9732 25.3074 26.3148 25.0333 26.5889C24.7593 26.863 24.4177 27 24.0086 27H14.4359ZM21 15.4444V11.8889H14.4359C14.2991 11.8889 14.1738 11.9459 14.0598 12.0598C13.9459 12.1738 13.8889 12.2991 13.8889 12.4359V25.5641C13.8889 25.7009 13.9459 25.8262 14.0598 25.9402C14.1738 26.0541 14.2991 26.1111 14.4359 26.1111H24.0086C24.1453 26.1111 24.2707 26.0541 24.3846 25.9402C24.4986 25.8262 24.5556 25.7009 24.5556 25.5641V15.4444H21Z" fill="#1B88FF"/>
</g>
</svg>
