<svg width="38" height="38" viewBox="0 0 38 38" fill="none" xmlns="http://www.w3.org/2000/svg">
<rect width="38" height="38" rx="19" fill="#DA1E9F" fill-opacity="0.2"/>
<mask id="mask0_5656_17647" style="mask-type:alpha" maskUnits="userSpaceOnUse" x="5" y="5" width="28" height="28">
<rect x="5" y="5" width="28" height="28" fill="#D9D9D9"/>
</mask>
<g mask="url(#mask0_5656_17647)">
<path d="M18.9998 27.5L18.2423 26.8155C16.6106 25.3249 15.2609 24.0489 14.1932 22.9876C13.1256 21.9263 12.2828 20.9903 11.665 20.1796C11.0472 19.3689 10.6156 18.6355 10.3701 17.9792C10.1247 17.323 10.002 16.6629 10.002 15.9989C10.002 14.7274 10.4339 13.6597 11.2978 12.7958C12.1617 11.9319 13.2294 11.5 14.5009 11.5C15.3801 11.5 16.2049 11.7249 16.9753 12.1748C17.7456 12.6247 18.4205 13.2791 18.9998 14.1378C19.5791 13.2791 20.254 12.6247 21.0243 12.1748C21.7946 11.7249 22.6194 11.5 23.4987 11.5C24.7702 11.5 25.8379 11.9319 26.7018 12.7958C27.5657 13.6597 27.9976 14.7274 27.9976 15.9989C27.9976 16.6629 27.8749 17.323 27.6295 17.9792C27.384 18.6355 26.9524 19.3689 26.3346 20.1796C25.7168 20.9903 24.8772 21.9263 23.816 22.9876C22.7547 24.0489 21.4018 25.3249 19.7573 26.8155L18.9998 27.5ZM18.9998 26.1465C20.5994 24.7007 21.9158 23.4622 22.9488 22.431C23.9819 21.3999 24.7984 20.5052 25.3983 19.7471C25.9981 18.9889 26.4147 18.3173 26.648 17.7322C26.8812 17.147 26.9979 16.5693 26.9979 15.9989C26.9979 14.9992 26.6646 14.166 25.9981 13.4995C25.3316 12.833 24.4985 12.4998 23.4987 12.4998C22.7028 12.4998 21.9683 12.7269 21.2954 13.1813C20.6225 13.6357 20.0201 14.3198 19.4882 15.2337H18.5114C17.9667 14.307 17.3611 13.6197 16.6946 13.1717C16.0281 12.7237 15.2968 12.4998 14.5009 12.4998C13.5139 12.4998 12.684 12.833 12.0111 13.4995C11.3382 14.166 11.0017 14.9992 11.0017 15.9989C11.0017 16.5693 11.1184 17.147 11.3516 17.7322C11.5849 18.3173 12.0015 18.9889 12.6013 19.7471C13.2012 20.5052 14.0177 21.3967 15.0507 22.4214C16.0838 23.4462 17.4002 24.6879 18.9998 26.1465Z" fill="#DA1E9F" fill-opacity="0.7"/>
</g>
</svg>
