<svg width="37" height="38" viewBox="0 0 37 38" fill="none" xmlns="http://www.w3.org/2000/svg">
<mask id="mask0_8031_81884" style="mask-type:alpha" maskUnits="userSpaceOnUse" x="0" y="0" width="37" height="38">
<rect x="0.910645" y="0.955078" width="36.0894" height="36.0894" fill="#D9D9D9"/>
</mask>
<g mask="url(#mask0_8031_81884)">
<path d="M8.01605 30.0525C6.73788 30.0525 5.66021 29.6139 4.78304 28.7367C3.90587 27.8596 3.46729 26.7767 3.46729 25.4883C3.46729 25.2981 3.47355 25.1153 3.48608 24.9398C3.49861 24.7644 3.52994 24.5764 3.58006 24.3759L6.73788 11.7447C7.03211 10.6151 7.63122 9.69984 8.53521 8.99886C9.43895 8.29812 10.4689 7.94775 11.625 7.94775H26.2863C27.4424 7.94775 28.4723 8.29812 29.3761 8.99886C30.28 9.69984 30.8792 10.6151 31.1734 11.7447L34.3312 24.3759C34.3813 24.5764 34.4189 24.7707 34.444 24.9586C34.469 25.1466 34.4816 25.3357 34.4816 25.5259C34.4816 26.8143 34.0367 27.8909 33.147 28.7555C32.2573 29.6202 31.1743 30.0525 29.8979 30.0525C29.0189 30.0525 28.2161 29.8207 27.4893 29.357C26.7625 28.8934 26.1986 28.2731 25.7976 27.4962L24.7074 25.2782C24.5069 24.8646 24.2061 24.5545 23.8051 24.3477C23.4041 24.141 22.9781 24.0376 22.527 24.0376H15.3843C14.9397 24.0376 14.5153 24.1378 14.111 24.3383C13.7068 24.5388 13.4044 24.8521 13.2039 25.2782L12.1137 27.4962C11.7378 28.2981 11.1779 28.9247 10.434 29.3758C9.68994 29.8269 8.88395 30.0525 8.01605 30.0525ZM8.13898 28.9999C8.78382 28.9999 9.38193 28.8244 9.93329 28.4736C10.4847 28.1227 10.8982 27.6591 11.1739 27.0826L12.2265 24.9022C12.5252 24.302 12.9633 23.8323 13.5407 23.4932C14.1182 23.1544 14.7327 22.985 15.3843 22.985H22.527C23.1939 22.985 23.8117 23.1667 24.3803 23.5301C24.9492 23.8935 25.3966 24.3634 25.7224 24.9398L26.775 27.0826C27.0507 27.6591 27.4642 28.1227 28.0156 28.4736C28.5669 28.8244 29.1738 28.9999 29.8362 28.9999C30.8121 28.9999 31.6486 28.6678 32.3455 28.0037C33.0428 27.3395 33.3914 26.5313 33.3914 25.5789C33.3914 25.5037 33.3538 25.1904 33.2786 24.6391L30.1208 12.0454C29.8952 11.1682 29.4253 10.4414 28.711 9.865C27.9968 9.28857 27.1885 9.00036 26.2863 9.00036H11.625C10.6959 9.00036 9.87465 9.28857 9.16113 9.865C8.44787 10.4414 7.99099 11.1682 7.79049 12.0454L4.63267 24.6391C4.60761 24.7393 4.57002 25.0401 4.51989 25.5413C4.51989 26.5195 4.87703 27.3405 5.59129 28.0044C6.30556 28.6681 7.15479 28.9999 8.13898 28.9999ZM21.2112 17.0453C21.4869 17.0453 21.7313 16.9388 21.9443 16.7257C22.1573 16.5127 22.2638 16.2684 22.2638 15.9927C22.2638 15.717 22.1573 15.4726 21.9443 15.2596C21.7313 15.0466 21.4869 14.9401 21.2112 14.9401C20.9355 14.9401 20.6912 15.0466 20.4782 15.2596C20.2651 15.4726 20.1586 15.717 20.1586 15.9927C20.1586 16.2684 20.2651 16.5127 20.4782 16.7257C20.6912 16.9388 20.9355 17.0453 21.2112 17.0453ZM24.2187 14.0378C24.4943 14.0378 24.7387 13.9313 24.9517 13.7183C25.1648 13.5053 25.2713 13.2609 25.2713 12.9852C25.2713 12.7095 25.1648 12.4652 24.9517 12.2522C24.7387 12.0391 24.4943 11.9326 24.2187 11.9326C23.943 11.9326 23.6986 12.0391 23.4856 12.2522C23.2726 12.4652 23.1661 12.7095 23.1661 12.9852C23.1661 13.2609 23.2726 13.5053 23.4856 13.7183C23.6986 13.9313 23.943 14.0378 24.2187 14.0378ZM24.2187 20.0527C24.4943 20.0527 24.7387 19.9462 24.9517 19.7332C25.1648 19.5202 25.2713 19.2758 25.2713 19.0001C25.2713 18.7244 25.1648 18.4801 24.9517 18.2671C24.7387 18.054 24.4943 17.9475 24.2187 17.9475C23.943 17.9475 23.6986 18.054 23.4856 18.2671C23.2726 18.4801 23.1661 18.7244 23.1661 19.0001C23.1661 19.2758 23.2726 19.5202 23.4856 19.7332C23.6986 19.9462 23.943 20.0527 24.2187 20.0527ZM27.2261 17.0453C27.5018 17.0453 27.7461 16.9388 27.9592 16.7257C28.1722 16.5127 28.2787 16.2684 28.2787 15.9927C28.2787 15.717 28.1722 15.4726 27.9592 15.2596C27.7461 15.0466 27.5018 14.9401 27.2261 14.9401C26.9504 14.9401 26.7061 15.0466 26.493 15.2596C26.28 15.4726 26.1735 15.717 26.1735 15.9927C26.1735 16.2684 26.28 16.5127 26.493 16.7257C26.7061 16.9388 26.9504 17.0453 27.2261 17.0453ZM13.6907 19.1505C13.8423 19.1505 13.9683 19.1007 14.0685 19.0012C14.1688 18.902 14.2189 18.7763 14.2189 18.6242V16.519H16.3241C16.4762 16.519 16.6019 16.4695 16.7012 16.3705C16.8007 16.2712 16.8504 16.1459 16.8504 15.9946C16.8504 15.8429 16.8007 15.717 16.7012 15.6167C16.6019 15.5165 16.4762 15.4664 16.3241 15.4664H14.2189V13.3612C14.2189 13.209 14.1694 13.0833 14.0704 12.9841C13.9712 12.8846 13.8459 12.8349 13.6945 12.8349C13.5429 12.8349 13.4169 12.8846 13.3167 12.9841C13.2164 13.0833 13.1663 13.209 13.1663 13.3612V15.4664H11.0611C10.909 15.4664 10.7833 15.5159 10.684 15.6149C10.5845 15.7141 10.5348 15.8394 10.5348 15.9908C10.5348 16.1424 10.5845 16.2684 10.684 16.3686C10.7833 16.4689 10.909 16.519 11.0611 16.519H13.1663V18.6242C13.1663 18.7763 13.2158 18.902 13.3148 19.0012C13.414 19.1007 13.5393 19.1505 13.6907 19.1505Z" fill="url(#paint0_linear_8031_81884)"/>
</g>
<defs>
<linearGradient id="paint0_linear_8031_81884" x1="18.9744" y1="7.94775" x2="18.9744" y2="30.0525" gradientUnits="userSpaceOnUse">
<stop stop-color="white"/>
<stop offset="1" stop-color="#CBFA0B"/>
</linearGradient>
</defs>
</svg>
