<svg width="38" height="38" viewBox="0 0 38 38" fill="none" xmlns="http://www.w3.org/2000/svg">
<rect width="38" height="38" rx="19" fill="#2ABB10" fill-opacity="0.2"/>
<mask id="mask0_5656_17663" style="mask-type:alpha" maskUnits="userSpaceOnUse" x="5" y="5" width="28" height="28">
<rect x="5" y="5" width="28" height="28" fill="#D9D9D9"/>
</mask>
<g mask="url(#mask0_5656_17663)">
<path d="M19.004 18.6859C19.5234 18.6859 19.9666 18.501 20.3339 18.1311C20.701 17.7613 20.8846 17.3167 20.8846 16.7973C20.8846 16.2779 20.6997 15.8347 20.3299 15.4675C19.96 15.1003 19.5154 14.9167 18.9961 14.9167C18.4767 14.9167 18.0334 15.1016 17.6662 15.4714C17.299 15.8413 17.1154 16.2859 17.1154 16.8053C17.1154 17.3246 17.3003 17.7679 17.6702 18.1351C18.04 18.5023 18.4846 18.6859 19.004 18.6859ZM19 27.9564C21.1928 26.0479 22.9263 24.1068 24.2007 22.1332C25.475 20.1596 26.1122 18.4526 26.1122 17.0122C26.1122 14.8778 25.4365 13.1162 24.0851 11.7274C22.7337 10.3386 21.0387 9.64424 19 9.64424C16.9614 9.64424 15.2663 10.3386 13.9149 11.7274C12.5636 13.1162 11.8879 14.8778 11.8879 17.0122C11.8879 18.4526 12.525 20.1596 13.7994 22.1332C15.0738 24.1068 16.8073 26.0479 19 27.9564ZM19 29.5224C16.2584 27.0979 14.1931 24.8367 12.8044 22.7389C11.4156 20.6412 10.7212 18.7323 10.7212 17.0122C10.7212 14.5442 11.5248 12.5085 13.1319 10.9051C14.7391 9.3017 16.6951 8.5 19 8.5C21.305 8.5 23.261 9.3017 24.8681 10.9051C26.4753 12.5085 27.2789 14.5442 27.2789 17.0122C27.2789 18.7323 26.5845 20.6412 25.1957 22.7389C23.8069 24.8367 21.7417 27.0979 19 29.5224Z" fill="#2ABB10"/>
</g>
</svg>
