<svg width="38" height="38" viewBox="0 0 38 38" fill="none" xmlns="http://www.w3.org/2000/svg">
<rect width="38" height="38" rx="19" fill="#E45835" fill-opacity="0.2"/>
<mask id="mask0_5656_17615" style="mask-type:alpha" maskUnits="userSpaceOnUse" x="9" y="9" width="20" height="20">
<rect x="9" y="9" width="20" height="20" fill="#D9D9D9"/>
</mask>
<g mask="url(#mask0_5656_17615)">
<path d="M19.3786 27C18.5806 27 17.8782 26.7089 17.2716 26.1267C16.6651 25.5446 16.3727 24.8949 16.3945 24.1778C15.7275 24.5518 15.0008 24.6347 14.2143 24.4265C13.4278 24.2183 12.8244 23.7602 12.4042 23.052C11.9929 22.3658 11.8959 21.6175 12.1131 20.8072C12.3303 19.9969 12.7936 19.3995 13.503 19.0148C12.8013 18.6399 12.3409 18.0522 12.1217 17.2515C11.9026 16.4509 11.9929 15.7075 12.3926 15.0212C12.7923 14.3349 13.3928 13.87 14.1941 13.6265C14.9953 13.383 15.725 13.4482 16.383 13.8222C16.3611 13.0793 16.6535 12.4233 17.2601 11.854C17.8667 11.2847 18.569 11 19.3671 11C20.1651 11 20.8675 11.2847 21.474 11.854C22.0806 12.4233 22.373 13.0793 22.3512 13.8222C23.0169 13.4482 23.7401 13.3801 24.5208 13.6178C25.3015 13.8556 25.8956 14.3234 26.303 15.0212C26.7027 15.7152 26.7949 16.4596 26.5796 17.2545C26.3643 18.0493 25.902 18.6376 25.1926 19.0193C25.902 19.401 26.3663 19.995 26.5854 20.8015C26.8045 21.6079 26.7142 22.3581 26.3145 23.052C25.8943 23.7756 25.3003 24.2376 24.5324 24.4381C23.7645 24.6385 23.0413 24.5518 22.3627 24.1778C22.3846 24.8949 22.0922 25.5446 21.4856 26.1267C20.879 26.7089 20.1767 27 19.3786 27ZM19.3786 25.9976C20.1639 25.9976 20.7528 25.6593 21.1454 24.9827C21.538 24.306 21.5338 23.6419 21.1329 22.9904L20.4312 21.8376C20.2474 21.907 20.072 21.959 19.9049 21.9937C19.7378 22.0284 19.5624 22.0458 19.3786 22.0458C19.2116 22.0458 19.0435 22.03 18.8745 21.9986C18.7055 21.9671 18.5227 21.9198 18.3261 21.8569L17.6244 22.9904C17.2235 23.6419 17.2193 24.306 17.6119 24.9827C18.0045 25.6593 18.5934 25.9976 19.3786 25.9976ZM13.2391 22.5277C13.6335 23.187 14.2217 23.5166 15.0037 23.5166C15.7857 23.5166 16.3701 23.187 16.7569 22.5277L17.4278 21.3557C17.2813 21.222 17.1495 21.0862 17.0326 20.9482C16.9157 20.8102 16.8154 20.6646 16.7319 20.5113C16.6483 20.361 16.5764 20.2032 16.516 20.0381C16.4556 19.8729 16.4067 19.7004 16.3695 19.5205H15.0027C14.2432 19.5205 13.6649 19.8569 13.2678 20.5296C12.8707 21.2024 12.8611 21.8684 13.2391 22.5277ZM21.9386 22.5277C22.31 23.1741 22.8906 23.5005 23.6803 23.507C24.47 23.5134 25.0621 23.187 25.4565 22.5277C25.8345 21.8684 25.8249 21.2024 25.4278 20.5296C25.0307 19.8569 24.4524 19.5205 23.6929 19.5205H22.3275C22.2931 19.7004 22.248 19.8729 22.1921 20.0381C22.1362 20.2032 22.0665 20.3579 21.983 20.5022C21.8994 20.6625 21.796 20.8114 21.6726 20.9489C21.5492 21.0864 21.4143 21.222 21.2678 21.3557L21.9386 22.5277ZM16.3695 18.5181C16.41 18.3387 16.4606 18.1634 16.5213 17.9922C16.582 17.821 16.6555 17.6602 16.7419 17.5099C16.8282 17.3595 16.9275 17.2175 17.0397 17.0838C17.1519 16.9502 17.2813 16.8165 17.4278 16.6829L16.7569 15.5108C16.3727 14.8387 15.7889 14.4994 15.0056 14.493C14.2223 14.4866 13.6366 14.8259 13.2485 15.5108C12.8771 16.1701 12.8867 16.8361 13.2774 17.5089C13.6681 18.1817 14.2432 18.5181 15.0027 18.5181H16.3695ZM23.6929 18.5181C24.4524 18.5181 25.0275 18.1817 25.4182 17.5089C25.8088 16.8361 25.8185 16.1701 25.4471 15.5108C25.059 14.8259 24.4732 14.4866 23.6899 14.493C22.9067 14.4994 22.3229 14.8387 21.9386 15.5108L21.2678 16.6829C21.4161 16.8165 21.5506 16.9502 21.6711 17.0838C21.7916 17.2175 21.8936 17.3595 21.9772 17.5099C22.0607 17.6602 22.1304 17.821 22.1863 17.9922C22.2423 18.1634 22.2888 18.3387 22.3261 18.5181H23.6929ZM18.3087 16.1817C18.5054 16.1059 18.6867 16.0554 18.8527 16.0304C19.0187 16.0053 19.1887 15.9928 19.3626 15.9928C19.5365 15.9928 19.7091 16.0085 19.8803 16.04C20.0515 16.0715 20.2267 16.1187 20.4061 16.1817L21.1213 15.0096C21.5184 14.3581 21.5216 13.694 21.1309 13.0173C20.7402 12.3407 20.1523 12.0024 19.3671 12.0024C18.5818 12.0024 17.9971 12.3398 17.6128 13.0144C17.2286 13.6891 17.2286 14.3542 17.6128 15.0096L18.3087 16.1817ZM16.7319 20.5113C16.6483 20.361 16.5764 20.2032 16.516 20.0381C16.5764 20.2032 16.6483 20.3579 16.7319 20.5022C16.8154 20.6625 16.9157 20.8107 17.0326 20.9482C16.9157 20.8102 16.8154 20.6646 16.7319 20.5113ZM16.5213 17.9922C16.582 17.821 16.6555 17.6602 16.7419 17.5099C16.8282 17.3595 16.9275 17.2175 17.0397 17.0838C17.1519 16.9502 17.2813 16.8165 17.4278 16.6829C17.2862 16.8165 17.1579 16.9502 17.0429 17.0838C16.9279 17.2175 16.8261 17.3595 16.7377 17.5099C16.6541 17.6602 16.582 17.821 16.5213 17.9922ZM19.3786 22.0458C19.2116 22.0458 19.0435 22.03 18.8745 21.9986C18.7055 21.9671 18.5227 21.9198 18.3261 21.8569C18.5227 21.9198 18.7071 21.9671 18.8794 21.9986C19.0516 22.03 19.2197 22.0458 19.3837 22.0458C19.5641 22.0458 19.7378 22.0284 19.9049 21.9937C19.7378 22.0284 19.5624 22.0458 19.3786 22.0458ZM21.2678 21.3557C21.4143 21.222 21.5484 21.0862 21.6701 20.9482C21.7918 20.8102 21.8961 20.6646 21.983 20.5113C22.0665 20.361 22.1362 20.2032 22.1921 20.0381C22.1362 20.2032 22.0665 20.3579 21.983 20.5022C21.8994 20.6625 21.796 20.8114 21.6726 20.9489C21.5492 21.0864 21.4143 21.222 21.2678 21.3557ZM19.3478 21.0241C19.8991 21.0241 20.3711 20.8278 20.7637 20.4352C21.1563 20.0426 21.3526 19.5706 21.3526 19.0193C21.3526 18.4679 21.1563 17.996 20.7637 17.6034C20.3711 17.2108 19.8991 17.0145 19.3478 17.0145C18.7965 17.0145 18.3245 17.2108 17.9319 17.6034C17.5393 17.996 17.343 18.4679 17.343 19.0193C17.343 19.5706 17.5393 20.0426 17.9319 20.4352C18.3245 20.8278 18.7965 21.0241 19.3478 21.0241Z" fill="#E45835"/>
</g>
</svg>
