<svg width="38" height="38" viewBox="0 0 38 38" fill="none" xmlns="http://www.w3.org/2000/svg">
<rect width="38" height="38" rx="19" fill="#FFCDE7" fill-opacity="0.2"/>
<mask id="mask0_5656_17678" style="mask-type:alpha" maskUnits="userSpaceOnUse" x="7" y="7" width="24" height="24">
<rect x="7" y="7" width="24" height="24" fill="#D9D9D9"/>
</mask>
<g mask="url(#mask0_5656_17678)">
<path d="M13.6154 27.9991C13.1551 27.9991 12.7708 27.8449 12.4625 27.5366C12.1542 27.2283 12 26.844 12 26.3837V16.6145C12 16.1542 12.1542 15.7699 12.4625 15.4616C12.7708 15.1533 13.1551 14.9991 13.6154 14.9991H15.7308V15.9991H13.6154C13.4615 15.9991 13.3205 16.0632 13.1923 16.1914C13.0641 16.3196 13 16.4606 13 16.6145V26.3837C13 26.5376 13.0641 26.6786 13.1923 26.8068C13.3205 26.935 13.4615 26.9991 13.6154 26.9991H24.3846C24.5385 26.9991 24.6795 26.935 24.8077 26.8068C24.9359 26.6786 25 26.5376 25 26.3837V16.6145C25 16.4606 24.9359 16.3196 24.8077 16.1914C24.6795 16.0632 24.5385 15.9991 24.3846 15.9991H22.2692V14.9991H24.3846C24.8449 14.9991 25.2292 15.1533 25.5375 15.4616C25.8458 15.7699 26 16.1542 26 16.6145V26.3837C26 26.844 25.8458 27.2283 25.5375 27.5366C25.2292 27.8449 24.8449 27.9991 24.3846 27.9991H13.6154ZM18.5 21.4991V10.6126L16.4 12.7126L15.6923 11.9991L19 8.69141L22.3077 11.9991L21.6 12.7126L19.5 10.6126V21.4991H18.5Z" fill="#FFCDE7"/>
</g>
</svg>
