<svg width="30" height="29" viewBox="0 0 20 19" fill="none" xmlns="http://www.w3.org/2000/svg">
<path d="M11.0727 1.23653C10.669 0.29265 9.33099 0.292645 8.92731 1.23653L7.00477 5.73192C6.98067 5.78828 6.92756 5.82687 6.8665 5.83237L1.99704 6.27167C0.974611 6.36391 0.561143 7.63645 1.33408 8.31204L5.01535 11.5296C5.06151 11.57 5.08179 11.6324 5.06817 11.6922L3.98121 16.4591C3.75299 17.46 4.83547 18.2464 5.71685 17.7201L9.91455 15.2133C9.96718 15.1818 10.0328 15.1818 10.0855 15.2133L14.2831 17.7201C15.1645 18.2464 16.247 17.46 16.0188 16.4591L14.9318 11.6922C14.9182 11.6324 14.9385 11.57 14.9846 11.5296L18.6659 8.31204C19.4389 7.63645 19.0254 6.36391 18.003 6.27167L13.1335 5.83237C13.0724 5.82687 13.0193 5.78828 12.9952 5.73192L11.0727 1.23653Z" stroke="white"/>
</svg>
