<svg width="38" height="38" viewBox="0 0 38 38" fill="none" xmlns="http://www.w3.org/2000/svg">
<rect width="38" height="38" rx="19" fill="#C68484" fill-opacity="0.2"/>
<mask id="mask0_5656_17655" style="mask-type:alpha" maskUnits="userSpaceOnUse" x="9" y="9" width="20" height="20">
<rect x="9" y="9" width="20" height="20" fill="#D9D9D9"/>
</mask>
<g mask="url(#mask0_5656_17655)">
<path d="M11.8462 27C11.3202 27 10.881 26.8238 10.5286 26.4714C10.1762 26.119 10 25.6799 10 25.1539V12.8461C10 12.3201 10.1762 11.881 10.5286 11.5286C10.881 11.1762 11.3202 11 11.8462 11H24.1539C24.6799 11 25.1191 11.1762 25.4715 11.5286C25.8238 11.881 26 12.3201 26 12.8461V18.1648L29.4726 14.6923V23.3077L26 19.8352V25.1539C26 25.6799 25.8238 26.119 25.4715 26.4714C25.1191 26.8238 24.6799 27 24.1539 27H11.8462ZM11.8462 25.8571H24.1539C24.359 25.8571 24.5275 25.7912 24.6594 25.6593C24.7912 25.5275 24.8572 25.359 24.8572 25.1539V12.8461C24.8572 12.641 24.7912 12.4725 24.6594 12.3407C24.5275 12.2088 24.359 12.1429 24.1539 12.1429H11.8462C11.641 12.1429 11.4726 12.2088 11.3407 12.3407C11.2088 12.4725 11.1429 12.641 11.1429 12.8461V25.1539C11.1429 25.359 11.2088 25.5275 11.3407 25.6593C11.4726 25.7912 11.641 25.8571 11.8462 25.8571Z" fill="#C68484"/>
</g>
</svg>
