<svg width="25" height="24" viewBox="0 0 25 24" fill="none" xmlns="http://www.w3.org/2000/svg">
    <mask id="mask0_5812_45519" style="mask-type:alpha" maskUnits="userSpaceOnUse" x="0" y="0"
        width="25" height="24">
        <rect x="0.5" width="24" height="24" fill="currentColor" />
    </mask>
    <g mask="url(#mask0_5812_45519)">
        <path
            d="M7.423 18.6537C6.75 18.6537 6.17792 18.4181 5.70675 17.9469C5.23558 17.4759 5 16.9039 5 16.2307C5 15.5577 5.23558 14.9856 5.70675 14.5144C6.17792 14.0433 6.75 13.8077 7.423 13.8077C8.09617 13.8077 8.66833 14.0433 9.1395 14.5144C9.61067 14.9856 9.84625 15.5577 9.84625 16.2307C9.84625 16.9039 9.61067 17.4759 9.1395 17.9469C8.66833 18.4181 8.09617 18.6537 7.423 18.6537ZM17.577 18.6537C16.9038 18.6537 16.3317 18.4181 15.8605 17.9469C15.3893 17.4759 15.1538 16.9039 15.1538 16.2307C15.1538 15.5577 15.3893 14.9856 15.8605 14.5144C16.3317 14.0433 16.9038 13.8077 17.577 13.8077C18.25 13.8077 18.8221 14.0433 19.2933 14.5144C19.7644 14.9856 20 15.5577 20 16.2307C20 16.9039 19.7644 17.4759 19.2933 17.9469C18.8221 18.4181 18.25 18.6537 17.577 18.6537ZM12.5 10.1922C11.827 10.1922 11.2549 9.95661 10.7838 9.48544C10.3126 9.01428 10.077 8.44219 10.077 7.76919C10.077 7.09603 10.3126 6.52394 10.7838 6.05294C11.2549 5.58178 11.827 5.34619 12.5 5.34619C13.173 5.34619 13.7451 5.58178 14.2163 6.05294C14.6874 6.52394 14.923 7.09603 14.923 7.76919C14.923 8.44219 14.6874 9.01428 14.2163 9.48544C13.7451 9.95661 13.173 10.1922 12.5 10.1922Z"
            fill="currentColor" fillOpacity="1" />
    </g>
</svg>