<svg width="24" height="22" viewBox="0 0 24 22" fill="none" xmlns="http://www.w3.org/2000/svg">
<mask id="mask0_11324_10533" style="mask-type:alpha" maskUnits="userSpaceOnUse" x="0" y="-1" width="24" height="24">
<rect y="-1" width="24" height="24" fill="#D9D9D9"/>
</mask>
<g mask="url(#mask0_11324_10533)">
<path d="M3.82979 21.0266C2.8315 21.0266 1.99106 20.6801 1.2938 19.9828C0.596534 19.2855 0.25 18.4451 0.25 17.4468C0.25 16.4485 0.596534 15.6081 1.2938 14.9108C1.99106 14.2136 2.8315 13.867 3.82979 13.867C4.82807 13.867 5.66851 14.2136 6.36578 14.9108C7.06304 15.6081 7.40957 16.4485 7.40957 17.4468C7.40957 18.4451 7.06304 19.2855 6.36578 19.9828C5.66851 20.6801 4.82807 21.0266 3.82979 21.0266ZM20.1702 21.0266C19.1719 21.0266 18.3315 20.6801 17.6342 19.9828C16.937 19.2855 16.5904 18.4451 16.5904 17.4468C16.5904 16.4485 16.937 15.6081 17.6342 14.9108C18.3315 14.2136 19.1719 13.867 20.1702 13.867C21.1685 13.867 22.0089 14.2136 22.7062 14.9108C23.4035 15.6081 23.75 16.4485 23.75 17.4468C23.75 18.4451 23.4035 19.2855 22.7062 19.9828C22.0089 20.6801 21.1685 21.0266 20.1702 21.0266ZM12 7.40957C11.0017 7.40957 10.1613 7.06304 9.46401 6.36578C8.76675 5.66851 8.42021 4.82807 8.42021 3.82979C8.42021 2.83151 8.76675 1.99106 9.46401 1.2938C10.1613 0.596534 11.0017 0.25 12 0.25C12.9983 0.25 13.8387 0.596534 14.536 1.2938C15.2333 1.99106 15.5798 2.83151 15.5798 3.82979C15.5798 4.82807 15.2333 5.66851 14.536 6.36578C13.8387 7.06304 12.9983 7.40957 12 7.40957Z" stroke="white" stroke-width="0.5"/>
</g>
</svg>
