<svg width="18" height="18" viewBox="0 0 18 18" fill="none" xmlns="http://www.w3.org/2000/svg">
<path d="M5.4 13.3077L9 9.7077L12.6 13.3077L13.3077 12.6L9.7077 9L13.3077 5.4L12.6 4.6923L9 8.2923L5.4 4.6923L4.6923 5.4L8.2923 9L4.6923 12.6L5.4 13.3077ZM9.00335 18C7.7588 18 6.58872 17.7638 5.4931 17.2915C4.39748 16.8192 3.44444 16.1782 2.63397 15.3685C1.82352 14.5588 1.18192 13.6066 0.70915 12.512C0.236383 11.4174 0 10.2479 0 9.00335C0 7.7588 0.236158 6.58872 0.708475 5.4931C1.18081 4.39748 1.82183 3.44444 2.63153 2.63398C3.44123 1.82353 4.39337 1.18192 5.48795 0.709151C6.58255 0.236384 7.75212 0 8.99665 0C10.2412 0 11.4113 0.236158 12.5069 0.708475C13.6025 1.18081 14.5556 1.82182 15.366 2.63152C16.1765 3.44122 16.8181 4.39337 17.2908 5.48795C17.7636 6.58255 18 7.75212 18 8.99665C18 10.2412 17.7638 11.4113 17.2915 12.5069C16.8192 13.6025 16.1782 14.5556 15.3685 15.366C14.5588 16.1765 13.6066 16.8181 12.512 17.2909C11.4174 17.7636 10.2479 18 9.00335 18ZM9 17C11.2333 17 13.125 16.225 14.675 14.675C16.225 13.125 17 11.2333 17 9C17 6.76667 16.225 4.875 14.675 3.325C13.125 1.775 11.2333 1 9 1C6.76667 1 4.875 1.775 3.325 3.325C1.775 4.875 1 6.76667 1 9C1 11.2333 1.775 13.125 3.325 14.675C4.875 16.225 6.76667 17 9 17Z" fill="white"/>
</svg>
