<svg width="18" height="18" viewBox="0 0 18 18" fill="none" xmlns="http://www.w3.org/2000/svg">
<g id="Selected" clip-path="url(#clip0_31830_1437)">
<path id="Selected_2" fill-rule="evenodd" clip-rule="evenodd" d="M9 17.999C4.07143 17.999 0 13.9276 0 8.99902C0 4.07045 4.06452 -0.000976562 8.99309 -0.000976562C13.9217 -0.000976562 18 4.07045 18 8.99902C18 13.9276 13.9286 17.999 9 17.999ZM7.89554 13.5197C8.1513 13.5197 8.3725 13.4022 8.5384 13.1464L13.1836 5.86763C13.2872 5.71556 13.3771 5.52892 13.3771 5.36302C13.3771 4.99667 13.0522 4.76855 12.7135 4.76855C12.5131 4.76855 12.3126 4.88607 12.1605 5.12109L7.86098 11.9575L5.57296 9.08883C5.39324 8.86072 5.2066 8.77777 4.9854 8.77777C4.64669 8.77777 4.36328 9.04736 4.36328 9.41372C4.36328 9.58653 4.43241 9.77316 4.54992 9.91832L7.21812 13.1533C7.43241 13.416 7.63978 13.5197 7.89554 13.5197Z" fill="#24ADFA"/>
</g>
<defs>
<clipPath id="clip0_31830_1437">
<rect width="18" height="18" fill="white"/>
</clipPath>
</defs>
</svg>
