<svg width="27" height="24" viewBox="0 0 27 24" fill="none" xmlns="http://www.w3.org/2000/svg">
<path d="M1.26302 19.6731V8.20698V9.03563V1.32729V19.6731ZM1.26302 6.04865H25.737V2.56063C25.737 2.2523 25.6085 1.96966 25.3516 1.71271C25.0946 1.45577 24.812 1.32729 24.5037 1.32729H2.49636C2.18802 1.32729 1.90539 1.45577 1.64844 1.71271C1.3915 1.96966 1.26302 2.2523 1.26302 2.56063V6.04865ZM12.151 20.6559H2.49597C1.86826 20.6559 1.34204 20.4436 0.917306 20.0188C0.492577 19.5941 0.280212 19.0703 0.280212 18.4475V2.55292C0.280212 1.93009 0.492577 1.40631 0.917306 0.981577C1.34204 0.556848 1.86556 0.344482 2.48788 0.344482H24.5121C25.1344 0.344482 25.658 0.556848 26.0827 0.981577C26.5074 1.40631 26.7198 1.93266 26.7198 2.56063V9.53667C25.9893 9.11348 25.206 8.78601 24.3699 8.55424C23.5338 8.32274 22.6598 8.20698 21.7479 8.20698C21.1048 8.20698 20.4719 8.25837 19.8494 8.36115C19.2265 8.46393 18.6196 8.61809 18.0286 8.82365H1.26302V18.4398C1.26302 18.7481 1.3915 19.0308 1.64844 19.2877C1.90539 19.5447 2.18802 19.6731 2.49636 19.6731H11.9969C12.0251 19.8561 12.0492 20.023 12.069 20.1738C12.0887 20.3246 12.1161 20.4853 12.151 20.6559ZM21.2661 23.4502L21.2083 22.4289C20.6605 22.3261 20.1414 22.1494 19.6509 21.8989C19.1604 21.6484 18.7417 21.3047 18.3948 20.8679L17.4698 21.3112L16.8917 20.5403L17.6818 19.9044C17.4634 19.307 17.3542 18.7096 17.3542 18.1122C17.3542 17.5148 17.4634 16.9174 17.6818 16.32L16.8917 15.6841L17.4698 14.9132L18.3948 15.3565C18.716 14.9068 19.1282 14.5589 19.6316 14.3128C20.135 14.0666 20.6605 13.8942 21.2083 13.7955L21.2704 12.7742H22.249L22.3068 13.7955C22.8451 13.8983 23.3651 14.0717 23.8669 14.3158C24.3685 14.5599 24.7863 14.9068 25.1203 15.3565L26.0453 14.9132L26.6234 15.6841L25.8333 16.32C26.0389 16.911 26.1417 17.5084 26.1417 18.1122C26.1417 18.716 26.0389 19.3134 25.8333 19.9044L26.6234 20.5403L26.0453 21.3112L25.1203 20.8679C24.7606 21.3047 24.3375 21.6484 23.8511 21.8989C23.3647 22.1494 22.85 22.3261 22.3068 22.4289L22.2447 23.4502H21.2661ZM21.7479 21.5039C22.6986 21.5039 23.5016 21.1763 24.1568 20.521C24.812 19.8658 25.1396 19.0629 25.1396 18.1122C25.1396 17.1615 24.812 16.3585 24.1568 15.7033C23.5016 15.0481 22.6986 14.7205 21.7479 14.7205C20.7972 14.7205 19.9943 15.0481 19.3391 15.7033C18.6839 16.3585 18.3563 17.1615 18.3563 18.1122C18.3563 19.0629 18.6839 19.8658 19.3391 20.521C19.9943 21.1763 20.7972 21.5039 21.7479 21.5039Z" fill="white"/>
</svg>
