<svg width="30" height="30" viewBox="0 0 30 30" fill="none" xmlns="http://www.w3.org/2000/svg">
<mask id="mask0_6417_70669" style="mask-type:alpha" maskUnits="userSpaceOnUse" x="0" y="0" width="30" height="30">
<rect width="30" height="30" fill="#D9D9D9"/>
</mask>
<g mask="url(#mask0_6417_70669)">
<path d="M25 9.27875V22.9806C25 23.556 24.8073 24.0365 24.4219 24.4219C24.0365 24.8073 23.556 25 22.9806 25H7.01937C6.44396 25 5.96354 24.8073 5.57812 24.4219C5.19271 24.0365 5 23.556 5 22.9806V7.01937C5 6.44396 5.19271 5.96354 5.57812 5.57812C5.96354 5.19271 6.44396 5 7.01937 5H20.7213L25 9.27875ZM23.75 9.8125L20.1875 6.25H7.01937C6.795 6.25 6.61062 6.32208 6.46625 6.46625C6.32208 6.61062 6.25 6.795 6.25 7.01937V22.9806C6.25 23.205 6.32208 23.3894 6.46625 23.5338C6.61062 23.6779 6.795 23.75 7.01937 23.75H22.9806C23.205 23.75 23.3894 23.6779 23.5338 23.5338C23.6779 23.3894 23.75 23.205 23.75 22.9806V9.8125ZM15 20.6731C15.6892 20.6731 16.2781 20.4288 16.7669 19.94C17.2556 19.4512 17.5 18.8623 17.5 18.1731C17.5 17.484 17.2556 16.895 16.7669 16.4062C16.2781 15.9175 15.6892 15.6731 15 15.6731C14.3108 15.6731 13.7219 15.9175 13.2331 16.4062C12.7444 16.895 12.5 17.484 12.5 18.1731C12.5 18.8623 12.7444 19.4512 13.2331 19.94C13.7219 20.4288 14.3108 20.6731 15 20.6731ZM8.46156 12.2116H17.7403V8.46156H8.46156V12.2116Z" fill="white"/>
</g>
</svg>
