<svg width="30" height="30" viewBox="0 0 30 30" fill="none" xmlns="http://www.w3.org/2000/svg">
<path d="M15.0001 18.1738L17.7084 19.8542C17.9398 20.0022 18.1597 19.9964 18.368 19.8367C18.5763 19.6769 18.6527 19.4582 18.5972 19.1804L17.8613 16.1096L20.278 14.0625C20.4677 13.8864 20.5194 13.6789 20.433 13.44C20.3463 13.2011 20.1812 13.066 19.9376 13.0346L16.7818 12.7487L15.5488 9.88208C15.4669 9.6643 15.2855 9.55542 15.0047 9.55542C14.7238 9.55542 14.5394 9.6643 14.4513 9.88208L13.2184 12.7487L10.0626 13.0346C9.81897 13.066 9.65383 13.2011 9.56717 13.44C9.48078 13.6789 9.53245 13.8864 9.72217 14.0625L12.1388 16.1096L11.403 19.1804C11.3474 19.4582 11.4238 19.6769 11.6322 19.8367C11.8405 19.9964 12.0604 20.0022 12.2918 19.8542L15.0001 18.1738ZM10.3793 26.0971H6.20133C5.57661 26.0971 5.03745 25.8701 4.58383 25.4163C4.12995 24.9626 3.903 24.4235 3.903 23.7988V19.6371L0.875085 16.6017C0.617862 16.3783 0.444807 16.1301 0.355918 15.8571C0.266751 15.5838 0.222168 15.3 0.222168 15.0058C0.222168 14.7117 0.263973 14.4253 0.347584 14.1467C0.430918 13.8681 0.606751 13.6085 0.875085 13.3679L3.903 10.3454V6.20125C3.903 5.57653 4.12995 5.03736 4.58383 4.58375C5.03745 4.12986 5.57661 3.90292 6.20133 3.90292H10.363L13.3984 0.847084C13.619 0.615695 13.8668 0.447917 14.1418 0.34375C14.417 0.239583 14.7029 0.1875 14.9993 0.1875C15.2959 0.1875 15.5822 0.241389 15.858 0.349167C16.1341 0.456945 16.3922 0.632222 16.6322 0.875L19.648 3.90292H23.7988C24.4236 3.90292 24.9627 4.12986 25.4163 4.58375C25.8702 5.03736 26.0972 5.57653 26.0972 6.20125V10.3454L29.153 13.3679C29.3844 13.6088 29.5522 13.8668 29.6563 14.1421C29.7605 14.4176 29.8126 14.7036 29.8126 15C29.8126 15.2964 29.7605 15.5822 29.6563 15.8575C29.5522 16.1331 29.3844 16.3811 29.153 16.6017L26.0972 19.6371V23.7988C26.0972 24.4235 25.8702 24.9626 25.4163 25.4163C24.9627 25.8701 24.4236 26.0971 23.7988 26.0971H19.648L16.6322 29.125C16.3927 29.3683 16.1356 29.5333 15.8609 29.62C15.5862 29.7067 15.3011 29.75 15.0055 29.75C14.7049 29.75 14.4209 29.7039 14.1534 29.6117C13.8859 29.5194 13.6436 29.3572 13.4263 29.125L10.3793 26.0971ZM10.7572 25.1321L14.0418 28.3888C14.2918 28.6388 14.6112 28.7638 15.0001 28.7638C15.389 28.7638 15.7084 28.6388 15.9584 28.3888L19.2293 25.1321H23.7988C24.1877 25.1321 24.5072 25.0071 24.7572 24.7571C25.0072 24.5071 25.1322 24.1876 25.1322 23.7988V19.2475L28.4168 15.9583C28.6668 15.7083 28.7918 15.3889 28.7918 15C28.7918 14.6111 28.6668 14.2917 28.4168 14.0417L25.1276 10.7525V6.20125C25.1276 5.81236 25.0026 5.49292 24.7526 5.24292C24.5026 4.99292 24.1831 4.86792 23.7943 4.86792H19.243L15.9584 1.58333C15.7084 1.33333 15.389 1.20833 15.0001 1.20833C14.6112 1.20833 14.2918 1.33333 14.0418 1.58333L10.7572 4.86792H6.20592C5.81703 4.86792 5.49758 4.99292 5.24758 5.24292C4.99758 5.49292 4.87258 5.81236 4.87258 6.20125V10.7525L1.58342 14.0417C1.33342 14.2917 1.20842 14.6111 1.20842 15C1.20842 15.3889 1.33342 15.7083 1.58342 15.9583L4.868 19.2475V23.7988C4.868 24.1876 4.993 24.5071 5.243 24.7571C5.493 25.0071 5.81245 25.1321 6.20133 25.1321H10.7572Z" fill="white"/>
</svg>
