<svg width="19" height="18" viewBox="0 0 19 18" fill="none" xmlns="http://www.w3.org/2000/svg">
<mask id="mask0_5613_17254" style="mask-type:alpha" maskUnits="userSpaceOnUse" x="0" y="0" width="19" height="18">
<rect x="0.5" width="18" height="18" fill="#D9D9D9"/>
</mask>
<g mask="url(#mask0_5613_17254)">
<path d="M9.4999 13.9866L9.2374 13.7429C8.0374 12.6554 7.04678 11.7335 6.26553 10.9772C5.48428 10.221 4.8749 9.56475 4.4374 9.0085C3.9999 8.45225 3.69678 7.95537 3.52803 7.51787C3.35928 7.08037 3.2749 6.64287 3.2749 6.20537C3.2749 5.38037 3.56553 4.67725 4.14678 4.096C4.72803 3.51475 5.43115 3.22412 6.25615 3.22412C6.88115 3.22412 7.4749 3.396 8.0374 3.73975C8.5999 4.0835 9.0874 4.58662 9.4999 5.24912C9.9124 4.58662 10.3999 4.0835 10.9624 3.73975C11.5249 3.396 12.1187 3.22412 12.7437 3.22412C13.5687 3.22412 14.2718 3.51475 14.853 4.096C15.4343 4.67725 15.7249 5.38037 15.7249 6.20537C15.7249 6.64287 15.6437 7.07412 15.4812 7.49912C15.3187 7.92412 15.0187 8.41162 14.5812 8.96162C14.1437 9.51162 13.5343 10.171 12.753 10.9397C11.9718 11.7085 10.9624 12.6554 9.7249 13.7804L9.4999 13.9866ZM9.4999 13.4804C10.6624 12.4304 11.6187 11.5366 12.3687 10.7991C13.1187 10.0616 13.7155 9.421 14.1593 8.87725C14.603 8.3335 14.9124 7.85225 15.0874 7.4335C15.2624 7.01475 15.3499 6.60537 15.3499 6.20537C15.3499 5.46787 15.0999 4.84912 14.5999 4.34912C14.0999 3.84912 13.4812 3.59912 12.7437 3.59912C12.2937 3.59912 11.8749 3.696 11.4874 3.88975C11.0999 4.0835 10.6312 4.45537 10.0812 5.00537L9.4249 5.77412H9.5749L8.91865 5.00537C8.35615 4.44287 7.87803 4.06787 7.48428 3.88037C7.09053 3.69287 6.68115 3.59912 6.25615 3.59912C5.53115 3.59912 4.91553 3.84912 4.40928 4.34912C3.90303 4.84912 3.6499 5.46787 3.6499 6.20537C3.6499 6.60537 3.73115 7.00537 3.89365 7.40537C4.05615 7.80537 4.35303 8.27412 4.78428 8.81162C5.21553 9.34912 5.80928 9.98662 6.56553 10.7241C7.32178 11.4616 8.2999 12.3804 9.4999 13.4804Z" fill="white"/>
</g>
</svg>
