<svg width="49" height="48" viewBox="0 0 49 48" fill="none" xmlns="http://www.w3.org/2000/svg">
<g opacity="0.7">
<mask id="mask0_512_52283" style="mask-type:alpha" maskUnits="userSpaceOnUse" x="3" y="3" width="43" height="42">
<rect x="3.92969" y="3.42871" width="41.1429" height="41.1429" fill="#D9D9D9"/>
</mask>
<g mask="url(#mask0_512_52283)">
<path d="M15.2692 39.4284C14.4802 39.4284 13.8214 39.1641 13.2929 38.6356C12.7643 38.107 12.5 37.4482 12.5 36.6592V11.3405C12.5 10.5515 12.7643 9.89272 13.2929 9.36415C13.8214 8.83557 14.4802 8.57129 15.2692 8.57129H28.7857L36.5 16.2856V36.6592C36.5 37.4482 36.2357 38.107 35.7071 38.6356C35.1786 39.1641 34.5198 39.4284 33.7308 39.4284H15.2692ZM27.9286 17.1427V10.2856H15.2692C15.0055 10.2856 14.7637 10.3955 14.5439 10.6152C14.3242 10.835 14.2143 11.0768 14.2143 11.3405V36.6592C14.2143 36.9229 14.3242 37.1647 14.5439 37.3845C14.7637 37.6043 15.0055 37.7141 15.2692 37.7141H33.7308C33.9945 37.7141 34.2363 37.6043 34.4561 37.3845C34.6758 37.1647 34.7857 36.9229 34.7857 36.6592V17.1427H27.9286Z" fill="white"/>
</g>
</g>
</svg>
