<svg width="25" height="16" viewBox="0 0 25 16" fill="none" xmlns="http://www.w3.org/2000/svg">
<path d="M2.65383 13.8984H22.3462C22.5855 13.8984 22.7821 13.8214 22.9359 13.6676C23.0897 13.5137 23.1667 13.3172 23.1667 13.0779V6.20605H1.83333V13.0779C1.83333 13.3172 1.91026 13.5137 2.0641 13.6676C2.21794 13.8214 2.41452 13.8984 2.65383 13.8984ZM19.3175 11.3856C19.687 11.3856 20.0021 11.2562 20.2628 10.9975C20.5235 10.7389 20.6538 10.4248 20.6538 10.0552C20.6538 9.68569 20.5245 9.37058 20.2658 9.10989C20.0072 8.8492 19.6931 8.71885 19.3235 8.71885C18.954 8.71885 18.6389 8.8482 18.3782 9.10689C18.1175 9.36555 17.9872 9.67966 17.9872 10.0492C17.9872 10.4187 18.1165 10.7338 18.3752 10.9945C18.6339 11.2552 18.948 11.3856 19.3175 11.3856ZM24.5 4.87272H22.6308L19.4 1.53939H5.6L2.36923 4.87272H0.5L4.42563 0.844489C4.61879 0.634244 4.84894 0.475277 5.1161 0.367588C5.38323 0.259899 5.66419 0.206055 5.95897 0.206055H19.041C19.3358 0.206055 19.6168 0.259899 19.8839 0.367588C20.1511 0.475277 20.3812 0.634244 20.5744 0.844489L24.5 4.87272ZM2.65383 15.2317C2.06152 15.2317 1.55448 15.0208 1.1327 14.599C0.7109 14.1772 0.5 13.6702 0.5 13.0779V4.87272H24.5V13.0779C24.5 13.6702 24.2891 14.1772 23.8673 14.599C23.4455 15.0208 22.9385 15.2317 22.3462 15.2317H2.65383Z" fill="white"/>
</svg>
