<svg width="35" height="36" viewBox="0 0 35 36" fill="none" xmlns="http://www.w3.org/2000/svg">
<mask id="mask0_5615_17584" style="mask-type:alpha" maskUnits="userSpaceOnUse" x="0" y="0" width="35" height="36">
<rect y="0.5" width="35" height="35" fill="#D9D9D9"/>
</mask>
<g mask="url(#mask0_5615_17584)">
<path d="M21.8792 28.2082C19.0306 28.2082 16.6163 27.2197 14.6364 25.2426C12.6565 23.2656 11.6665 20.8528 11.6665 18.0042C11.6665 15.1556 12.655 12.7413 14.632 10.7614C16.609 8.78147 19.0219 7.7915 21.8705 7.7915C24.7191 7.7915 27.1333 8.78001 29.1133 10.757C31.0932 12.734 32.0832 15.1469 32.0832 17.9955C32.0832 20.8441 31.0947 23.2583 29.1176 25.2383C27.1406 27.2182 24.7278 28.2082 21.8792 28.2082ZM10.2082 27.7874C8.0056 27.2005 6.23968 25.9973 4.91041 24.1781C3.58114 22.359 2.9165 20.2996 2.9165 17.9998C2.9165 15.7 3.58114 13.6406 4.91041 11.8216C6.23968 10.0023 8.0056 8.79921 10.2082 8.21223V9.76025C8.45817 10.3679 7.04845 11.4252 5.979 12.9321C4.90956 14.4391 4.37484 16.1283 4.37484 17.9998C4.37484 19.8714 4.90956 21.5606 5.979 23.0675C7.04845 24.5745 8.45817 25.6318 10.2082 26.2394V27.7874ZM21.8748 26.7498C24.3054 26.7498 26.3714 25.8991 28.0728 24.1978C29.7741 22.4964 30.6248 20.4304 30.6248 17.9998C30.6248 15.5693 29.7741 13.5033 28.0728 11.8019C26.3714 10.1005 24.3054 9.24984 21.8748 9.24984C19.4443 9.24984 17.3783 10.1005 15.6769 11.8019C13.9755 13.5033 13.1248 15.5693 13.1248 17.9998C13.1248 20.4304 13.9755 22.4964 15.6769 24.1978C17.3783 25.8991 19.4443 26.7498 21.8748 26.7498Z" fill="white" fill-opacity="0.99"/>
</g>
</svg>
