<svg xmlns="http://www.w3.org/2000/svg" width="24" height="24" viewBox="0 0 24 24" fill="none">
    <mask id="mask0_4599_4482" style="mask-type:alpha" maskUnits="userSpaceOnUse" x="0" y="0" width="24" height="24">
        <rect width="24" height="24" fill="#D9D9D9"/>
    </mask>
    <g mask="url(#mask0_4599_4482)">
        <path d="M18.325 13.35V10.35H15.325V9.65005H18.325V6.65005H19.025V9.65005H22.025V10.35H19.025V13.35H18.325ZM8.99999 11.2C8.25749 11.2 7.6219 10.9357 7.09324 10.407C6.5644 9.87822 6.29999 9.24255 6.29999 8.50005C6.29999 7.75755 6.5644 7.12188 7.09324 6.59305C7.6219 6.06438 8.25749 5.80005 8.99999 5.80005C9.74249 5.80005 10.3781 6.06438 10.9067 6.59305C11.4356 7.12188 11.7 7.75755 11.7 8.50005C11.7 9.24255 11.4356 9.87822 10.9067 10.407C10.3781 10.9357 9.74249 11.2 8.99999 11.2ZM2.29999 18.2V16.9C2.29999 16.5334 2.41249 16.1875 2.63749 15.8625C2.86249 15.5375 3.16665 15.2834 3.54999 15.1C4.46665 14.6667 5.37915 14.3417 6.28749 14.125C7.19582 13.9084 8.09999 13.8 8.99999 13.8C9.89999 13.8 10.8042 13.9084 11.7125 14.125C12.6208 14.3417 13.5333 14.6667 14.45 15.1C14.8333 15.2834 15.1375 15.5375 15.3625 15.8625C15.5875 16.1875 15.7 16.5334 15.7 16.9V18.2H2.29999ZM2.99999 17.5H15V16.9C15 16.6667 14.9208 16.4459 14.7625 16.2375C14.6042 16.0292 14.3833 15.85 14.1 15.7C13.3 15.3167 12.4692 15.0209 11.6077 14.8125C10.7464 14.6042 9.87715 14.5 8.99999 14.5C8.12282 14.5 7.25357 14.6042 6.39224 14.8125C5.53074 15.0209 4.69999 15.3167 3.89999 15.7C3.61665 15.85 3.39582 16.0292 3.23749 16.2375C3.07915 16.4459 2.99999 16.6667 2.99999 16.9V17.5ZM8.99999 10.5C9.54999 10.5 10.0208 10.3042 10.4125 9.91255C10.8042 9.52088 11 9.05005 11 8.50005C11 7.95005 10.8042 7.47922 10.4125 7.08755C10.0208 6.69588 9.54999 6.50005 8.99999 6.50005C8.44999 6.50005 7.97915 6.69588 7.58749 7.08755C7.19582 7.47922 6.99999 7.95005 6.99999 8.50005C6.99999 9.05005 7.19582 9.52088 7.58749 9.91255C7.97915 10.3042 8.44999 10.5 8.99999 10.5Z" fill="white"/>
    </g>
</svg>
