<svg width="18" height="18" viewBox="0 0 18 18" fill="none" xmlns="http://www.w3.org/2000/svg">
<mask id="mask0_877_26018" style="mask-type:alpha" maskUnits="userSpaceOnUse" x="0" y="0" width="18" height="18">
<rect width="18" height="18" fill="#E4E7EC"/>
</mask>
<g mask="url(#mask0_877_26018)">
<path d="M14.5446 15L9.85976 10.3142C9.46437 10.6173 9.02945 10.8513 8.55499 11.0164C8.08053 11.1809 7.61271 11.2632 7.15153 11.2632C5.99132 11.2632 5.0095 10.8611 4.20608 10.0571C3.40203 9.25304 3 8.27787 3 7.13158C3 5.98529 3.40203 5.01012 4.20608 4.20607C5.0095 3.40202 5.98468 3 7.13161 3C8.2779 3 9.25656 3.40202 10.0676 4.20607C10.8779 5.01012 11.2831 5.98529 11.2831 7.13158C11.2831 7.63261 11.1943 8.12035 11.0165 8.59481C10.8381 9.06927 10.604 9.48426 10.3143 9.83979L15.019 14.5445L14.5446 15ZM7.15153 10.6312C8.12639 10.6312 8.95322 10.295 9.63201 9.62249C10.3108 8.95002 10.6502 8.11972 10.6502 7.13158C10.6502 6.14344 10.3108 5.31314 9.63201 4.64068C8.95322 3.96821 8.12639 3.63198 7.15153 3.63198C6.16276 3.63198 5.32897 3.96821 4.65017 4.64068C3.97138 5.31314 3.63198 6.14344 3.63198 7.13158C3.63198 8.11972 3.97138 8.95002 4.65017 9.62249C5.32897 10.295 6.16276 10.6312 7.15153 10.6312Z" fill="#9B9B9B"/>
</g>
</svg>
