<svg width="25" height="24" viewBox="0 0 25 24" fill="none" xmlns="http://www.w3.org/2000/svg">
<mask id="mask0_5683_39993" style="mask-type:alpha" maskUnits="userSpaceOnUse" x="0" y="0" width="25" height="24">
<rect x="0.79541" width="24" height="24" fill="#D9D9D9"/>
</mask>
<g mask="url(#mask0_5683_39993)">
<path d="M12.7952 19.9998C14.0452 19.9998 15.1077 19.5623 15.9827 18.6873C16.8577 17.8123 17.2952 16.7498 17.2952 15.4998C17.2952 14.2498 16.8577 13.1873 15.9827 12.3123C15.1077 11.4373 14.0452 10.9998 12.7952 10.9998C11.5452 10.9998 10.4827 11.4373 9.60772 12.3123C8.73272 13.1873 8.29522 14.2498 8.29522 15.4998C8.29522 16.7498 8.73272 17.8123 9.60772 18.6873C10.4827 19.5623 11.5452 19.9998 12.7952 19.9998ZM9.92022 11.1748C10.2369 10.9581 10.5744 10.7831 10.9327 10.6498C11.291 10.5165 11.6619 10.4165 12.0452 10.3498L9.84521 5.9998H7.34521L9.92022 11.1748ZM15.6702 11.1748L18.2702 5.9998H15.7452L13.5452 10.3498C13.9285 10.4165 14.2994 10.5165 14.6577 10.6498C15.016 10.7831 15.3535 10.9581 15.6702 11.1748ZM8.27022 18.9748C8.37021 18.9748 8.47021 18.9706 8.57021 18.9623C8.67021 18.954 8.77022 18.9415 8.87021 18.9248C8.47021 18.4581 8.15771 17.9331 7.93271 17.3498C7.70772 16.7665 7.59521 16.1498 7.59521 15.4998C7.59521 14.8498 7.70772 14.2331 7.93271 13.6498C8.15771 13.0665 8.47021 12.5415 8.87021 12.0748C8.77022 12.0581 8.67021 12.0456 8.57021 12.0373C8.47021 12.029 8.37021 12.0248 8.27022 12.0248C7.30355 12.0248 6.48271 12.3623 5.80771 13.0373C5.13271 13.7123 4.79521 14.5331 4.79521 15.4998C4.79521 16.4665 5.13271 17.2873 5.80771 17.9623C6.48271 18.6373 7.30355 18.9748 8.27022 18.9748ZM17.3202 18.9748C18.2869 18.9748 19.1077 18.6373 19.7827 17.9623C20.4577 17.2873 20.7952 16.4665 20.7952 15.4998C20.7952 14.5331 20.4577 13.7123 19.7827 13.0373C19.1077 12.3623 18.2869 12.0248 17.3202 12.0248C17.2202 12.0248 17.1202 12.029 17.0202 12.0373C16.9202 12.0456 16.8202 12.0581 16.7202 12.0748C17.1202 12.5415 17.4327 13.0665 17.6577 13.6498C17.8827 14.2331 17.9952 14.8498 17.9952 15.4998C17.9952 16.1498 17.8827 16.7665 17.6577 17.3498C17.4327 17.9331 17.1202 18.4581 16.7202 18.9248C16.8202 18.9415 16.9202 18.954 17.0202 18.9623C17.1202 18.9706 17.2202 18.9748 17.3202 18.9748ZM12.7952 20.6998C12.1619 20.6998 11.566 20.5998 11.0077 20.3998C10.4494 20.1998 9.94521 19.9081 9.49521 19.5248C9.31188 19.5915 9.11605 19.6373 8.90771 19.6623C8.69938 19.6873 8.48688 19.6998 8.27022 19.6998C7.12021 19.6998 6.13688 19.2915 5.32021 18.4748C4.50355 17.6581 4.09521 16.6748 4.09521 15.5248C4.09521 14.3748 4.50355 13.3915 5.32021 12.5748C6.13688 11.7581 7.12021 11.3498 8.27022 11.3498C8.45355 11.3498 8.62855 11.3623 8.79522 11.3873C8.96188 11.4123 9.12855 11.4415 9.29522 11.4748L6.19521 5.2998H10.2952L12.7952 10.2998L15.2952 5.2998H19.3952L16.3452 11.3998C16.4952 11.3665 16.6494 11.3415 16.8077 11.3248C16.966 11.3081 17.1285 11.2998 17.2952 11.2998C18.4619 11.2998 19.4535 11.7081 20.2702 12.5248C21.0869 13.3415 21.4952 14.3331 21.4952 15.4998C21.4952 16.6665 21.0869 17.6581 20.2702 18.4748C19.4535 19.2915 18.4619 19.6998 17.2952 19.6998C17.0785 19.6998 16.8702 19.6873 16.6702 19.6623C16.4702 19.6373 16.2785 19.5915 16.0952 19.5248C15.6452 19.8915 15.141 20.179 14.5827 20.3873C14.0244 20.5956 13.4285 20.6998 12.7952 20.6998ZM11.3202 17.6498L11.8702 15.8248L10.3952 14.7748H12.2202L12.7952 12.8498L13.3702 14.7748H15.1952L13.7202 15.8248L14.2702 17.6498L12.7952 16.5248L11.3202 17.6498Z" fill="white"/>
</g>
</svg>
