<svg xmlns="http://www.w3.org/2000/svg" width="32" height="32" viewBox="0 0 32 32" fill="none">
    <mask id="mask0_4780_37389" style="mask-type:alpha" maskUnits="userSpaceOnUse" x="0" y="0" width="32" height="32">
        <rect width="32" height="32" fill="#D9D9D9"/>
    </mask>
    <g mask="url(#mask0_4780_37389)">
        <path d="M14.082 21.2103L22.6103 12.682L21.6667 11.7383L14.082 19.323L10.282 15.523L9.33833 16.4667L14.082 21.2103ZM16.0043 28C14.345 28 12.7849 27.6851 11.324 27.0553C9.86333 26.4256 8.59267 25.5709 7.512 24.4913C6.43133 23.4118 5.57589 22.1422 4.94567 20.6827C4.31522 19.2233 4 17.6639 4 16.0043C4 14.345 4.31489 12.7849 4.94467 11.324C5.57444 9.86333 6.42911 8.59267 7.50867 7.512C8.58822 6.43133 9.85778 5.57589 11.3173 4.94567C12.7767 4.31522 14.3361 4 15.9957 4C17.655 4 19.2151 4.31489 20.676 4.94467C22.1367 5.57445 23.4073 6.42911 24.488 7.50867C25.5687 8.58822 26.4241 9.85778 27.0543 11.3173C27.6848 12.7767 28 14.3361 28 15.9957C28 17.655 27.6851 19.2151 27.0553 20.676C26.4256 22.1367 25.5709 23.4073 24.4913 24.488C23.4118 25.5687 22.1422 26.4241 20.6827 27.0543C19.2233 27.6848 17.6639 28 16.0043 28ZM16 26.6667C18.9778 26.6667 21.5 25.6333 23.5667 23.5667C25.6333 21.5 26.6667 18.9778 26.6667 16C26.6667 13.0222 25.6333 10.5 23.5667 8.43333C21.5 6.36667 18.9778 5.33333 16 5.33333C13.0222 5.33333 10.5 6.36667 8.43333 8.43333C6.36667 10.5 5.33333 13.0222 5.33333 16C5.33333 18.9778 6.36667 21.5 8.43333 23.5667C10.5 25.6333 13.0222 26.6667 16 26.6667Z" fill="white"/>
    </g>
</svg>
