<svg width="25" height="24" viewBox="0 0 25 24" fill="none" xmlns="http://www.w3.org/2000/svg">
    <mask id="mask0_5841_40921" style="mask-type:alpha" maskUnits="userSpaceOnUse" x="0" y="0"
        width="25" height="24">
        <rect x="0.5" width="24" height="24" fill="currentColor" />
    </mask>
    <g mask="url(#mask0_5841_40921)">
        <path
            d="M15.6531 19.3499C13.6021 19.3499 11.8639 18.6382 10.4383 17.2147C9.01277 15.7913 8.3 14.0541 8.3 12.0031C8.3 9.95205 9.01172 8.21378 10.4352 6.78823C11.8586 5.36268 13.5958 4.6499 15.6469 4.6499C17.6979 4.6499 19.4361 5.36163 20.8617 6.78508C22.2872 8.20853 23 9.94575 23 11.9968C23 14.0478 22.2883 15.786 20.8648 17.2116C19.4414 18.6371 17.7041 19.3499 15.6531 19.3499ZM7.25 19.047C5.66415 18.6244 4.39269 17.7581 3.43561 16.4482C2.47854 15.1385 2 13.6558 2 11.9999C2 10.3441 2.47854 8.86128 3.43561 7.55158C4.39269 6.2417 5.66415 5.37545 7.25 4.95283V6.0674C5.99 6.5049 4.975 7.26615 4.205 8.35115C3.435 9.43615 3.05 10.6524 3.05 11.9999C3.05 13.3474 3.435 14.5637 4.205 15.6487C4.975 16.7337 5.99 17.4949 7.25 17.9324V19.047Z"
            fill="currentColor" fillOpacity="1" />
    </g>
</svg>