<svg width="24" height="24" viewBox="0 0 24 24" fill="none" xmlns="http://www.w3.org/2000/svg">
<path id="Vector" fill-rule="evenodd" clip-rule="evenodd" d="M3.79588 0H20.2314C20.8595 0 21.3829 0.104803 22.011 0.419214C22.7438 0.733624 23.1625 1.25764 23.3719 1.67686C23.3719 1.67686 23.3719 1.78166 23.4766 1.78166C23.7906 2.30568 24 2.9345 24 3.66812C24 4.29694 23.8953 4.92576 23.4766 5.55458L13.1128 23.3712C12.9034 23.7904 12.4847 24 11.9613 24C11.5425 24 11.1238 23.7904 10.8097 23.3712L0.65534 5.55458C0.44597 5.13537 0.0272316 4.61135 0.0272316 3.77293C-0.077453 3.0393 0.131916 2.41048 0.44597 1.78166C0.760023 1.15284 1.28345 0.628821 2.01624 0.419214C2.64435 -4.02331e-07 3.37714 0 3.79588 0ZM10.7051 2.51528H3.79588C3.37714 2.51528 3.16777 2.51528 3.06308 2.62009C2.85371 2.72489 2.74903 2.82969 2.64435 3.0393C2.53966 3.1441 2.53966 3.35371 2.53966 3.56332C2.53966 3.66812 2.64435 3.77293 2.85371 4.19214L10.7051 17.8166V2.51528ZM13.2175 2.51528V17.9214L21.1735 4.19214C21.2782 3.98253 21.2782 3.77293 21.2782 3.56332C21.2782 3.35371 21.2782 3.1441 21.1735 3.0393C21.0688 2.9345 21.0688 2.8297 20.9641 2.8297L20.8595 2.72489C20.6501 2.62009 20.4407 2.62009 20.1267 2.62009H13.2175V2.51528Z" fill="white"/>
</svg>
