<svg width="26" height="30" viewBox="0 0 26 30" fill="none" xmlns="http://www.w3.org/2000/svg">
<path d="M6.88879 17.5001L9.72213 19.4167L12.4513 18.0417C12.618 17.9492 12.7939 17.903 12.9792 17.903C13.1645 17.903 13.3405 17.9492 13.5071 18.0417L16.2917 19.4305L19.1596 17.493L17.368 13.8472C17.2569 13.6249 17.0902 13.4444 16.868 13.3055C16.6457 13.1666 16.4096 13.0972 16.1596 13.0972H9.85421C9.59032 13.0972 9.35421 13.1666 9.14588 13.3055C8.93754 13.4444 8.78477 13.6249 8.68754 13.8472L6.88879 17.5001ZM1.44463 28.4655H24.5138L19.5625 18.4097L16.9375 20.1597C16.7412 20.2922 16.5428 20.3669 16.3425 20.3838C16.142 20.4011 15.9514 20.3541 15.7709 20.243L13 18.8613L10.2571 20.2155C10.0627 20.3266 9.86727 20.3761 9.67088 20.3638C9.47449 20.3516 9.29254 20.279 9.12504 20.1459L6.40296 18.368L1.44463 28.4655ZM1.73629 29.4305C1.31268 29.4305 0.989071 29.2523 0.76546 28.8959C0.542126 28.5395 0.530043 28.1599 0.72921 27.7572L7.80546 13.3751C7.99546 13.0001 8.26949 12.6991 8.62754 12.4722C8.98588 12.2455 9.39477 12.1322 9.85421 12.1322H12.5346V1.71549C12.5346 1.37272 12.6377 1.09258 12.8438 0.875079C13.0499 0.657579 13.3242 0.548828 13.6667 0.548828H20.1805C20.3899 0.548828 20.5419 0.642578 20.6363 0.830078C20.7307 1.01758 20.7432 1.20619 20.6738 1.39591L20.118 2.43758C20.081 2.51786 20.0625 2.61049 20.0625 2.71549C20.0625 2.82022 20.0814 2.90119 20.1192 2.95841L20.6738 4.00008C20.7432 4.20786 20.7323 4.40105 20.6409 4.57966C20.5495 4.75799 20.396 4.84716 20.1805 4.84716H13.5V12.1322H16.0417C16.4939 12.1322 16.8959 12.249 17.2475 12.4826C17.5992 12.7165 17.8663 13.0186 18.0488 13.3888L25.25 27.7572C25.4398 28.1599 25.4242 28.5395 25.2034 28.8959C24.9823 29.2523 24.6552 29.4305 24.2221 29.4305H1.73629Z" fill="white"/>
</svg>
