<svg width="24" height="24" viewBox="0 0 24 24" fill="none" xmlns="http://www.w3.org/2000/svg">
<g id="Upload__24px">
<mask id="mask0_31724_84855" style="mask-type:alpha" maskUnits="userSpaceOnUse" x="0" y="0" width="24" height="24">
<rect id="Bounding box" width="24" height="24" fill="#E4E7EC"/>
</mask>
<g mask="url(#mask0_31724_84855)">
<path id="backup" d="M5.8004 18.4008C4.734 18.4008 3.834 18.0216 3.1004 17.2632C2.3668 16.5048 2 15.5924 2 14.526C2 13.3756 2.446 12.4088 3.338 11.6256C4.2292 10.8424 5.2252 10.5256 6.326 10.6752C6.526 9.3256 7.1424 8.2092 8.1752 7.326C9.2088 6.442 10.4172 6 11.8004 6C13.3004 6 14.6088 6.4752 15.7256 7.4256C16.8424 8.3752 17.4008 9.5668 17.4008 11.0004V12H18.026C18.9924 11.9 19.8296 12.1668 20.5376 12.8004C21.2464 13.434 21.6008 14.2256 21.6008 15.1752C21.6008 16.0752 21.2964 16.8376 20.6876 17.4624C20.0796 18.088 19.334 18.4008 18.4508 18.4008H12.8252C12.4084 18.4008 12.0668 18.2672 11.8004 18C11.534 17.7336 11.4008 17.392 11.4008 16.9752V11.9748L9.4748 13.95L8.9 13.3752L11.8004 10.4748L14.7008 13.3752L14.126 13.95L12.2 11.9748V16.9752C12.2 17.1424 12.2628 17.2884 12.3884 17.4132C12.5132 17.538 12.6588 17.6004 12.8252 17.6004H18.4004C19.0668 17.6004 19.6336 17.3672 20.1008 16.9008C20.5672 16.4336 20.8004 15.8668 20.8004 15.2004C20.8004 14.534 20.5672 13.9672 20.1008 13.5C19.6336 13.0336 19.0668 12.8004 18.4004 12.8004H16.6004V11.0004C16.6004 9.7836 16.1212 8.7796 15.1628 7.9884C14.2044 7.1964 13.0836 6.8004 11.8004 6.8004C10.5004 6.8004 9.4004 7.2712 8.5004 8.2128C7.6004 9.1544 7.0588 10.2836 6.8756 11.6004H5.75C4.9668 11.6004 4.2796 11.892 3.6884 12.4752C3.0964 13.0584 2.8004 13.7668 2.8004 14.6004C2.8004 15.434 3.092 16.1424 3.6752 16.7256C4.2584 17.3088 4.9668 17.6004 5.8004 17.6004H9.1004V18.4008H5.8004Z" fill="white"/>
</g>
</g>
</svg>
