<svg width="36" height="41" viewBox="0 0 36 41" fill="none" xmlns="http://www.w3.org/2000/svg">
<path d="M26.9565 31.9572C27.9114 31.9572 28.723 31.623 29.3914 30.9546C30.0598 30.2862 30.394 29.4746 30.394 28.5197C30.394 27.5648 30.0598 26.7532 29.3914 26.0848C28.723 25.4164 27.9114 25.0822 26.9565 25.0822C26.0017 25.0822 25.19 25.4164 24.5216 26.0848C23.8532 26.7532 23.519 27.5648 23.519 28.5197C23.519 29.4746 23.8532 30.2862 24.5216 30.9546C25.19 31.623 26.0017 31.9572 26.9565 31.9572ZM26.9565 38.8322C28.1788 38.8322 29.2769 38.5648 30.2508 38.0301C31.2248 37.4954 32.0364 36.7697 32.6857 35.853C31.8072 35.3183 30.8906 34.9173 29.9357 34.6499C28.9808 34.3825 27.9878 34.2489 26.9565 34.2489C25.9253 34.2489 24.9322 34.3825 23.9774 34.6499C23.0225 34.9173 22.1058 35.3183 21.2274 35.853C21.8767 36.7697 22.6883 37.4954 23.6623 38.0301C24.6362 38.5648 25.7343 38.8322 26.9565 38.8322ZM15.4982 40.3218C11.1058 38.9468 7.44873 36.235 4.52685 32.1864C1.60498 28.1377 0.144043 23.5544 0.144043 18.4364V6.51969L15.4982 0.790527L30.8524 6.51969V19.4676C30.6232 19.3912 30.3558 19.3244 30.0503 19.2671C29.7447 19.2098 29.4774 19.143 29.2482 19.0666V7.60824L15.4982 2.50928L1.74821 7.60824V18.4364C1.74821 20.8426 2.11106 23.1247 2.83675 25.2827C3.56245 27.4407 4.54595 29.4077 5.78727 31.1838C7.02859 32.9598 8.48953 34.4876 10.1701 35.7671C11.8506 37.0466 13.6267 37.9919 15.4982 38.603L15.6701 38.5457C15.7847 38.7749 15.9183 39.0041 16.0711 39.2332C16.2239 39.4624 16.3958 39.6916 16.5868 39.9207C16.3958 39.9971 16.2144 40.064 16.0425 40.1213C15.8706 40.1785 15.6892 40.2454 15.4982 40.3218ZM26.9565 40.4364C24.5885 40.4364 22.5833 39.6152 20.9409 37.9728C19.2986 36.3305 18.4774 34.3252 18.4774 31.9572C18.4774 29.5891 19.2986 27.5839 20.9409 25.9416C22.5833 24.2992 24.5885 23.478 26.9565 23.478C29.3246 23.478 31.3298 24.2992 32.9722 25.9416C34.6145 27.5839 35.4357 29.5891 35.4357 31.9572C35.4357 34.3252 34.6145 36.3305 32.9722 37.9728C31.3298 39.6152 29.3246 40.4364 26.9565 40.4364Z" fill="white"/>
</svg>
