<svg width="40" height="40" viewBox="0 0 40 40" fill="none" xmlns="http://www.w3.org/2000/svg">
<path d="M11.8906 9.09232H11.6719C8.58095 9.09232 6.0752 11.5981 6.0752 14.6891L6.0752 29.4032C6.0752 32.4942 8.58095 35 11.6719 35L24.1676 35C26.1898 35 27.8291 33.3607 27.8291 31.3384M34.2907 16.2H29.7643C26.6733 16.2 24.1676 13.6943 24.1676 10.6033L24.1676 6.07693M29.5555 31.3384H17.7027C14.6117 31.3384 12.106 28.8327 12.106 25.7417L12.106 10.5967C12.106 7.50575 14.6117 5 17.7027 5L21.8493 5C23.3337 5 24.7572 5.58966 25.8068 6.63925L33.513 14.3454C34.5626 15.395 35.1522 16.8186 35.1522 18.3029L35.1522 25.7417C35.1522 28.8327 32.6465 31.3384 29.5555 31.3384Z" stroke="url(#paint0_linear_6100_46749)" stroke-width="0.6" stroke-linecap="round" stroke-linejoin="round"/>
<defs>
<linearGradient id="paint0_linear_6100_46749" x1="9.20279" y1="43.1896" x2="28.6268" y2="5" gradientUnits="userSpaceOnUse">
<stop offset="0.185" stop-color="#20A3A5"/>
<stop offset="1" stop-color="#003D4E"/>
</linearGradient>
</defs>
</svg>
