<svg width="28" height="18" viewBox="0 0 28 18" fill="none" xmlns="http://www.w3.org/2000/svg">
<path fill-rule="evenodd" clip-rule="evenodd" d="M15.2308 14.7615C14.8572 15.4793 13.8302 15.4793 13.4567 14.7615L11.1224 10.2767C10.3611 8.81378 10.3611 7.01146 11.1224 5.5486L13.4567 1.06371C13.8302 0.345947 14.8572 0.345946 15.2308 1.06371L17.565 5.5486C18.3264 7.01146 18.3264 8.81378 17.565 10.2767L15.2308 14.7615Z" fill="url(#paint0_linear_412_8221)"/>
<path fill-rule="evenodd" clip-rule="evenodd" d="M16.9489 17.0798C16.1986 17.0797 15.7156 16.284 16.0619 15.6183L18.5217 10.8896C19.2829 9.42652 20.6896 8.52536 22.212 8.52552L27.0061 8.52612C27.7565 8.52621 28.2394 9.32194 27.8931 9.98761L25.4333 14.7163C24.6722 16.1794 23.2655 17.0806 21.743 17.0804L16.9489 17.0798Z" fill="url(#paint0_linear_412_8221)"/>
<path fill-rule="evenodd" clip-rule="evenodd" d="M0.794325 9.98747C0.448052 9.3218 0.931001 8.52608 1.68134 8.52598L6.47545 8.52537C7.99791 8.52522 9.40463 9.42639 10.1657 10.8894L12.6256 15.6182C12.9719 16.2838 12.4889 17.0795 11.7386 17.0796L6.94443 17.0802C5.42198 17.0804 4.01527 16.1793 3.25417 14.7162L0.794325 9.98747Z" fill="url(#paint0_linear_412_8221)"/>
<defs>
<linearGradient id="paint0_linear_412_8221" x1="14.3437" y1="-0.640625" x2="14.4115" y2="21.0187" gradientUnits="userSpaceOnUse">
<stop stop-color="#078EDA"/>
<stop offset="1" stop-color="#02131E"/>
</linearGradient>
</defs>
</svg>
