<svg width="15" height="15" viewBox="0 0 15 15" fill="none" xmlns="http://www.w3.org/2000/svg">
<path d="M1.35283 14.5003C0.98183 14.5003 0.663608 14.3647 0.398165 14.0934C0.132722 13.8221 0 13.4958 0 13.1146C0 12.7173 0.133427 12.3897 0.40028 12.1319C0.667118 11.8742 0.988027 11.7453 1.36301 11.7453C1.75382 11.7453 2.076 11.8752 2.32956 12.1351C2.58312 12.395 2.7099 12.725 2.7099 13.1249C2.7099 13.5021 2.58207 13.8257 2.32642 14.0955C2.07077 14.3654 1.74624 14.5003 1.35283 14.5003ZM9.07842 14.5003C8.69157 14.5003 8.36938 14.3647 8.11186 14.0934C7.85434 13.8221 7.72558 13.4958 7.72558 13.1146C7.72558 12.7173 7.85505 12.3897 8.11398 12.1319C8.37289 11.8742 8.69776 11.7453 9.08859 11.7453C9.46355 11.7453 9.78178 11.8752 10.0433 12.1351C10.3047 12.395 10.4355 12.725 10.4355 13.1249C10.4355 13.5021 10.3037 13.8257 10.0401 14.0955C9.77653 14.3654 9.45596 14.5003 9.07842 14.5003ZM5.20374 10.5852C4.81689 10.5852 4.49471 10.4536 4.23719 10.1904C3.97967 9.92714 3.85091 9.59685 3.85091 9.19951C3.85091 8.8183 3.98037 8.49477 4.2393 8.22893C4.49821 7.9631 4.82309 7.83018 5.21391 7.83018C5.58888 7.83018 5.9071 7.96416 6.16858 8.23212C6.43006 8.50009 6.5608 8.826 6.5608 9.20986C6.5608 9.60315 6.42902 9.93071 6.16544 10.1925C5.90187 10.4543 5.5813 10.5852 5.20374 10.5852ZM12.9056 10.5852C12.5346 10.5852 12.2163 10.4536 11.9509 10.1904C11.6854 9.92714 11.5527 9.59685 11.5527 9.19951C11.5527 8.8183 11.6861 8.49477 11.953 8.22893C12.2198 7.9631 12.5407 7.83018 12.9157 7.83018C13.3065 7.83018 13.6287 7.96416 13.8823 8.23212C14.1358 8.50009 14.2626 8.826 14.2626 9.20986C14.2626 9.60315 14.1348 9.93071 13.8791 10.1925C13.6235 10.4543 13.2989 10.5852 12.9056 10.5852ZM1.35283 6.64598C0.98183 6.64598 0.663608 6.51436 0.398165 6.25111C0.132722 5.98789 0 5.6576 0 5.26026C0 4.87905 0.133427 4.55552 0.40028 4.28968C0.667118 4.02384 0.988027 3.89092 1.36301 3.89092C1.75382 3.89092 2.076 4.0249 2.32956 4.29287C2.58312 4.56085 2.7099 4.88676 2.7099 5.2706C2.7099 5.6639 2.58207 5.99145 2.32642 6.25327C2.07077 6.51508 1.74624 6.64598 1.35283 6.64598ZM9.07842 6.64598C8.69157 6.64598 8.36938 6.51436 8.11186 6.25111C7.85434 5.98789 7.72558 5.6576 7.72558 5.26026C7.72558 4.87905 7.85505 4.55552 8.11398 4.28968C8.37289 4.02384 8.69776 3.89092 9.08859 3.89092C9.46355 3.89092 9.78178 4.0249 10.0433 4.29287C10.3047 4.56085 10.4355 4.88676 10.4355 5.2706C10.4355 5.6639 10.3037 5.99145 10.0401 6.25327C9.77653 6.51508 9.45596 6.64598 9.07842 6.64598ZM5.20374 2.75506C4.81689 2.75506 4.49471 2.61941 4.23719 2.34811C3.97967 2.07683 3.85091 1.75057 3.85091 1.36934C3.85091 0.972013 3.98037 0.644459 4.2393 0.386675C4.49821 0.128892 4.82309 0 5.21391 0C5.58888 0 5.9071 0.129956 6.16858 0.389866C6.43006 0.649792 6.5608 0.97973 6.5608 1.37968C6.5608 1.75687 6.42902 2.08039 6.16544 2.35026C5.90187 2.62013 5.5813 2.75506 5.20374 2.75506ZM12.9056 2.75506C12.5346 2.75506 12.2163 2.61941 11.9509 2.34811C11.6854 2.07683 11.5527 1.75057 11.5527 1.36934C11.5527 0.972013 11.6861 0.644459 11.953 0.386675C12.2198 0.128892 12.5407 0 12.9157 0C13.3065 0 13.6287 0.129956 13.8823 0.389866C14.1358 0.649792 14.2626 0.97973 14.2626 1.37968C14.2626 1.75687 14.1348 2.08039 13.8791 2.35026C13.6235 2.62013 13.2989 2.75506 12.9056 2.75506Z" />
</svg>
