<svg width="63" height="82" viewBox="0 0 63 82" fill="none" xmlns="http://www.w3.org/2000/svg">
<path d="M1 2C1 1.44772 1.44772 1 2 1H48.6592C48.9282 1 49.1859 1.10839 49.374 1.30069L61.7148 13.9151C61.8976 14.102 62 14.353 62 14.6144V76C62 76.5523 61.5523 77 61 77H31.5H2C1.44772 77 1 76.5523 1 76V2Z"  stroke="black"  stroke-width="0.3"/>
<path d="M5 79H58V80C58 80.5523 57.5523 81 57 81H6C5.44771 81 5 80.5523 5 80V79Z" fill="white" stroke="black"  stroke-width="0.3"/>
<path d="M3 77H61V78C61 78.5523 60.5523 79 60 79H4C3.44771 79 3 78.5523 3 78V77Z" fill="white" stroke="black" stroke-width="0.3"/>
</svg>
