<svg width="19" height="20" viewBox="0 0 19 20" fill="none" xmlns="http://www.w3.org/2000/svg">
<path d="M2.08104 19.2483C1.58278 19.2483 1.16818 19.0764 0.837234 18.7327C0.506291 18.3889 0.34082 17.9711 0.34082 17.4791V2.51751C0.34082 2.02553 0.506291 1.60767 0.837234 1.26392C1.16818 0.920166 1.58278 0.748291 2.08104 0.748291H16.7973C17.2956 0.748291 17.7102 0.920166 18.0411 1.26392C18.3721 1.60767 18.5375 2.02553 18.5375 2.51751V17.4791C18.5375 17.9711 18.3721 18.3889 18.0411 18.7327C17.7102 19.0764 17.2956 19.2483 16.7973 19.2483H2.08104ZM2.08104 18.2483H16.7973C16.9865 18.2483 17.1599 18.1682 17.3175 18.0079C17.4751 17.8476 17.5539 17.6714 17.5539 17.4791V2.51751C17.5539 2.32522 17.4751 2.14894 17.3175 1.98867C17.1599 1.82842 16.9865 1.74829 16.7973 1.74829H2.08104C1.8919 1.74829 1.7185 1.82842 1.56086 1.98867C1.40324 2.14894 1.32443 2.32522 1.32443 2.51751V17.4791C1.32443 17.6714 1.40324 17.8476 1.56086 18.0079C1.7185 18.1682 1.8919 18.2483 2.08104 18.2483ZM4.6441 15.3733H14.4234L11.1321 10.9118L8.28535 14.5464L6.68696 12.6521L4.6441 15.3733Z" />
</svg>
