<svg width="21" height="20" viewBox="0 0 21 20" fill="none" xmlns="http://www.w3.org/2000/svg">
<path d="M5.67448 18.3359C4.85745 18.3359 4.08935 18.0174 3.51175 17.4398L2.89352 16.8224C1.70118 15.6301 1.70118 13.6893 2.89352 12.4974L6.90963 8.48131C7.48723 7.90371 8.25533 7.58521 9.07236 7.58521C9.88938 7.58521 10.6575 7.90371 11.2346 8.48131L11.8524 9.09911C12.0233 9.26994 12.0233 9.54607 11.8524 9.7169C11.6816 9.88774 11.4055 9.88774 11.2346 9.7169L10.6168 9.09911C10.2044 8.68666 9.65564 8.45903 9.07236 8.45903C8.48864 8.45903 7.93987 8.68666 7.52743 9.09911L3.51132 13.1148C2.65977 13.9663 2.65977 15.3522 3.51132 16.2042L4.12911 16.822C4.54156 17.2344 5.09032 17.4621 5.67404 17.4621C6.25732 17.4621 6.80608 17.2344 7.21853 16.822L9.99949 14.0415C10.1703 13.8706 10.4464 13.8706 10.6173 14.0415C10.7881 14.2123 10.7881 14.4884 10.6173 14.6593L7.83676 17.4398C7.2596 18.0178 6.49151 18.3359 5.67448 18.3359Z" fill="var(--iconColor)"/>
<path d="M10.9264 13.0835C10.1098 13.0835 9.34127 12.765 8.76411 12.1874C8.59328 12.0165 8.59328 11.7404 8.76411 11.5696C8.93494 11.3987 9.21107 11.3987 9.38191 11.5696C9.79435 11.982 10.3431 12.2097 10.9264 12.2097C11.5101 12.2097 12.0589 11.982 12.4713 11.5696L16.4874 7.55348C17.339 6.70194 17.339 5.31605 16.4874 4.46451L15.8701 3.84584C15.0185 2.99429 13.6322 2.99429 12.7807 3.84584L9.9997 6.62679C9.82887 6.79762 9.55274 6.79762 9.38191 6.62679C9.21107 6.45596 9.21107 6.17983 9.38191 6.00899L12.1624 3.22848C13.3548 2.03614 15.2951 2.03614 16.4874 3.22848L17.1052 3.84671C18.2976 5.03905 18.2976 6.97938 17.1052 8.17127L13.0891 12.1874C12.512 12.765 11.7434 13.0835 10.9264 13.0835Z" fill="var(--iconColor)"/>
<path d="M8.66577 4.00041V0.33374" stroke="var(--iconColor)" stroke-width="0.533333" stroke-linejoin="round"/>
<path d="M0.665771 7.00041L4.66577 7.33374" stroke="var(--iconColor)" stroke-width="0.533333" stroke-linejoin="round"/>
<path d="M6.3326 5.00024L5.16593 4.00024L3.99927 3.00024" stroke="var(--iconColor)" stroke-width="0.533333" stroke-linejoin="round"/>
<path d="M11.9993 15.6671V19.3337" stroke="var(--iconColor)" stroke-width="0.533333" stroke-linejoin="round"/>
<path d="M19.9993 12.6671L15.9993 12.3337" stroke="var(--iconColor)" stroke-width="0.533333" stroke-linejoin="round"/>
<path d="M14.3324 14.6672L15.4991 15.6672L16.6658 16.6672" stroke="var(--iconColor)" stroke-width="0.533333" stroke-linejoin="round"/>
</svg>
