<svg width="21" height="24" viewBox="0 0 21 24" fill="none" xmlns="http://www.w3.org/2000/svg">
<path d="M2.09982 23.7662C1.56982 23.7662 1.12621 23.5875 0.768988 23.2303C0.411765 22.8731 0.233154 22.4295 0.233154 21.8995V2.43283C0.233154 1.90283 0.411765 1.45922 0.768988 1.102C1.12621 0.744774 1.56982 0.566162 2.09982 0.566162H12.6998L18.0998 5.96616V10.5773H17.2998V6.43283H12.2332V1.36616H2.09982C1.83315 1.36616 1.58871 1.47727 1.36649 1.6995C1.14427 1.92172 1.03315 2.16616 1.03315 2.43283V21.8995C1.03315 22.1662 1.14427 22.4106 1.36649 22.6328C1.58871 22.8551 1.83315 22.9662 2.09982 22.9662H8.16649V23.7662H2.09982ZM16.1221 15.7106L16.6998 16.2328L11.4998 21.4328V22.8995H12.9665L18.1443 17.6995L18.7221 18.2773L13.2998 23.6995H10.6998V21.1328L16.1221 15.7106ZM18.7221 18.2773L16.1221 15.7106L17.5776 14.2551C17.7628 14.0773 17.9824 13.9884 18.2365 13.9884C18.4906 13.9884 18.708 14.0773 18.8887 14.2551L20.1776 15.5439C20.3554 15.7247 20.4443 15.9421 20.4443 16.1962C20.4443 16.4502 20.3554 16.6699 20.1776 16.8551L18.7221 18.2773Z" />
</svg>
