<svg width="23" height="17" viewBox="0 0 23 17" fill="none" xmlns="http://www.w3.org/2000/svg">
<path fill-rule="evenodd" clip-rule="evenodd" d="M1 0.2H0.2V1V16V16.8H1H21.7141H22.5141V16V1V0.2H21.7141H1ZM1 1H1.8H20.9142H21.7141V1.8V15.2V16H20.9142H1.8H1V15.2V1.8V1ZM7.73191 8.17882H8.90211V8.67882H7.73191C7.78521 9.47363 8.09083 10.199 8.56965 10.7761L9.45449 10.024L9.7783 10.405L8.91475 11.139C9.51241 11.6879 10.2916 12.0413 11.1521 12.099V10.9288H11.6521V12.099C12.5126 12.0413 13.2918 11.6879 13.8894 11.139L13.0259 10.405L13.3497 10.024L14.2345 10.7761C14.7134 10.199 15.019 9.47363 15.0723 8.67882H13.9021V8.17882H15.0723C15.0146 7.31835 14.6611 6.53911 14.1123 5.94146L13.3783 6.80501L12.9973 6.48119L13.7494 5.59635C13.1123 5.06776 12.2945 4.75024 11.4021 4.75024C9.45451 4.75024 7.86043 6.26379 7.73191 8.17882ZM7.22355 8.42882C7.22355 6.12106 9.09435 4.25024 11.4021 4.25024C12.5124 4.25024 13.522 4.68359 14.2701 5.38989C15.0767 6.15141 15.5806 7.23146 15.5806 8.42882C15.5806 9.53909 15.1473 10.5487 14.441 11.2968C13.6795 12.1035 12.5994 12.6074 11.4021 12.6074C10.2048 12.6074 9.1247 12.1035 8.36319 11.2968C7.6569 10.5487 7.22355 9.53909 7.22355 8.42882ZM11.1521 5.92882V4.85739H11.6521V5.92882H11.1521ZM9.43962 6.81988L8.72534 6.10559L9.07889 5.75204L9.79317 6.46633L9.43962 6.81988ZM11.4015 6.89299C10.5534 6.89299 9.8658 7.58055 9.8658 8.4287C9.8658 9.27685 10.5534 9.96441 11.4015 9.96441C12.2497 9.96441 12.9372 9.27685 12.9372 8.4287C12.9372 7.58055 12.2497 6.89299 11.4015 6.89299ZM9.3658 8.4287C9.3658 7.30441 10.2772 6.39299 11.4015 6.39299C12.5258 6.39299 13.4372 7.30441 13.4372 8.4287C13.4372 9.55299 12.5258 10.4644 11.4015 10.4644C10.2772 10.4644 9.3658 9.55299 9.3658 8.4287Z" />
</svg>
