<svg width="24" height="17" viewBox="0 0 24 17" fill="none" xmlns="http://www.w3.org/2000/svg">
<path d="M1.93258 16.6C1.39925 16.6 0.954807 16.4222 0.599251 16.0667C0.243696 15.7111 0.065918 15.2667 0.065918 14.7333V1.93332C0.065918 1.39998 0.243696 0.955539 0.599251 0.599984C0.954807 0.244428 1.39925 0.0666504 1.93258 0.0666504H10.4659L11.6659 1.26665H21.3993C21.9326 1.26665 22.377 1.44443 22.7326 1.79998C23.0881 2.15554 23.2659 2.59998 23.2659 3.13332V14.7333C23.2659 15.2667 23.0881 15.7111 22.7326 16.0667C22.377 16.4222 21.9326 16.6 21.3993 16.6H1.93258ZM16.9993 15.8H21.3993C21.7104 15.8 21.9659 15.7 22.1659 15.5C22.3659 15.3 22.4659 15.0444 22.4659 14.7333V3.13332C22.4659 2.82221 22.3659 2.56665 22.1659 2.36665C21.9659 2.16665 21.7104 2.06665 21.3993 2.06665H16.9993V4.82222H19.7548V7.56295H16.9993V10.3037H19.7548V13.0444H16.9993V15.8ZM1.93258 15.8H14.2437V13.0444H16.9993V10.3037H14.2437V7.56295H16.9993V4.82222H14.2437V2.06665H11.3437L10.1437 0.86665H1.93258C1.62147 0.86665 1.36592 0.96665 1.16592 1.16665C0.965918 1.36665 0.865918 1.62221 0.865918 1.93332V14.7333C0.865918 15.0444 0.965918 15.3 1.16592 15.5C1.36592 15.7 1.62147 15.8 1.93258 15.8Z" />
</svg>
