<svg width="31" height="31" viewBox="0 0 31 31" fill="none" xmlns="http://www.w3.org/2000/svg">
<path d="M3.46649 30.55C2.65599 30.55 1.98158 30.275 1.44324 29.725C0.904909 29.175 0.635742 28.5064 0.635742 27.7192V3.7807C0.635742 2.99353 0.904909 2.32495 1.44324 1.77495C1.98158 1.22495 2.65599 0.949951 3.46649 0.949951H27.405C28.2155 0.949951 28.8899 1.22495 29.4282 1.77495C29.9666 2.32495 30.2357 2.99353 30.2357 3.7807V27.7192C30.2357 28.5064 29.9666 29.175 29.4282 29.725C28.8899 30.275 28.2155 30.55 27.405 30.55H3.46649ZM3.46649 28.95H27.405C27.7127 28.95 27.9947 28.8218 28.2511 28.5653C28.5075 28.3089 28.6357 28.0269 28.6357 27.7192V3.7807C28.6357 3.47303 28.5075 3.19099 28.2511 2.93455C27.9947 2.67815 27.7127 2.54995 27.405 2.54995H3.46649C3.15883 2.54995 2.87678 2.67815 2.62034 2.93455C2.36394 3.19099 2.23574 3.47303 2.23574 3.7807V27.7192C2.23574 28.0269 2.36394 28.3089 2.62034 28.5653C2.87678 28.8218 3.15883 28.95 3.46649 28.95ZM7.63574 24.35H23.5434L18.1896 17.2115L13.5588 23.0269L10.9588 19.9961L7.63574 24.35Z" fill="#FFF"/>
</svg>
