<svg width="31" height="29" viewBox="0 0 31 29" fill="none" xmlns="http://www.w3.org/2000/svg">
<path d="M8.51233 27.0032C7.28678 27.0032 6.13464 26.5254 5.26824 25.6591L4.34089 24.733C2.55239 22.9445 2.55239 20.0334 4.34089 18.2455L10.3651 12.2214C11.2315 11.355 12.3836 10.8772 13.6091 10.8772C14.8347 10.8772 15.9868 11.355 16.8526 12.2214L17.7793 13.1481C18.0355 13.4043 18.0355 13.8185 17.7793 14.0747C17.523 14.331 17.1088 14.331 16.8526 14.0747L15.9259 13.1481C15.3072 12.5294 14.4841 12.1879 13.6091 12.1879C12.7336 12.1879 11.9104 12.5294 11.2918 13.1481L5.26759 19.1716C3.99027 20.4489 3.99027 22.5277 5.26759 23.8057L6.19428 24.7324C6.81295 25.351 7.6361 25.6925 8.51167 25.6925C9.38659 25.6925 10.2097 25.351 10.8284 24.7324L14.9998 20.5616C15.2561 20.3053 15.6703 20.3053 15.9265 20.5616C16.1828 20.8178 16.1828 21.232 15.9265 21.4883L11.7558 25.6591C10.89 26.5261 9.73787 27.0032 8.51233 27.0032Z" fill="#FFF"/>
<path d="M16.39 19.1249C15.1651 19.1249 14.0123 18.6471 13.1465 17.7807C12.8903 17.5245 12.8903 17.1103 13.1465 16.854C13.4028 16.5978 13.817 16.5978 14.0732 16.854C14.6919 17.4727 15.515 17.8141 16.39 17.8141C17.2655 17.8141 18.0887 17.4727 18.7074 16.854L24.7315 10.8299C26.0088 9.55254 26.0088 7.47371 24.7315 6.19639L23.8055 5.26839C22.5282 3.99108 20.4487 3.99108 19.1714 5.26839L14.9999 9.43982C14.7437 9.69607 14.3295 9.69607 14.0732 9.43982C13.817 9.18357 13.817 8.76937 14.0732 8.51312L18.244 4.34235C20.0325 2.55385 22.943 2.55385 24.7315 4.34235L25.6582 5.2697C27.4467 7.0582 27.4467 9.9687 25.6582 11.7565L19.634 17.7807C18.7683 18.6471 17.6155 19.1249 16.39 19.1249Z" fill="#FFF"/>
<path d="M13 5.5V0" stroke="#FFF" stroke-width="0.8" stroke-linejoin="round"/>
<path d="M1 10L7 10.5" stroke="#FFF" stroke-width="0.8" stroke-linejoin="round"/>
<path d="M9.5 7L7.75 5.5L6 4" stroke="#FFF" stroke-width="0.8" stroke-linejoin="round"/>
<path d="M18 23V28.5" stroke="#FFF" stroke-width="0.8" stroke-linejoin="round"/>
<path d="M30 18.5L24 18" stroke="#FFF" stroke-width="0.8" stroke-linejoin="round"/>
<path d="M21.5 21.5L23.25 23L25 24.5" stroke="#FFF" stroke-width="0.8" stroke-linejoin="round"/>
</svg>
