<svg width="24" height="24" viewBox="0 0 24 24" fill="none" xmlns="http://www.w3.org/2000/svg">
<path d="M11.231 12.769H0.769C0.551334 12.769 0.368667 12.6943 0.221 12.545C0.0736666 12.3953 0 12.21 0 11.989C0 11.768 0.0736666 11.5863 0.221 11.444C0.368667 11.302 0.551334 11.231 0.769 11.231H11.231V0.769C11.231 0.551334 11.3057 0.368666 11.455 0.220999C11.6047 0.0736658 11.79 0 12.011 0C12.232 0 12.4137 0.0736658 12.556 0.220999C12.698 0.368666 12.769 0.551334 12.769 0.769V11.231H23.231C23.4487 11.231 23.6313 11.3057 23.779 11.455C23.9263 11.6047 24 11.79 24 12.011C24 12.232 23.9263 12.4137 23.779 12.556C23.6313 12.698 23.4487 12.769 23.231 12.769H12.769V23.231C12.769 23.4487 12.6943 23.6313 12.545 23.779C12.3953 23.9263 12.21 24 11.989 24C11.768 24 11.5863 23.9263 11.444 23.779C11.302 23.6313 11.231 23.4487 11.231 23.231V12.769Z" fill="currentColor"/>
</svg>
