<svg width="40" height="40" viewBox="0 0 40 40" fill="none" xmlns="http://www.w3.org/2000/svg">
<path d="M6.28577 16.2222C6.28577 12.7858 9.07155 10 12.508 10H28.0635C31.5 10 34.2858 12.7858 34.2858 16.2222V23.3778C34.2858 26.8142 31.5 29.6 28.0635 29.6H12.508C9.07155 29.6 6.28577 26.8142 6.28577 23.3778V16.2222Z" stroke="white" stroke-width="0.6"/>
<path d="M24.3303 19.8C24.3303 21.9478 22.5892 23.6889 20.4414 23.6889C18.2937 23.6889 16.5525 21.9478 16.5525 19.8C16.5525 17.6522 18.2937 15.9111 20.4414 15.9111C22.5892 15.9111 24.3303 17.6522 24.3303 19.8Z" stroke="white" stroke-width="0.6"/>
<path d="M25.5747 14.2C25.5747 13.5986 26.0622 13.1111 26.6635 13.1111H29.7747C30.376 13.1111 30.8635 13.5986 30.8635 14.2C30.8635 14.8014 30.376 15.2889 29.7747 15.2889H26.6635C26.0622 15.2889 25.5747 14.8014 25.5747 14.2Z" stroke="white" stroke-width="0.6"/>
</svg>
