<svg width="26" height="30" viewBox="0 0 26 30" fill="none" xmlns="http://www.w3.org/2000/svg">
<path d="M18.1535 30C17.7515 30 17.3951 29.8136 17.0844 29.4408C16.7738 29.068 16.6184 28.6403 16.6184 28.1579V1.84211C16.6184 1.35965 16.7738 0.932018 17.0844 0.55921C17.3951 0.186404 17.7515 0 18.1535 0H23.9649C24.367 0 24.7233 0.186404 25.034 0.55921C25.3447 0.932018 25.5 1.35965 25.5 1.84211V28.1579C25.5 28.6403 25.3447 29.068 25.034 29.4408C24.7233 29.8136 24.367 30 23.9649 30H18.1535ZM2.03509 30C1.63304 30 1.27668 29.8136 0.966009 29.4408C0.655336 29.068 0.5 28.6403 0.5 28.1579V1.84211C0.5 1.35965 0.655336 0.932018 0.966009 0.55921C1.27668 0.186404 1.63304 0 2.03509 0H7.84649C8.24854 0 8.6049 0.186404 8.91557 0.55921C9.22624 0.932018 9.38158 1.35965 9.38158 1.84211V28.1579C9.38158 28.6403 9.22624 29.068 8.91557 29.4408C8.6049 29.8136 8.24854 30 7.84649 30H2.03509ZM18.1535 28.1579H23.9649V1.84211H18.1535V15V28.1579ZM2.03509 28.1579H7.84649V1.84211H2.03509V28.1579Z" fill="white"/>
</svg>
