<svg width="95" height="45" viewBox="0 0 95 45" fill="none" xmlns="http://www.w3.org/2000/svg">
    <rect width="95" height="45" rx="10" fill="url(#paint0_linear_1582_300)"/>
    <path d="M30.9395 29.5L35.7344 22.4395V22.3711L30.998 15.4082H33.1172L36.877 21.0723H36.9453L40.7539 15.4082H42.7559L37.8926 22.459V22.5176L42.6484 29.5H40.5391L36.7988 23.8848H36.7305L32.9316 29.5H30.9395ZM47.9316 29.5V17.2734H47.8926L44.1621 19.959V18.1035L47.9121 15.4082H49.6309V29.5H47.9316ZM58.1367 29.7344C54.8457 29.7344 52.9414 26.9023 52.9414 22.4492C52.9414 18.0352 54.8652 15.1738 58.1367 15.1738C61.4082 15.1738 63.3125 18.0156 63.3125 22.4395C63.3125 26.8926 61.418 29.7344 58.1367 29.7344ZM58.1367 28.2012C60.334 28.2012 61.5449 25.9648 61.5449 22.4492C61.5449 18.9824 60.3145 16.7168 58.1367 16.7168C55.959 16.7168 54.709 19.002 54.709 22.4395C54.709 25.9551 55.9297 28.2012 58.1367 28.2012Z" fill="#1A1A1A"/>
    <defs>
        <linearGradient id="paint0_linear_1582_300" x1="0" y1="22.5" x2="95" y2="22.5" gradientUnits="userSpaceOnUse">
            <stop stop-color="#F77062"/>
            <stop offset="1" stop-color="#FE5196"/>
        </linearGradient>
    </defs>
</svg>
