<svg width="95" height="45" viewBox="0 0 95 45" fill="none" xmlns="http://www.w3.org/2000/svg">
    <rect width="95" height="45" rx="10" fill="url(#paint0_linear_1582_277)"/>
    <path d="M35.4395 29.5L40.2344 22.4395V22.3711L35.498 15.4082H37.6172L41.377 21.0723H41.4453L45.2539 15.4082H47.2559L42.3926 22.459V22.5176L47.1484 29.5H45.0391L41.2988 23.8848H41.2305L37.4316 29.5H35.4395ZM51.709 22.9961V21.5117H53.3984C55.0195 21.5117 56.1523 20.4668 56.1523 19.041C56.1523 17.6445 55.2051 16.6973 53.418 16.6973C51.7969 16.6973 50.7227 17.625 50.5664 19.0996H48.877C49.0723 16.707 50.8496 15.1738 53.4961 15.1738C56.0156 15.1738 57.9199 16.6875 57.9199 18.8066C57.9199 20.5742 56.7871 21.8438 55.0293 22.1562V22.1953C57.1582 22.3223 58.5254 23.6406 58.5254 25.623C58.5254 28.0449 56.3184 29.7344 53.5547 29.7344C50.6055 29.7344 48.7207 28.1035 48.5938 25.7695H50.2832C50.4395 27.2148 51.6406 28.2109 53.5352 28.2109C55.4004 28.2109 56.7383 27.1562 56.7383 25.6816C56.7383 24.0215 55.4883 22.9961 53.4766 22.9961H51.709Z" fill="#151517"/>
    <defs>
        <linearGradient id="paint0_linear_1582_277" x1="0" y1="22.5" x2="95" y2="22.5" gradientUnits="userSpaceOnUse">
            <stop stop-color="#209CFF"/>
            <stop offset="1" stop-color="#68E0CF"/>
        </linearGradient>
    </defs>
</svg>
