<svg width="95" height="45" viewBox="0 0 95 45" fill="none" xmlns="http://www.w3.org/2000/svg">
    <rect width="95" height="45" rx="10" fill="url(#paint0_linear_1582_289)"/>
    <path d="M35.4395 29.5L40.2344 22.4395V22.3711L35.498 15.4082H37.6172L41.377 21.0723H41.4453L45.2539 15.4082H47.2559L42.3926 22.459V22.5176L47.1484 29.5H45.0391L41.2988 23.8848H41.2305L37.4316 29.5H35.4395ZM53.6816 29.7344C50.9863 29.7344 48.9941 28.0547 48.8477 25.6523H50.5762C50.7324 27.1562 52.0117 28.1914 53.7012 28.1914C55.6152 28.1914 56.9434 26.8633 56.9434 24.9688C56.9434 23.0742 55.6055 21.7168 53.7305 21.7168C52.4121 21.7168 51.2891 22.3125 50.7129 23.2988H49.0625L49.834 15.4082H57.9004V16.9707H51.2793L50.8496 21.5605H50.8887C51.5234 20.7109 52.6953 20.2031 54.043 20.2031C56.748 20.2031 58.7012 22.1855 58.7012 24.9199C58.7012 27.752 56.6211 29.7344 53.6816 29.7344Z" fill="#151517"/>
    <defs>
        <linearGradient id="paint0_linear_1582_289" x1="0" y1="22.5" x2="95" y2="22.5" gradientUnits="userSpaceOnUse">
            <stop stop-color="#FA709A"/>
            <stop offset="1" stop-color="#FEE140"/>
        </linearGradient>
    </defs>
</svg>
