<svg width="18" height="14" viewBox="0 0 18 14" fill="none" xmlns="http://www.w3.org/2000/svg">
<path d="M0.805411 1.67646C0.805468 1.17538 1.34855 0.862798 1.78185 1.11445L6.10088 3.62284C6.10089 3.62284 6.10089 3.62284 6.10089 3.62284C7.36826 4.35896 8.14996 5.72022 8.14981 7.19463L8.14925 12.2205C8.1492 12.7216 7.60611 13.0342 7.17281 12.7825L2.85376 10.2741L2.67798 10.5768L2.85375 10.2741C1.58638 9.53804 0.804675 8.17678 0.804834 6.70231L0.805411 1.67646ZM16.3705 1.11446C16.8039 0.862812 17.3469 1.17539 17.347 1.67647L17.3476 6.70233C17.3477 8.17677 16.566 9.53804 15.2986 10.2741L10.9796 12.7825C10.5463 13.0342 10.0032 12.7216 10.0031 12.2205L10.0026 7.19464C10.0024 5.72021 10.7841 4.35895 12.0515 3.62286L16.3705 1.11446Z" />
</svg>
