<svg width="18" height="13" viewBox="0 0 18 13" fill="none" xmlns="http://www.w3.org/2000/svg">
<path fill-rule="evenodd" clip-rule="evenodd" d="M0.74178 1.05312C0.741866 0.272704 1.59601 -0.20685 2.26234 0.199405L6.47238 2.7662C7.8268 3.59203 8.66105 5.11833 8.6609 6.77019L8.66035 11.9784C8.66026 12.7589 7.80612 13.2384 7.13978 12.8321L2.92973 10.2653C1.5753 9.43956 0.741042 7.91326 0.741211 6.26133L0.74178 1.05312Z" fill="url(#paint0_linear_412_8219)"/>
<path fill-rule="evenodd" clip-rule="evenodd" d="M16.1943 0.199421C16.8606 -0.206834 17.7148 0.272718 17.7148 1.05313L17.7154 6.26135C17.7155 7.91325 16.8813 9.43955 15.5269 10.2653L11.3168 12.8322C10.6505 13.2384 9.79636 12.7589 9.79628 11.9784L9.79572 6.7702C9.79553 5.11832 10.6298 3.59202 11.9842 2.76621L16.1943 0.199421Z" fill="url(#paint0_linear_412_8219)"/>
<defs>
<linearGradient id="paint0_linear_412_8219" x1="9.22831" y1="-0.727539" x2="9.30463" y2="16.9785" gradientUnits="userSpaceOnUse">
<stop stop-color="#078EDA"/>
<stop offset="1" stop-color="#02131E"/>
</linearGradient>
</defs>
</svg>
