<svg width="29" height="18" viewBox="0 0 29 18" fill="none" xmlns="http://www.w3.org/2000/svg">
<path d="M25.4902 6.17336L25.7949 6.34553L25.4902 6.17336C24.7779 7.43395 23.4642 8.20657 22.0463 8.20641L17.2166 8.20584C16.7189 8.20578 16.4059 7.66936 16.6508 7.23609L19.0788 2.93887C19.7911 1.67829 21.1049 0.90567 22.5227 0.905812L27.3524 0.906366C27.8501 0.906423 28.1631 1.44285 27.9183 1.87612L25.4902 6.17336ZM9.98117 15.3203L10.2859 15.4925L9.98116 15.3203C9.26891 16.5809 7.95513 17.3536 6.53731 17.3534L1.70757 17.3528C1.20991 17.3528 0.896917 16.8164 1.14173 16.3831L3.56977 12.0859C3.56977 12.0859 3.56977 12.0859 3.56977 12.0859C4.28209 10.8253 5.59587 10.0527 7.01363 10.0528L11.8434 10.0534C12.3411 10.0534 12.654 10.5898 12.4092 11.0231L9.98117 15.3203ZM16.6509 11.0232C16.4061 10.5899 16.7191 10.0535 17.2167 10.0535L22.0465 10.0529C23.4643 10.0528 24.7781 10.8254 25.4903 12.086L27.9184 16.3832C28.1632 16.8165 27.8502 17.3529 27.3526 17.3529L22.5228 17.3535C21.105 17.3537 19.7912 16.5811 19.0789 15.3204L16.6509 11.0232ZM1.14176 1.87599C0.896948 1.44271 1.20994 0.906292 1.7076 0.906234L6.53733 0.905664C6.53733 0.905664 6.53734 0.905664 6.53734 0.905664C7.95514 0.905546 9.26892 1.67817 9.9812 2.93873L12.4093 7.23595C12.6541 7.66923 12.3411 8.20565 11.8434 8.20571L7.01366 8.20626C5.59588 8.20644 4.2821 7.43383 3.5698 6.17321L1.14176 1.87599Z" />
</svg>
