<svg width="28" height="19" viewBox="0 0 28 19" fill="none" xmlns="http://www.w3.org/2000/svg">
<path fill-rule="evenodd" clip-rule="evenodd" d="M16.3347 9.10939C15.5782 9.1093 15.0957 8.30162 15.4543 7.63545L17.881 3.12673C18.6421 1.71274 20.0488 0.84179 21.5713 0.84195L26.3389 0.842523C27.0954 0.842614 27.5779 1.65029 27.2193 2.31647L24.7925 6.8252C24.0315 8.23921 22.6248 9.11016 21.1023 9.10998L16.3347 9.10939Z" fill="url(#paint0_linear_412_8220)"/>
<path fill-rule="evenodd" clip-rule="evenodd" d="M1.0672 18.5621C0.310661 18.562 -0.171787 17.7544 0.186773 17.0882L2.61353 12.5795C3.37464 11.1655 4.78134 10.2945 6.30376 10.2947L11.0714 10.2953C11.8279 10.2954 12.3104 11.103 11.9518 11.7692L9.52502 16.2779C8.76396 17.692 7.35726 18.5629 5.83478 18.5627L1.0672 18.5621Z" fill="url(#paint0_linear_412_8220)"/>
<path fill-rule="evenodd" clip-rule="evenodd" d="M15.4544 11.7693C15.0959 11.1031 15.5783 10.2955 16.3348 10.2954L21.1024 10.2948C22.6249 10.2946 24.0316 11.1656 24.7927 12.5796L27.2194 17.0883C27.578 17.7545 27.0956 18.5622 26.339 18.5622L21.5714 18.5628C20.049 18.563 18.6423 17.6921 17.8812 16.278L15.4544 11.7693Z" fill="url(#paint0_linear_412_8220)"/>
<path fill-rule="evenodd" clip-rule="evenodd" d="M0.186805 2.31633C-0.171756 1.65016 0.310691 0.842481 1.06723 0.842387L5.83481 0.841797C7.35727 0.841659 8.76397 1.71261 9.52505 3.12658L11.9518 7.63531C12.3104 8.30149 11.8279 9.10916 11.0714 9.10925L6.30379 9.10983C4.78135 9.11003 3.37465 8.23908 2.61356 6.82505L0.186805 2.31633Z" fill="url(#paint0_linear_412_8220)"/>
<defs>
<linearGradient id="paint0_linear_412_8220" x1="13.7031" y1="0.841797" x2="13.7708" y2="22.5012" gradientUnits="userSpaceOnUse">
<stop stop-color="#078EDA"/>
<stop offset="1" stop-color="#02131E"/>
</linearGradient>
</defs>
</svg>
