<svg width="18" height="14" viewBox="0 0 18 14" fill="none" xmlns="http://www.w3.org/2000/svg">
<path fill-rule="evenodd" clip-rule="evenodd" d="M17.8662 12.1992C17.8661 12.9796 17.012 13.4591 16.3456 13.0529L12.1356 10.4861C10.7812 9.66026 9.94694 8.13395 9.94709 6.48209L9.94764 1.27385C9.94773 0.493432 10.8019 0.0138779 11.4682 0.420137L15.6783 2.98696C17.0327 3.81272 17.8669 5.33903 17.8668 6.99095L17.8662 12.1992Z" fill="url(#paint0_linear_412_8220)" />
<path fill-rule="evenodd" clip-rule="evenodd" d="M2.41371 13.0529C1.74737 13.4591 0.893233 12.9796 0.893147 12.1991L0.892578 6.99093C0.892446 5.33903 1.7267 3.81273 3.0811 2.98694L7.29115 0.420121C7.95749 0.0138618 8.81163 0.493418 8.81172 1.27384L8.81227 6.48208C8.81246 8.13396 7.9782 9.66026 6.62375 10.4861L2.41371 13.0529Z" fill="url(#paint0_linear_412_8220)" />
<defs>
<linearGradient id="paint0_linear_412_8220" x1="13.7031" y1="0.841797" x2="13.7708" y2="22.5012" gradientUnits="userSpaceOnUse">
<stop stop-color="#078EDA"/>
<stop offset="1" stop-color="#02131E"/>
</linearGradient>
</defs>
</svg>
