<svg width="30" height="34" viewBox="0 0 30 34" fill="none" xmlns="http://www.w3.org/2000/svg">
<path d="M26.9578 14.1825L27.2574 14.3635L26.9578 14.1825C26.1973 15.4417 24.786 16.2247 23.2503 16.2246L18.0278 16.224C17.5218 16.2239 17.2099 15.6711 17.4715 15.238L20.052 10.9652C20.8124 9.70605 22.2238 8.92301 23.7595 8.92315L28.9819 8.92371C29.488 8.92377 29.7999 9.47656 29.5383 9.90974L26.9578 14.1825ZM10.3792 23.3305L10.6788 23.5114L10.3792 23.3305C9.61873 24.5896 8.20741 25.3727 6.67166 25.3725L1.44921 25.3719C0.943158 25.3719 0.631265 24.8191 0.892875 24.3859L3.47334 20.1131C4.23383 18.854 5.64516 18.0709 7.18085 18.0711L12.4033 18.0716C12.9094 18.0717 13.2213 18.6245 12.9597 19.0577L10.3792 23.3305ZM15.7719 14.4024C15.519 14.8208 14.9121 14.8208 14.6592 14.4024L12.0172 10.03C12.0172 10.03 12.0172 10.03 12.0172 10.03C11.2578 8.77305 11.2578 7.22674 12.0172 5.96982L14.6592 1.59745C14.9121 1.179 15.519 1.17899 15.7719 1.59745L18.4139 5.96982L18.7135 5.78881L18.4139 5.96983C19.1734 7.22674 19.1734 8.77306 18.4139 10.03L15.7719 14.4024ZM15.7719 32.6982C15.519 33.1167 14.9121 33.1167 14.6592 32.6982L12.0172 28.3259C11.2578 27.0689 11.2578 25.5226 12.0172 24.2657L14.6592 19.8933C14.9121 19.4749 15.519 19.4749 15.7719 19.8933L18.4139 24.2657C19.1734 25.5226 19.1734 27.0689 18.4139 28.3259L15.7719 32.6982ZM17.4717 19.0578C17.21 18.6246 17.5219 18.0718 18.028 18.0717L23.2504 18.0712C24.7862 18.071 26.1975 18.8541 26.958 20.1132L29.5384 24.386C29.8001 24.8192 29.4882 25.372 28.9821 25.372L23.7596 25.3726C22.2239 25.3728 20.8126 24.5897 20.0521 23.3305L17.4717 19.0578ZM0.89291 9.90961C0.631298 9.47643 0.943193 8.92364 1.44924 8.92358L6.6717 8.923C8.20742 8.92288 9.61875 9.70593 10.3792 10.9651L12.9597 15.2378C13.2213 15.671 12.9094 16.2238 12.4034 16.2239L7.18088 16.2244C5.64517 16.2246 4.23385 15.4416 3.47337 14.1824L0.89291 9.90961Z" fill="url(#paint0_linear_9111_5063)" stroke="url(#paint0_linear_9111_5063)" stroke-width="0.7"/>
</svg>
