<svg width="31" height="34" viewBox="0 0 31 34" fill="none" xmlns="http://www.w3.org/2000/svg">
<path fill-rule="evenodd" clip-rule="evenodd" d="M16.3652 14.0289C15.9806 14.6971 15.0164 14.6971 14.6318 14.0289L12.0551 9.55235C11.2412 8.13835 11.2412 6.39627 12.0551 4.98231L14.6318 0.505706C15.0164 -0.162479 15.9806 -0.162481 16.3652 0.505704L18.9419 4.98231C19.7558 6.39627 19.7558 8.13835 18.9419 9.55235L16.3652 14.0289Z" fill="url(#paint0_linear_412_8217)"/>
<path fill-rule="evenodd" clip-rule="evenodd" d="M16.3652 32.9364C15.9806 33.6045 15.0164 33.6045 14.6318 32.9364L12.0551 28.4598C11.2412 27.0458 11.2412 25.3037 12.0551 23.8897L14.6318 19.4131C15.0164 18.7449 15.9806 18.7449 16.3652 19.4131L18.9419 23.8897C19.7558 25.3037 19.7558 27.0458 18.9419 28.4598L16.3652 32.9364Z" fill="url(#paint0_linear_412_8217)"/>
<path fill-rule="evenodd" clip-rule="evenodd" d="M18.2513 16.128C17.4822 16.1279 17.0011 15.296 17.3846 14.6293L19.9646 10.1447C20.7782 8.7306 22.2819 7.85956 23.9093 7.85972L29.0661 7.8603C29.8352 7.86039 30.3163 8.69235 29.9328 9.35897L27.3528 13.8436C26.5392 15.2577 25.0355 16.1288 23.408 16.1286L18.2513 16.128Z" fill="url(#paint0_linear_412_8217)"/>
<path fill-rule="evenodd" clip-rule="evenodd" d="M1.93089 25.5817C1.16182 25.5816 0.680705 24.7497 1.06421 24.0831L3.64419 19.5985C4.45779 18.1843 5.96151 17.3133 7.58892 17.3134L12.7457 17.314C13.5147 17.3141 13.9959 18.1461 13.6123 18.8127L11.0323 23.2973C10.2188 24.7115 8.71508 25.5825 7.0876 25.5823L1.93089 25.5817Z" fill="url(#paint0_linear_412_8217)"/>
<path fill-rule="evenodd" clip-rule="evenodd" d="M17.3848 18.8128C17.0013 18.1462 17.4824 17.3142 18.2515 17.3141L23.4082 17.3135C25.0356 17.3134 26.5394 18.1844 27.3529 19.5985L29.9329 24.0832C30.3164 24.7498 29.8353 25.5817 29.0662 25.5818L23.9095 25.5824C22.2821 25.5826 20.7784 24.7116 19.9648 23.2974L17.3848 18.8128Z" fill="url(#paint0_linear_412_8217)"/>
<path fill-rule="evenodd" clip-rule="evenodd" d="M1.06424 9.35883C0.680738 8.69221 1.16186 7.86025 1.93092 7.86017L7.08763 7.85957C8.71509 7.85943 10.2188 8.73047 11.0324 10.1446L13.6124 14.6292C13.9959 15.2958 13.5148 16.1278 12.7457 16.1279L7.58896 16.1284C5.96152 16.1286 4.4578 15.2576 3.64422 13.8434L1.06424 9.35883Z" fill="url(#paint0_linear_412_8217)"/>
<defs>
<linearGradient id="paint0_linear_412_8217" x1="15.4986" y1="-1" x2="15.752" y2="42.3177" gradientUnits="userSpaceOnUse">
<stop stop-color="#078EDA"/>
<stop offset="1" stop-color="#02131E"/>
</linearGradient>
</defs>
</svg>
