<svg width="28" height="17" viewBox="0 0 28 17" fill="none" xmlns="http://www.w3.org/2000/svg">
<path d="M14.6151 13.9008C14.3686 14.3519 13.7208 14.3519 13.4743 13.9008L11.0796 9.51797C10.3634 8.20695 10.3634 6.58939 11.0796 5.27842L13.4743 0.89555C13.7208 0.444426 14.3686 0.444427 14.6151 0.89555L17.0098 5.27843C17.7261 6.58939 17.7261 8.20695 17.0098 9.51796L14.6151 13.9008ZM16.7032 15.9188C16.2097 15.9188 15.8962 15.3904 16.1328 14.9573L18.596 10.4466C19.3111 9.13721 20.6256 8.3411 22.0374 8.34125L26.8954 8.34183C27.3889 8.34188 27.7023 8.87024 27.4658 9.30336L25.0025 13.8141C24.2875 15.1235 22.9729 15.9196 21.5611 15.9194L16.7032 15.9188ZM0.623671 9.30322C0.38715 8.8701 0.70058 8.34175 1.19407 8.34169L6.052 8.3411C7.46381 8.34097 8.77838 9.13708 9.49342 10.4464L11.9567 14.9572C12.1932 15.3903 11.8798 15.9186 11.3863 15.9187L6.52832 15.9193C5.11653 15.9194 3.80196 15.1233 3.0869 13.8139L0.623671 9.30322Z" />
</svg>
