<svg width="32" height="32" viewBox="0 0 32 32" fill="none" xmlns="http://www.w3.org/2000/svg">
    <mask id="mask0_209_629" style="mask-type:alpha" maskUnits="userSpaceOnUse" x="0" y="0"
        width="32" height="32">
        <rect x="32" width="32" height="32" transform="rotate(90 32 0)" fill="#D9D9D9" />
    </mask>
    <g mask="url(#mask0_209_629)">
        <path
            d="M3.53535 11.8724C3.53535 11.5797 3.63124 11.3389 3.82302 11.15C4.01457 10.9611 4.25202 10.8667 4.53535 10.8667H23.9687C24.252 10.8667 24.4896 10.9626 24.6814 11.1544C24.8729 11.3459 24.9687 11.5834 24.9687 11.8667V13.8667H26.7354V18.1334H24.9687V20.1404C24.9687 20.4246 24.8729 20.6611 24.6814 20.85C24.4896 21.0389 24.252 21.1334 23.9687 21.1334H4.53535C4.25202 21.1334 4.01457 21.0376 3.82302 20.846C3.63124 20.6543 3.53535 20.4167 3.53535 20.1334V11.8724ZM23.6399 11.8V16V20.2H24.0687V11.8H23.6399Z"
            fill="white" />
    </g>
</svg>