<svg width="32" height="32" viewBox="0 0 32 32" fill="none" xmlns="http://www.w3.org/2000/svg">
    <mask id="mask0_209_626" style="mask-type:alpha" maskUnits="userSpaceOnUse" x="0" y="0"
        width="32" height="32">
        <rect x="32" width="32" height="32" transform="rotate(90 32 0)" fill="#D9D9D9" />
    </mask>
    <g mask="url(#mask0_209_626)">
        <path
            d="M4.40059 11.8724C4.40059 11.5797 4.49648 11.3389 4.68825 11.15C4.87981 10.9611 5.11725 10.8667 5.40059 10.8667H24.8339C25.1173 10.8667 25.3548 10.9626 25.5466 11.1544C25.7381 11.3459 25.8339 11.5834 25.8339 11.8667V13.8667H27.6006V18.1334H25.8339V20.1404C25.8339 20.4246 25.7381 20.6611 25.5466 20.85C25.3548 21.0389 25.1173 21.1334 24.8339 21.1334H5.40059C5.11725 21.1334 4.87981 21.0376 4.68825 20.846C4.49648 20.6543 4.40059 20.4167 4.40059 20.1334V11.8724ZM5.40059 11.8V20.2H24.9339V11.8H5.40059Z"
            fill="white" />
    </g>
</svg>