<svg xmlns="http://www.w3.org/2000/svg" width="32" height="32" viewBox="0 0 32 32" fill="none">
    <mask id="mask0_4780_37383" style="mask-type:alpha" maskUnits="userSpaceOnUse" x="0" y="0" width="32" height="32">
        <rect width="32" height="32" fill="#D9D9D9"/>
    </mask>
    <g mask="url(#mask0_4780_37383)">
        <path d="M8.00005 26.9741C6.81538 26.9741 5.80127 26.5523 4.95772 25.7087C4.11416 24.8652 3.69238 23.8511 3.69238 22.6664C3.69238 21.4817 4.11416 20.4676 4.95772 19.6241C5.80127 18.7805 6.81538 18.3587 8.00005 18.3587C9.18472 18.3587 10.1988 18.7805 11.0424 19.6241C11.8859 20.4676 12.3077 21.4817 12.3077 22.6664C12.3077 23.8511 11.8859 24.8652 11.0424 25.7087C10.1988 26.5523 9.18472 26.9741 8.00005 26.9741ZM24.0001 26.9741C22.8154 26.9741 21.8013 26.5523 20.9577 25.7087C20.1142 24.8652 19.6924 23.8511 19.6924 22.6664C19.6924 21.4817 20.1142 20.4676 20.9577 19.6241C21.8013 18.7805 22.8154 18.3587 24.0001 18.3587C25.1847 18.3587 26.1988 18.7805 27.0424 19.6241C27.8859 20.4676 28.3077 21.4817 28.3077 22.6664C28.3077 23.8511 27.8859 24.8652 27.0424 25.7087C26.1988 26.5523 25.1847 26.9741 24.0001 26.9741ZM8.00105 25.6407C8.81927 25.6407 9.51938 25.3494 10.1014 24.7667C10.6834 24.1841 10.9744 23.4836 10.9744 22.6654C10.9744 21.8472 10.6831 21.1471 10.1004 20.5651C9.51772 19.9831 8.81727 19.6921 7.99905 19.6921C7.18083 19.6921 6.48072 19.9834 5.89872 20.5661C5.31672 21.1487 5.02572 21.8492 5.02572 22.6674C5.02572 23.4856 5.31705 24.1857 5.89972 24.7677C6.48238 25.3497 7.18283 25.6407 8.00105 25.6407ZM24.0011 25.6407C24.8193 25.6407 25.5194 25.3494 26.1014 24.7667C26.6834 24.1841 26.9744 23.4836 26.9744 22.6654C26.9744 21.8472 26.6831 21.1471 26.1004 20.5651C25.5177 19.9831 24.8173 19.6921 23.9991 19.6921C23.1808 19.6921 22.4807 19.9834 21.8987 20.5661C21.3167 21.1487 21.0257 21.8492 21.0257 22.6674C21.0257 23.4856 21.3171 24.1857 21.8997 24.7677C22.4824 25.3497 23.1828 25.6407 24.0011 25.6407ZM16.0001 13.6407C14.8154 13.6407 13.8013 13.2189 12.9577 12.3754C12.1142 11.5318 11.6924 10.5177 11.6924 9.33306C11.6924 8.14839 12.1142 7.13428 12.9577 6.29072C13.8013 5.44717 14.8154 5.02539 16.0001 5.02539C17.1847 5.02539 18.1988 5.44717 19.0424 6.29072C19.8859 7.13428 20.3077 8.14839 20.3077 9.33306C20.3077 10.5177 19.8859 11.5318 19.0424 12.3754C18.1988 13.2189 17.1847 13.6407 16.0001 13.6407ZM16.0011 12.3074C16.8193 12.3074 17.5194 12.0161 18.1014 11.4334C18.6834 10.8507 18.9744 10.1503 18.9744 9.33206C18.9744 8.51383 18.6831 7.81372 18.1004 7.23172C17.5177 6.64972 16.8173 6.35872 15.9991 6.35872C15.1808 6.35872 14.4807 6.65006 13.8987 7.23272C13.3167 7.81539 13.0257 8.51584 13.0257 9.33406C13.0257 10.1523 13.3171 10.8524 13.8997 11.4344C14.4824 12.0164 15.1828 12.3074 16.0011 12.3074Z" fill="white"/>
    </g>
</svg>
