<svg width="49" height="48" viewBox="0 0 49 48" fill="none" xmlns="http://www.w3.org/2000/svg">
    <mask id="mask0_1541_38349" style="mask-type:alpha" maskUnits="userSpaceOnUse" x="0" y="0" width="49" height="48">
        <rect x="0.5" width="48" height="48" fill="#D9D9D9"/>
    </mask>
    <g mask="url(#mask0_1541_38349)">
        <path d="M31.7925 32.7075L33.2075 31.2925L25.5 23.5835V14H23.5V24.4155L31.7925 32.7075ZM24.5065 42C22.0175 42 19.6773 41.5277 17.486 40.583C15.295 39.6383 13.389 38.3563 11.768 36.737C10.147 35.1177 8.86383 33.2133 7.9185 31.024C6.97283 28.835 6.5 26.4958 6.5 24.0065C6.5 21.5175 6.97233 19.1773 7.917 16.986C8.86167 14.795 10.1437 12.889 11.763 11.268C13.3823 9.647 15.2867 8.36383 17.476 7.4185C19.665 6.47283 22.0042 6 24.4935 6C26.9825 6 29.3227 6.47233 31.514 7.417C33.705 8.36167 35.611 9.64367 37.232 11.263C38.853 12.8823 40.1362 14.7867 41.0815 16.976C42.0272 19.165 42.5 21.5042 42.5 23.9935C42.5 26.4825 42.0277 28.8227 41.083 31.014C40.1383 33.205 38.8563 35.111 37.237 36.732C35.6177 38.353 33.7133 39.6362 31.524 40.5815C29.335 41.5272 26.9958 42 24.5065 42ZM24.5 40C28.9333 40 32.7083 38.4417 35.825 35.325C38.9417 32.2083 40.5 28.4333 40.5 24C40.5 19.5667 38.9417 15.7917 35.825 12.675C32.7083 9.55833 28.9333 8 24.5 8C20.0667 8 16.2917 9.55833 13.175 12.675C10.0583 15.7917 8.5 19.5667 8.5 24C8.5 28.4333 10.0583 32.2083 13.175 35.325C16.2917 38.4417 20.0667 40 24.5 40Z" fill="white"/>
    </g>
</svg>
