<svg width="35" height="36" viewBox="0 0 35 36" fill="none" xmlns="http://www.w3.org/2000/svg">
    <mask id="mask0_6054_73732" style="mask-type:alpha" maskUnits="userSpaceOnUse" x="0" y="0"
        width="35" height="36">
        <rect y="0.5" width="35" height="35" fill="currentColor" />
    </mask>
    <g mask="url(#mask0_6054_73732)">
        <path
            d="M10.075 27.9C8.39087 27.9 6.9574 27.3124 5.77458 26.1372C4.59153 24.9621 4 23.5324 4 21.8483C4 20.301 4.52875 18.9277 5.58625 17.7284C6.64375 16.5289 7.95831 15.885 9.52994 15.7966C9.83279 13.8305 10.7371 12.2063 12.2428 10.9238C13.7485 9.64125 15.5009 9 17.5 9C19.7518 9 21.6647 9.78705 23.2388 11.3612C24.813 12.9353 25.6 14.8482 25.6 17.1V18.45H26.4309C27.7238 18.4916 28.8085 18.9663 29.6851 19.8739C30.5617 20.7818 31 21.8822 31 23.175C31 24.4991 30.5435 25.6176 29.6304 26.5304C28.7176 27.4435 27.5991 27.9 26.275 27.9H10.075ZM10.075 26.55H26.275C27.22 26.55 28.0187 26.2238 28.6712 25.5713C29.3237 24.9188 29.65 24.12 29.65 23.175C29.65 22.23 29.3237 21.4313 28.6712 20.7788C28.0187 20.1263 27.22 19.8 26.275 19.8H24.25V17.1C24.25 15.2325 23.5919 13.6406 22.2756 12.3244C20.9594 11.0081 19.3675 10.35 17.5 10.35C15.6325 10.35 14.0406 11.0081 12.7244 12.3244C11.4081 13.6406 10.75 15.2325 10.75 17.1H10.075C8.77 17.1 7.65625 17.5613 6.73375 18.4838C5.81125 19.4062 5.35 20.52 5.35 21.825C5.35 23.13 5.81125 24.2438 6.73375 25.1663C7.65625 26.0888 8.77 26.55 10.075 26.55Z"
            fill="currentColor" />
    </g>
</svg>