<svg width="20" height="21" viewBox="0 0 20 21" fill="none" xmlns="http://www.w3.org/2000/svg">
<path d="M6.5 14.4996H14C14.8333 14.4996 15.5417 14.208 16.125 13.6246C16.7083 13.0413 17 12.333 17 11.4996C17 10.6663 16.7083 9.95796 16.125 9.37463C15.5417 8.7913 14.8333 8.49963 14 8.49963C13.8667 7.53296 13.425 6.70796 12.675 6.02463C11.925 5.3413 11.0833 4.99963 10.15 4.99963C9.3 4.99963 8.52916 5.2163 7.8375 5.64963C7.14583 6.08296 6.63333 6.69963 6.3 7.49963C5.35 7.58296 4.5625 7.94546 3.9375 8.58713C3.3125 9.2288 3 10.033 3 10.9996C3 11.9663 3.34167 12.7913 4.025 13.4746C4.70833 14.158 5.53333 14.4996 6.5 14.4996ZM10 20.4996C8.61666 20.4996 7.31666 20.2371 6.1 19.7121C4.88333 19.1871 3.825 18.4746 2.925 17.5746C2.025 16.6746 1.3125 15.6163 0.7875 14.3996C0.2625 13.183 0 11.883 0 10.4996C0 9.1163 0.2625 7.8163 0.7875 6.59963C1.3125 5.38296 2.025 4.32463 2.925 3.42463C3.825 2.52463 4.88333 1.81213 6.1 1.28713C7.31666 0.762134 8.61666 0.499634 10 0.499634C11.3833 0.499634 12.6833 0.762134 13.9 1.28713C15.1167 1.81213 16.175 2.52463 17.075 3.42463C17.975 4.32463 18.6875 5.38296 19.2125 6.59963C19.7375 7.8163 20 9.1163 20 10.4996C20 11.883 19.7375 13.183 19.2125 14.3996C18.6875 15.6163 17.975 16.6746 17.075 17.5746C16.175 18.4746 15.1167 19.1871 13.9 19.7121C12.6833 20.2371 11.3833 20.4996 10 20.4996Z" fill="white"/>
</svg>
