<svg width="23" height="24" viewBox="0 0 23 24" fill="none" xmlns="http://www.w3.org/2000/svg">
<g id="toncoin-ton-logo 1" clip-path="url(#clip0_31830_1026)">
<path id="Vector" d="M11.5 23.5C5.14873 23.5 0 18.3513 0 12C0 5.64873 5.14873 0.5 11.5 0.5C17.8513 0.5 23 5.64873 23 12C23 18.3513 17.8513 23.5 11.5 23.5Z" fill="#1A1A1A"/>
<path id="Vector_2" fill-rule="evenodd" clip-rule="evenodd" d="M14.7036 8.09827H8.2554C8.00897 8.09827 7.80362 8.13934 7.55719 8.26255C7.26969 8.38577 7.1054 8.59112 7.02326 8.75541C7.02326 8.75541 7.02326 8.79648 6.98219 8.79648C6.85897 9.00184 6.77683 9.24827 6.77683 9.53577C6.77683 9.7822 6.8179 10.0286 6.98219 10.2751L11.0483 17.2572C11.1304 17.4215 11.2947 17.5036 11.5 17.5036C11.6643 17.5036 11.8286 17.4215 11.9518 17.2572L15.9358 10.2751C16.0179 10.1108 16.1822 9.90541 16.1822 9.57684C16.2233 9.28934 16.1411 9.04291 16.0179 8.79648C15.8947 8.55005 15.6893 8.3447 15.4018 8.26255C15.1554 8.09827 14.8679 8.09827 14.7036 8.09827ZM11.9929 9.08398H14.7036C14.8679 9.08398 14.95 9.08398 14.9911 9.12505C15.0733 9.16612 15.1143 9.20719 15.1554 9.28934C15.1965 9.33041 15.1965 9.41255 15.1965 9.49469C15.1965 9.53577 15.1554 9.57684 15.0733 9.74112L11.9929 15.0804V9.08398ZM11.0072 9.08398V15.1215L7.88576 9.74112C7.84469 9.65898 7.84469 9.57684 7.84469 9.49469C7.84469 9.41255 7.84469 9.33041 7.88576 9.28934C7.92683 9.24827 7.92683 9.2072 7.9679 9.2072L8.00897 9.16612C8.09112 9.12505 8.17326 9.12505 8.29647 9.12505H11.0072V9.08398Z" fill="white"/>
</g>
<defs>
<clipPath id="clip0_31830_1026">
<rect width="23" height="23" fill="white" transform="matrix(-1 0 0 1 23 0.5)"/>
</clipPath>
</defs>
</svg>
