<svg width="25" height="24" viewBox="0 0 25 24" fill="none" xmlns="http://www.w3.org/2000/svg">
    <mask id="mask0_5841_40911" style="mask-type:alpha" maskUnits="userSpaceOnUse" x="0" y="0"
        width="25" height="24">
        <rect x="0.5" width="24" height="24" fill="currentColor" />
    </mask>
    <g mask="url(#mask0_5841_40911)">
        <path
            d="M12.5192 11.019C14.7501 11.019 16.6411 10.6786 18.1923 9.99779C19.7436 9.31713 20.5193 8.49088 20.5193 7.51904C20.5193 6.54721 19.7436 5.72096 18.1923 5.04029C16.6411 4.35946 14.7501 4.01904 12.5192 4.01904C10.2884 4.01904 8.39417 4.35946 6.8365 5.04029C5.27883 5.72096 4.5 6.54721 4.5 7.51904C4.5 8.49088 5.27883 9.31713 6.8365 9.99779C8.39417 10.6786 10.2884 11.019 12.5192 11.019ZM12.5 12.5575C13.3115 12.5575 14.1368 12.4931 14.976 12.3643C15.815 12.2355 16.6038 12.0447 17.3422 11.792C18.0807 11.5395 18.7308 11.2265 19.2923 10.8528C19.8538 10.479 20.2628 10.0472 20.5193 9.55754V12.519C20.2628 13.0087 19.8538 13.4405 19.2923 13.8143C18.7308 14.188 18.0807 14.501 17.3422 14.7535C16.6038 15.0062 15.815 15.197 14.976 15.3258C14.1368 15.4546 13.3115 15.519 12.5 15.519C11.6885 15.519 10.8632 15.4546 10.024 15.3258C9.185 15.197 8.39942 15.0062 7.66725 14.7535C6.93525 14.501 6.2885 14.188 5.727 13.8143C5.16533 13.4405 4.75633 13.0087 4.5 12.519V9.55754C4.75633 10.0472 5.16533 10.479 5.727 10.8528C6.2885 11.2265 6.93525 11.5395 7.66725 11.792C8.39942 12.0447 9.185 12.2355 10.024 12.3643C10.8632 12.4931 11.6885 12.5575 12.5 12.5575ZM12.5 17.0575C13.3115 17.0575 14.1368 16.9931 14.976 16.8643C15.815 16.7355 16.6038 16.5447 17.3422 16.292C18.0807 16.0395 18.7308 15.7265 19.2923 15.3528C19.8538 14.979 20.2628 14.5472 20.5193 14.0575V16.9998C20.2628 17.4895 19.8538 17.9212 19.2923 18.295C18.7308 18.6687 18.0807 18.9818 17.3422 19.2343C16.6038 19.487 15.815 19.6777 14.976 19.8065C14.1368 19.9354 13.3115 19.9998 12.5 19.9998C11.6885 19.9998 10.8632 19.9354 10.024 19.8065C9.185 19.6777 8.39942 19.487 7.66725 19.2343C6.93525 18.9818 6.2885 18.6687 5.727 18.295C5.16533 17.9212 4.75633 17.4895 4.5 16.9998V14.0575C4.75633 14.5472 5.16533 14.979 5.727 15.3528C6.2885 15.7265 6.93525 16.0395 7.66725 16.292C8.39942 16.5447 9.185 16.7355 10.024 16.8643C10.8632 16.9931 11.6885 17.0575 12.5 17.0575Z"
            fill="currentColor" fillOpacity="1"/>
    </g>
</svg>