<svg width="18" height="19" viewBox="0 0 18 19" fill="none" xmlns="http://www.w3.org/2000/svg">
    <path d="M8.6 16H9.35V14.85C10.0333 14.8167 10.7125 14.5792 11.3875 14.1375C12.0625 13.6958 12.4 13 12.4 12.05C12.4 11.35 12.1833 10.7667 11.75 10.3C11.3167 9.83333 10.5 9.38333 9.3 8.95C8.16667 8.55 7.45834 8.20833 7.175 7.925C6.89167 7.64167 6.75 7.23333 6.75 6.7C6.75 6.16667 6.9625 5.71667 7.3875 5.35C7.8125 4.98333 8.36667 4.8 9.05 4.8C9.55 4.8 9.975 4.9125 10.325 5.1375C10.675 5.3625 10.9667 5.65 11.2 6L11.85 5.75C11.6 5.3 11.2542 4.92917 10.8125 4.6375C10.3708 4.34583 9.9 4.18333 9.4 4.15V3H8.65V4.15C7.76667 4.28333 7.10417 4.59583 6.6625 5.0875C6.22084 5.57917 6 6.11667 6 6.7C6 7.4 6.225 7.95833 6.675 8.375C7.125 8.79167 7.9 9.2 9 9.6C10.0833 10 10.8042 10.3625 11.1625 10.6875C11.5208 11.0125 11.7 11.4667 11.7 12.05C11.7 12.8 11.425 13.3375 10.875 13.6625C10.325 13.9875 9.75 14.15 9.15 14.15C8.56667 14.15 8.0375 13.9833 7.5625 13.65C7.0875 13.3167 6.7 12.85 6.4 12.25L5.75 12.55C6.05 13.2 6.4375 13.7 6.9125 14.05C7.3875 14.4 7.95 14.65 8.6 14.8V16ZM9 18.2C7.8 18.2 6.67084 17.9708 5.6125 17.5125C4.55417 17.0542 3.63334 16.4333 2.85 15.65C2.06667 14.8667 1.44584 13.9458 0.987503 12.8875C0.52917 11.8292 0.300003 10.7 0.300003 9.5C0.300003 8.3 0.52917 7.17083 0.987503 6.1125C1.44584 5.05417 2.06667 4.13333 2.85 3.35C3.63334 2.56667 4.55417 1.94583 5.6125 1.4875C6.67084 1.02917 7.8 0.799999 9 0.799999C10.2 0.799999 11.3292 1.02917 12.3875 1.4875C13.4458 1.94583 14.3667 2.56667 15.15 3.35C15.9333 4.13333 16.5542 5.05417 17.0125 6.1125C17.4708 7.17083 17.7 8.3 17.7 9.5C17.7 10.7 17.4708 11.8292 17.0125 12.8875C16.5542 13.9458 15.9333 14.8667 15.15 15.65C14.3667 16.4333 13.4458 17.0542 12.3875 17.5125C11.3292 17.9708 10.2 18.2 9 18.2ZM9 17.5C11.2333 17.5 13.125 16.725 14.675 15.175C16.225 13.625 17 11.7333 17 9.5C17 7.26667 16.225 5.375 14.675 3.825C13.125 2.275 11.2333 1.5 9 1.5C6.76667 1.5 4.875 2.275 3.325 3.825C1.775 5.375 1 7.26667 1 9.5C1 11.7333 1.775 13.625 3.325 15.175C4.875 16.725 6.76667 17.5 9 17.5Z" fill="white"/>
</svg>
