<svg width="18" height="18" viewBox="0 0 18 18" fill="none" xmlns="http://www.w3.org/2000/svg">
<mask id="mask0_5613_17262" style="mask-type:alpha" maskUnits="userSpaceOnUse" x="0" y="0" width="19" height="18">
<rect width="18.0002" height="18.0002" fill="#D9D9D9"/>
</mask>
<g mask="url(#mask0_5613_17262)">
<path d="M4.8462 9.75002C4.63995 9.75002 4.46338 9.67658 4.31651 9.5297C4.16963 9.38283 4.09619 9.20626 4.09619 9.00001C4.09619 8.79376 4.16963 8.61719 4.31651 8.47032C4.46338 8.32344 4.63995 8.25 4.8462 8.25C5.05247 8.25 5.22904 8.32344 5.37592 8.47032C5.52279 8.61719 5.59623 8.79376 5.59623 9.00001C5.59623 9.20626 5.52279 9.38283 5.37592 9.5297C5.22904 9.67658 5.05247 9.75002 4.8462 9.75002ZM9.00011 9.75002C8.79386 9.75002 8.6173 9.67658 8.47042 9.5297C8.32354 9.38283 8.2501 9.20626 8.2501 9.00001C8.2501 8.79376 8.32354 8.61719 8.47042 8.47032C8.6173 8.32344 8.79386 8.25 9.00011 8.25C9.20637 8.25 9.38293 8.32344 9.52981 8.47032C9.67669 8.61719 9.75012 8.79376 9.75012 9.00001C9.75012 9.20626 9.67669 9.38283 9.52981 9.5297C9.38293 9.67658 9.20637 9.75002 9.00011 9.75002ZM13.154 9.75002C12.9478 9.75002 12.7712 9.67658 12.6243 9.5297C12.4774 9.38283 12.404 9.20626 12.404 9.00001C12.404 8.79376 12.4774 8.61719 12.6243 8.47032C12.7712 8.32344 12.9478 8.25 13.154 8.25C13.3603 8.25 13.5368 8.32344 13.6837 8.47032C13.8306 8.61719 13.904 8.79376 13.904 9.00001C13.904 9.20626 13.8306 9.38283 13.6837 9.5297C13.5368 9.67658 13.3603 9.75002 13.154 9.75002Z" fill="white"/>
</g>
</svg>
