<svg width="24" height="25" viewBox="0 0 24 25" fill="none" xmlns="http://www.w3.org/2000/svg">
<g id="more_horiz">
<mask id="mask0_31724_85050" style="mask-type:alpha" maskUnits="userSpaceOnUse" x="0" y="0" width="24" height="25">
<rect id="Bounding box" y="0.693481" width="24" height="23.5402" fill="#D9D9D9"/>
</mask>
<g mask="url(#mask0_31724_85050)">
<path id="more_horiz_2" d="M5.40506 13.5133C5.69463 13.7973 6.05586 13.9445 6.46143 13.9445C6.867 13.9445 7.22824 13.7973 7.51782 13.5133C7.80769 13.229 7.96145 12.8702 7.96145 12.4636C7.96145 12.0571 7.80769 11.6983 7.51782 11.414C7.22824 11.1299 6.867 10.9828 6.46143 10.9828C6.05586 10.9828 5.69463 11.1299 5.40506 11.414C5.11519 11.6983 4.96143 12.0571 4.96143 12.4636C4.96143 12.8702 5.11519 13.229 5.40506 13.5133ZM10.9435 13.5133C11.2331 13.7973 11.5943 13.9445 11.9999 13.9445C12.4055 13.9445 12.7667 13.7973 13.0563 13.5133C13.3461 13.229 13.4999 12.8702 13.4999 12.4636C13.4999 12.0571 13.3461 11.6983 13.0563 11.414C12.7667 11.1299 12.4055 10.9828 11.9999 10.9828C11.5943 10.9828 11.2331 11.1299 10.9435 11.414C10.6537 11.6983 10.4999 12.0571 10.4999 12.4636C10.4999 12.8702 10.6537 13.229 10.9435 13.5133ZM16.482 13.5133C16.7716 13.7973 17.1328 13.9445 17.5384 13.9445C17.9439 13.9445 18.3052 13.7973 18.5947 13.5133C18.8846 13.229 19.0384 12.8702 19.0384 12.4636C19.0384 12.0571 18.8846 11.6983 18.5947 11.414C18.3052 11.1299 17.9439 10.9828 17.5384 10.9828C17.1328 10.9828 16.7716 11.1299 16.482 11.414C16.1921 11.6983 16.0384 12.0571 16.0384 12.4636C16.0384 12.8702 16.1921 13.229 16.482 13.5133Z" fill="white" stroke="white"/>
</g>
</g>
</svg>
