<svg width="24" height="24" viewBox="0 0 24 24" fill="none" xmlns="http://www.w3.org/2000/svg">
<g id="Download__20px">
<path id="Vector" d="M6.375 19C5.99167 19 5.66667 18.8667 5.4 18.6C5.13333 18.3334 5 18.0084 5 17.625V14.975H5.775V17.625C5.775 17.775 5.8375 17.9125 5.9625 18.0375C6.0875 18.1625 6.225 18.225 6.375 18.225H17.625C17.775 18.225 17.9125 18.1625 18.0375 18.0375C18.1625 17.9125 18.225 17.775 18.225 17.625V14.975H19V17.625C19 18.0084 18.8667 18.3334 18.6 18.6C18.3333 18.8667 18.0083 19 17.625 19H6.375ZM12 15.3L8.55 11.85L9.1 11.325L11.625 13.825V4.65002H12.375V13.825L14.9 11.325L15.45 11.85L12 15.3Z" fill="white"/>
</g>
</svg>
