<svg xmlns="http://www.w3.org/2000/svg" width="32" height="32" viewBox="0 0 32 32" fill="none">
    <mask id="mask0_4780_37377" style="mask-type:alpha" maskUnits="userSpaceOnUse" x="0" y="0" width="32" height="32">
        <rect width="32" height="32" fill="#D9D9D9"/>
    </mask>
    <g mask="url(#mask0_4780_37377)">
        <path d="M6 23H25.2C25.5111 23 25.7667 22.9 25.9667 22.7C26.1667 22.5 26.2667 22.2444 26.2667 21.9333V15.4H4.93333V21.9333C4.93333 22.2444 5.03333 22.5 5.23333 22.7C5.43333 22.9 5.68889 23 6 23ZM22.4627 20.3333C22.7764 20.3333 23.0444 20.2236 23.2667 20.004C23.4889 19.7844 23.6 19.5178 23.6 19.204C23.6 18.8902 23.4902 18.6222 23.2707 18.4C23.0511 18.1778 22.7844 18.0667 22.4707 18.0667C22.1569 18.0667 21.8889 18.1764 21.6667 18.396C21.4444 18.6156 21.3333 18.8822 21.3333 19.196C21.3333 19.5098 21.4431 19.7778 21.6627 20C21.8822 20.2222 22.1489 20.3333 22.4627 20.3333ZM27.2 14.4667H25.9L22.5 8.93333H8.7L5.3 14.4667H4L7.73333 8.6C7.91111 8.4 8.12533 8.25 8.376 8.15C8.62667 8.05 8.89022 8 9.16667 8H22.0333C22.3098 8 22.5733 8.05 22.824 8.15C23.0747 8.25 23.2889 8.4 23.4667 8.6L27.2 14.4667ZM6 23.9333C5.45 23.9333 4.97922 23.7374 4.58767 23.3457C4.19589 22.9541 4 22.4833 4 21.9333V14.4667H27.2V21.9333C27.2 22.4833 27.0042 22.9541 26.6127 23.3457C26.2209 23.7374 25.75 23.9333 25.2 23.9333H6Z" fill="white"/>
    </g>
</svg>
