<svg width="12" height="9" viewBox="0 0 12 9" fill="none" xmlns="http://www.w3.org/2000/svg">
<path d="M6.00273 6.45632C6.54688 6.45632 7.00854 6.26586 7.38771 5.88495C7.76687 5.50403 7.95646 5.0415 7.95646 4.49734C7.95646 3.95319 7.766 3.49153 7.38508 3.11236C7.00416 2.7332 6.54163 2.54361 5.99748 2.54361C5.45332 2.54361 4.99166 2.73407 4.6125 3.11499C4.23333 3.49591 4.04375 3.95844 4.04375 4.50259C4.04375 5.04675 4.23421 5.50841 4.61512 5.88757C4.99604 6.26674 5.45857 6.45632 6.00273 6.45632ZM6.0001 5.89997C5.61121 5.89997 5.28066 5.76386 5.00844 5.49163C4.73621 5.21941 4.6001 4.88886 4.6001 4.49997C4.6001 4.11108 4.73621 3.78052 5.00844 3.5083C5.28066 3.23608 5.61121 3.09997 6.0001 3.09997C6.38899 3.09997 6.71955 3.23608 6.99177 3.5083C7.26399 3.78052 7.4001 4.11108 7.4001 4.49997C7.4001 4.88886 7.26399 5.21941 6.99177 5.49163C6.71955 5.76386 6.38899 5.89997 6.0001 5.89997ZM6.0001 8.11663C4.88574 8.11663 3.8548 7.82366 2.90727 7.2377C1.95974 6.65174 1.18984 5.88315 0.59756 4.93193C0.548949 4.86154 0.516768 4.791 0.501018 4.72032C0.485365 4.64964 0.477539 4.57711 0.477539 4.50274C0.477539 4.42836 0.485365 4.35491 0.501018 4.28238C0.516768 4.20986 0.548949 4.1384 0.59756 4.06801C1.18984 3.11679 1.95974 2.3482 2.90727 1.76224C3.8548 1.17628 4.88574 0.883301 6.0001 0.883301C7.11446 0.883301 8.14541 1.17628 9.09293 1.76224C10.0405 2.3482 10.8104 3.11679 11.4026 4.06801C11.4513 4.1384 11.4834 4.20893 11.4992 4.27961C11.5148 4.35029 11.5227 4.42282 11.5227 4.4972C11.5227 4.57157 11.5148 4.64502 11.4992 4.71755C11.4834 4.79008 11.4513 4.86154 11.4026 4.93193C10.8104 5.88315 10.0405 6.65174 9.09293 7.2377C8.14541 7.82366 7.11446 8.11663 6.0001 8.11663Z" fill="url(#paint0_linear_8946_87201)"/>
<defs>
<linearGradient id="paint0_linear_8946_87201" x1="0.477539" y1="4.49997" x2="11.5227" y2="4.49997" gradientUnits="userSpaceOnUse">
<stop stop-color="#16D9E3"/>
<stop offset="0.47" stop-color="#30C7EC"/>
<stop offset="1" stop-color="#46AEF7"/>
</linearGradient>
</defs>
</svg>
