<svg width="43" height="42" viewBox="0 0 43 42" fill="none" xmlns="http://www.w3.org/2000/svg">
    <g filter="url(#filter0_f_1541_38402)">
        <path d="M31.1915 21.3536C31.1915 29.8911 29.9959 31.0868 21.4584 31.0868C12.921 31.0868 6 29.8911 6 21.3536C6 12.8162 12.921 5.89514 21.4584 5.89514C29.9959 5.89514 31.1915 12.8162 31.1915 21.3536Z" fill="#D0DBFF"/>
    </g>
    <g filter="url(#filter1_f_1541_38402)">
        <path d="M6.00047 15.6287C6.00047 7.09116 7.1961 5.89552 15.7335 5.89552C24.271 5.89552 31.192 7.09116 31.192 15.6287C31.192 24.1661 24.271 31.0872 15.7335 31.0872C7.1961 31.0872 6.00047 24.1661 6.00047 15.6287Z" fill="#7E7BFF"/>
    </g>
    <g filter="url(#filter2_f_1541_38402)">
        <path d="M38 21.8952C38 30.7318 30.8366 37.2145 22 37.2145C13.1634 37.2145 6 30.7318 6 21.8952C6 13.0586 13.1634 5.89514 22 5.89514C30.8366 5.89514 38 13.0586 38 21.8952Z" fill="#CDBBFF"/>
    </g>
    <g filter="url(#filter3_f_1541_38402)">
        <path d="M38 21.8952C38 30.7318 30.8366 37.2145 22 37.2145C13.1634 37.2145 6 30.7318 6 21.8952C6 13.0586 13.1634 5.89514 22 5.89514C30.8366 5.89514 38 13.0586 38 21.8952Z" fill="white"/>
    </g>
    <g style="mix-blend-mode:color-dodge" filter="url(#filter4_f_1541_38402)">
        <path d="M35.617 24.0693C35.617 34.1067 34.2113 35.5123 24.1741 35.5123C14.1368 35.5123 6 34.1067 6 24.0693C6 14.032 14.1368 5.89514 24.1741 5.89514C34.2113 5.89514 35.617 14.032 35.617 24.0693Z" fill="#AB8DFF"/>
    </g>
    <ellipse cx="22.001" cy="21.8952" rx="14.9787" ry="14.9788" fill="#151517"/>
    <mask id="mask0_1541_38402" style="mask-type:alpha" maskUnits="userSpaceOnUse" x="12" y="12" width="20" height="20">
        <rect x="12" y="12.0001" width="20" height="20" fill="#D9D9D9"/>
    </mask>
    <g mask="url(#mask0_1541_38402)">
        <path d="M23 17.2084C22.8667 17.2084 22.75 17.1584 22.65 17.0584C22.55 16.9584 22.5 16.8417 22.5 16.7084C22.5 16.575 22.55 16.4584 22.65 16.3584C22.75 16.2584 22.8667 16.2084 23 16.2084C23.1333 16.2084 23.25 16.2584 23.35 16.3584C23.45 16.4584 23.5 16.575 23.5 16.7084C23.5 16.8417 23.45 16.9584 23.35 17.0584C23.25 17.1584 23.1333 17.2084 23 17.2084ZM25 17.2084C24.8667 17.2084 24.75 17.1584 24.65 17.0584C24.55 16.9584 24.5 16.8417 24.5 16.7084C24.5 16.575 24.55 16.4584 24.65 16.3584C24.75 16.2584 24.8667 16.2084 25 16.2084C25.1333 16.2084 25.25 16.2584 25.35 16.3584C25.45 16.4584 25.5 16.575 25.5 16.7084C25.5 16.8417 25.45 16.9584 25.35 17.0584C25.25 17.1584 25.1333 17.2084 25 17.2084ZM21 17.2084C20.8667 17.2084 20.75 17.1584 20.65 17.0584C20.55 16.9584 20.5 16.8417 20.5 16.7084C20.5 16.575 20.55 16.4584 20.65 16.3584C20.75 16.2584 20.8667 16.2084 21 16.2084C21.1333 16.2084 21.25 16.2584 21.35 16.3584C21.45 16.4584 21.5 16.575 21.5 16.7084C21.5 16.8417 21.45 16.9584 21.35 17.0584C21.25 17.1584 21.1333 17.2084 21 17.2084ZM20 18.2084C19.8667 18.2084 19.75 18.1584 19.65 18.0584C19.55 17.9584 19.5 17.8417 19.5 17.7084C19.5 17.575 19.55 17.4584 19.65 17.3584C19.75 17.2584 19.8667 17.2084 20 17.2084C20.1333 17.2084 20.25 17.2584 20.35 17.3584C20.45 17.4584 20.5 17.575 20.5 17.7084C20.5 17.8417 20.45 17.9584 20.35 18.0584C20.25 18.1584 20.1333 18.2084 20 18.2084ZM18 18.2084C17.8667 18.2084 17.75 18.1584 17.65 18.0584C17.55 17.9584 17.5 17.8417 17.5 17.7084C17.5 17.575 17.55 17.4584 17.65 17.3584C17.75 17.2584 17.8667 17.2084 18 17.2084C18.1333 17.2084 18.25 17.2584 18.35 17.3584C18.45 17.4584 18.5 17.575 18.5 17.7084C18.5 17.8417 18.45 17.9584 18.35 18.0584C18.25 18.1584 18.1333 18.2084 18 18.2084ZM22 18.2084C21.8667 18.2084 21.75 18.1584 21.65 18.0584C21.55 17.9584 21.5 17.8417 21.5 17.7084C21.5 17.575 21.55 17.4584 21.65 17.3584C21.75 17.2584 21.8667 17.2084 22 17.2084C22.1333 17.2084 22.25 17.2584 22.35 17.3584C22.45 17.4584 22.5 17.575 22.5 17.7084C22.5 17.8417 22.45 17.9584 22.35 18.0584C22.25 18.1584 22.1333 18.2084 22 18.2084ZM24 18.2084C23.8667 18.2084 23.75 18.1584 23.65 18.0584C23.55 17.9584 23.5 17.8417 23.5 17.7084C23.5 17.575 23.55 17.4584 23.65 17.3584C23.75 17.2584 23.8667 17.2084 24 17.2084C24.1333 17.2084 24.25 17.2584 24.35 17.3584C24.45 17.4584 24.5 17.575 24.5 17.7084C24.5 17.8417 24.45 17.9584 24.35 18.0584C24.25 18.1584 24.1333 18.2084 24 18.2084ZM26 18.2084C25.8667 18.2084 25.75 18.1584 25.65 18.0584C25.55 17.9584 25.5 17.8417 25.5 17.7084C25.5 17.575 25.55 17.4584 25.65 17.3584C25.75 17.2584 25.8667 17.2084 26 17.2084C26.1333 17.2084 26.25 17.2584 26.35 17.3584C26.45 17.4584 26.5 17.575 26.5 17.7084C26.5 17.8417 26.45 17.9584 26.35 18.0584C26.25 18.1584 26.1333 18.2084 26 18.2084ZM23 19.2084C22.8667 19.2084 22.75 19.1584 22.65 19.0584C22.55 18.9584 22.5 18.8417 22.5 18.7084C22.5 18.575 22.55 18.4584 22.65 18.3584C22.75 18.2584 22.8667 18.2084 23 18.2084C23.1333 18.2084 23.25 18.2584 23.35 18.3584C23.45 18.4584 23.5 18.575 23.5 18.7084C23.5 18.8417 23.45 18.9584 23.35 19.0584C23.25 19.1584 23.1333 19.2084 23 19.2084ZM25 19.2084C24.8667 19.2084 24.75 19.1584 24.65 19.0584C24.55 18.9584 24.5 18.8417 24.5 18.7084C24.5 18.575 24.55 18.4584 24.65 18.3584C24.75 18.2584 24.8667 18.2084 25 18.2084C25.1333 18.2084 25.25 18.2584 25.35 18.3584C25.45 18.4584 25.5 18.575 25.5 18.7084C25.5 18.8417 25.45 18.9584 25.35 19.0584C25.25 19.1584 25.1333 19.2084 25 19.2084ZM27 19.2084C26.8667 19.2084 26.75 19.1584 26.65 19.0584C26.55 18.9584 26.5 18.8417 26.5 18.7084C26.5 18.575 26.55 18.4584 26.65 18.3584C26.75 18.2584 26.8667 18.2084 27 18.2084C27.1333 18.2084 27.25 18.2584 27.35 18.3584C27.45 18.4584 27.5 18.575 27.5 18.7084C27.5 18.8417 27.45 18.9584 27.35 19.0584C27.25 19.1584 27.1333 19.2084 27 19.2084ZM21 19.2084C20.8667 19.2084 20.75 19.1584 20.65 19.0584C20.55 18.9584 20.5 18.8417 20.5 18.7084C20.5 18.575 20.55 18.4584 20.65 18.3584C20.75 18.2584 20.8667 18.2084 21 18.2084C21.1333 18.2084 21.25 18.2584 21.35 18.3584C21.45 18.4584 21.5 18.575 21.5 18.7084C21.5 18.8417 21.45 18.9584 21.35 19.0584C21.25 19.1584 21.1333 19.2084 21 19.2084ZM19 19.2084C18.8667 19.2084 18.75 19.1584 18.65 19.0584C18.55 18.9584 18.5 18.8417 18.5 18.7084C18.5 18.575 18.55 18.4584 18.65 18.3584C18.75 18.2584 18.8667 18.2084 19 18.2084C19.1333 18.2084 19.25 18.2584 19.35 18.3584C19.45 18.4584 19.5 18.575 19.5 18.7084C19.5 18.8417 19.45 18.9584 19.35 19.0584C19.25 19.1584 19.1333 19.2084 19 19.2084ZM20 20.2084C19.8667 20.2084 19.75 20.1584 19.65 20.0584C19.55 19.9584 19.5 19.8417 19.5 19.7084C19.5 19.575 19.55 19.4584 19.65 19.3584C19.75 19.2584 19.8667 19.2084 20 19.2084C20.1333 19.2084 20.25 19.2584 20.35 19.3584C20.45 19.4584 20.5 19.575 20.5 19.7084C20.5 19.8417 20.45 19.9584 20.35 20.0584C20.25 20.1584 20.1333 20.2084 20 20.2084ZM18 20.2084C17.8667 20.2084 17.75 20.1584 17.65 20.0584C17.55 19.9584 17.5 19.8417 17.5 19.7084C17.5 19.575 17.55 19.4584 17.65 19.3584C17.75 19.2584 17.8667 19.2084 18 19.2084C18.1333 19.2084 18.25 19.2584 18.35 19.3584C18.45 19.4584 18.5 19.575 18.5 19.7084C18.5 19.8417 18.45 19.9584 18.35 20.0584C18.25 20.1584 18.1333 20.2084 18 20.2084ZM22 20.2084C21.8667 20.2084 21.75 20.1584 21.65 20.0584C21.55 19.9584 21.5 19.8417 21.5 19.7084C21.5 19.575 21.55 19.4584 21.65 19.3584C21.75 19.2584 21.8667 19.2084 22 19.2084C22.1333 19.2084 22.25 19.2584 22.35 19.3584C22.45 19.4584 22.5 19.575 22.5 19.7084C22.5 19.8417 22.45 19.9584 22.35 20.0584C22.25 20.1584 22.1333 20.2084 22 20.2084ZM24 20.2084C23.8667 20.2084 23.75 20.1584 23.65 20.0584C23.55 19.9584 23.5 19.8417 23.5 19.7084C23.5 19.575 23.55 19.4584 23.65 19.3584C23.75 19.2584 23.8667 19.2084 24 19.2084C24.1333 19.2084 24.25 19.2584 24.35 19.3584C24.45 19.4584 24.5 19.575 24.5 19.7084C24.5 19.8417 24.45 19.9584 24.35 20.0584C24.25 20.1584 24.1333 20.2084 24 20.2084ZM26 20.2084C25.8667 20.2084 25.75 20.1584 25.65 20.0584C25.55 19.9584 25.5 19.8417 25.5 19.7084C25.5 19.575 25.55 19.4584 25.65 19.3584C25.75 19.2584 25.8667 19.2084 26 19.2084C26.1333 19.2084 26.25 19.2584 26.35 19.3584C26.45 19.4584 26.5 19.575 26.5 19.7084C26.5 19.8417 26.45 19.9584 26.35 20.0584C26.25 20.1584 26.1333 20.2084 26 20.2084ZM28 20.2084C27.8667 20.2084 27.75 20.1584 27.65 20.0584C27.55 19.9584 27.5 19.8417 27.5 19.7084C27.5 19.575 27.55 19.4584 27.65 19.3584C27.75 19.2584 27.8667 19.2084 28 19.2084C28.1333 19.2084 28.25 19.2584 28.35 19.3584C28.45 19.4584 28.5 19.575 28.5 19.7084C28.5 19.8417 28.45 19.9584 28.35 20.0584C28.25 20.1584 28.1333 20.2084 28 20.2084ZM16 20.2084C15.8667 20.2084 15.75 20.1584 15.65 20.0584C15.55 19.9584 15.5 19.8417 15.5 19.7084C15.5 19.575 15.55 19.4584 15.65 19.3584C15.75 19.2584 15.8667 19.2084 16 19.2084C16.1333 19.2084 16.25 19.2584 16.35 19.3584C16.45 19.4584 16.5 19.575 16.5 19.7084C16.5 19.8417 16.45 19.9584 16.35 20.0584C16.25 20.1584 16.1333 20.2084 16 20.2084ZM17 19.2084C16.8667 19.2084 16.75 19.1667 16.65 19.0834C16.55 19 16.5 18.8869 16.5 18.744C16.5 18.6012 16.5451 18.4762 16.6354 18.369C16.7257 18.2619 16.8438 18.2084 16.9896 18.2084C17.1354 18.2084 17.257 18.2584 17.3542 18.3584C17.4514 18.4584 17.5 18.575 17.5 18.7084C17.5 18.8417 17.45 18.9584 17.35 19.0584C17.25 19.1584 17.1333 19.2084 17 19.2084ZM19 17.2084C18.8667 17.2084 18.75 17.1632 18.65 17.073C18.55 16.9827 18.5 16.8646 18.5 16.7188C18.5 16.573 18.55 16.4514 18.65 16.3542C18.75 16.257 18.8667 16.2084 19 16.2084C19.1333 16.2084 19.25 16.2584 19.35 16.3584C19.45 16.4584 19.5 16.575 19.5 16.7084C19.5 16.8417 19.45 16.9584 19.35 17.0584C19.25 17.1584 19.1333 17.2084 19 17.2084ZM20 16.2084C19.8667 16.2084 19.75 16.1584 19.65 16.0584C19.55 15.9584 19.5 15.8417 19.5 15.7084C19.5 15.575 19.55 15.4584 19.65 15.3584C19.75 15.2584 19.8667 15.2084 20 15.2084C20.1333 15.2084 20.25 15.2584 20.35 15.3584C20.45 15.4584 20.5 15.575 20.5 15.7084C20.5 15.8417 20.45 15.9584 20.35 16.0584C20.25 16.1584 20.1333 16.2084 20 16.2084ZM22 16.2084C21.8667 16.2084 21.75 16.1584 21.65 16.0584C21.55 15.9584 21.5 15.8417 21.5 15.7084C21.5 15.575 21.55 15.4584 21.65 15.3584C21.75 15.2584 21.8667 15.2084 22 15.2084C22.1333 15.2084 22.25 15.2584 22.35 15.3584C22.45 15.4584 22.5 15.575 22.5 15.7084C22.5 15.8417 22.45 15.9584 22.35 16.0584C22.25 16.1584 22.1333 16.2084 22 16.2084ZM23.9792 16.2084C23.8458 16.2084 23.7292 16.1632 23.6292 16.073C23.5292 15.9827 23.4792 15.8646 23.4792 15.7188C23.4792 15.573 23.5292 15.4514 23.6292 15.3542C23.7292 15.257 23.8458 15.2084 23.9792 15.2084C24.1125 15.2084 24.2292 15.257 24.3292 15.3542C24.4292 15.4514 24.4792 15.573 24.4792 15.7188C24.4792 15.8646 24.4292 15.9827 24.3292 16.073C24.2292 16.1632 24.1125 16.2084 23.9792 16.2084ZM19.5023 23.5C19.223 23.5 18.9861 23.4036 18.7917 23.2107C18.5972 23.0179 18.5 22.7818 18.5 22.5023C18.5 22.223 18.5965 21.9862 18.7894 21.7917C18.9822 21.5973 19.2183 21.5 19.4977 21.5C19.777 21.5 20.0139 21.5965 20.2083 21.7894C20.4028 21.9822 20.5 22.2183 20.5 22.4977C20.5 22.7771 20.4036 23.0139 20.2106 23.2084C20.0179 23.4028 19.7817 23.5 19.5023 23.5ZM24.5023 23.5C24.223 23.5 23.9861 23.4036 23.7917 23.2107C23.5972 23.0179 23.5 22.7818 23.5 22.5023C23.5 22.223 23.5965 21.9862 23.7894 21.7917C23.9822 21.5973 24.2183 21.5 24.4977 21.5C24.777 21.5 25.0139 21.5965 25.2083 21.7894C25.4028 21.9822 25.5 22.2183 25.5 22.4977C25.5 22.7771 25.4036 23.0139 25.2106 23.2084C25.0179 23.4028 24.7817 23.5 24.5023 23.5ZM22.0033 29.1667C21.0147 29.1667 20.0843 28.9791 19.2121 28.6038C18.3397 28.2285 17.578 27.7163 16.9269 27.0671C16.2756 26.4178 15.7639 25.6573 15.3917 24.7857C15.0195 23.9139 14.8333 22.9862 14.8333 22.0027C14.8333 21.0073 15.0203 20.0777 15.3942 19.214C15.7682 18.3502 16.2797 17.5885 16.9288 16.9288C17.5778 16.2691 18.3395 15.7549 19.214 15.3863C20.0884 15.0177 21.0167 14.8334 21.999 14.8334C22.9933 14.8334 23.9223 15.0177 24.7861 15.3863C25.6498 15.7549 26.4115 16.2691 27.0713 16.9288C27.731 17.5885 28.2451 18.3499 28.6138 19.213C28.9824 20.076 29.1667 21.0037 29.1667 21.9959C29.1667 22.9793 28.9824 23.9089 28.6138 24.7844C28.2451 25.66 27.731 26.4223 27.0713 27.0713C26.4115 27.7203 25.6501 28.2318 24.7871 28.6059C23.924 28.9798 22.9961 29.1667 22.0033 29.1667ZM21.9904 28.5C23.8024 28.5 25.3403 27.8679 26.6042 26.6036C27.8681 25.3393 28.5 23.808 28.5 22.0096C28.5 20.1977 27.8681 18.6598 26.6042 17.3959C25.3403 16.132 23.8024 15.5 21.9904 15.5C20.1921 15.5 18.6608 16.132 17.3965 17.3959C16.1322 18.6598 15.5 20.1977 15.5 22.0096C15.5 23.808 16.1322 25.3393 17.3965 26.6036C18.6608 27.8679 20.1921 28.5 21.9904 28.5Z" fill="white"/>
    </g>
    <defs>
        <filter id="filter0_f_1541_38402" x="1.91488" y="1.81002" width="33.3617" height="33.3619" filterUnits="userSpaceOnUse" color-interpolation-filters="sRGB">
            <feFlood flood-opacity="0" result="BackgroundImageFix"/>
            <feBlend mode="normal" in="SourceGraphic" in2="BackgroundImageFix" result="shape"/>
            <feGaussianBlur stdDeviation="2.04256" result="effect1_foregroundBlur_1541_38402"/>
        </filter>
        <filter id="filter1_f_1541_38402" x="1.91534" y="1.81039" width="33.3617" height="33.3619" filterUnits="userSpaceOnUse" color-interpolation-filters="sRGB">
            <feFlood flood-opacity="0" result="BackgroundImageFix"/>
            <feBlend mode="normal" in="SourceGraphic" in2="BackgroundImageFix" result="shape"/>
            <feGaussianBlur stdDeviation="2.04256" result="effect1_foregroundBlur_1541_38402"/>
        </filter>
        <filter id="filter2_f_1541_38402" x="1.91488" y="1.81002" width="40.1702" height="39.4896" filterUnits="userSpaceOnUse" color-interpolation-filters="sRGB">
            <feFlood flood-opacity="0" result="BackgroundImageFix"/>
            <feBlend mode="normal" in="SourceGraphic" in2="BackgroundImageFix" result="shape"/>
            <feGaussianBlur stdDeviation="2.04256" result="effect1_foregroundBlur_1541_38402"/>
        </filter>
        <filter id="filter3_f_1541_38402" x="1.91488" y="1.81002" width="40.1702" height="39.4896" filterUnits="userSpaceOnUse" color-interpolation-filters="sRGB">
            <feFlood flood-opacity="0" result="BackgroundImageFix"/>
            <feBlend mode="normal" in="SourceGraphic" in2="BackgroundImageFix" result="shape"/>
            <feGaussianBlur stdDeviation="2.04256" result="effect1_foregroundBlur_1541_38402"/>
        </filter>
        <filter id="filter4_f_1541_38402" x="0.553175" y="0.448317" width="40.5107" height="40.5108" filterUnits="userSpaceOnUse" color-interpolation-filters="sRGB">
            <feFlood flood-opacity="0" result="BackgroundImageFix"/>
            <feBlend mode="normal" in="SourceGraphic" in2="BackgroundImageFix" result="shape"/>
            <feGaussianBlur stdDeviation="2.72341" result="effect1_foregroundBlur_1541_38402"/>
        </filter>
    </defs>
</svg>
