<svg width="18" height="18" viewBox="0 0 18 18" fill="none" xmlns="http://www.w3.org/2000/svg">
<mask id="mask0_5656_17792" style="mask-type:alpha" maskUnits="userSpaceOnUse" x="0" y="0" width="18" height="18">
<rect width="18" height="18" fill="#D9D9D9"/>
</mask>
<g mask="url(#mask0_5656_17792)">
<path d="M8.9999 13.9866L8.7374 13.7429C7.5374 12.6554 6.54678 11.7335 5.76553 10.9772C4.98428 10.221 4.3749 9.56475 3.9374 9.0085C3.4999 8.45225 3.19678 7.95537 3.02803 7.51787C2.85928 7.08037 2.7749 6.64287 2.7749 6.20537C2.7749 5.38037 3.06553 4.67725 3.64678 4.096C4.22803 3.51475 4.93115 3.22412 5.75615 3.22412C6.38115 3.22412 6.9749 3.396 7.5374 3.73975C8.0999 4.0835 8.5874 4.58662 8.9999 5.24912C9.4124 4.58662 9.8999 4.0835 10.4624 3.73975C11.0249 3.396 11.6187 3.22412 12.2437 3.22412C13.0687 3.22412 13.7718 3.51475 14.353 4.096C14.9343 4.67725 15.2249 5.38037 15.2249 6.20537C15.2249 6.64287 15.1437 7.07412 14.9812 7.49912C14.8187 7.92412 14.5187 8.41162 14.0812 8.96162C13.6437 9.51162 13.0343 10.171 12.253 10.9397C11.4718 11.7085 10.4624 12.6554 9.2249 13.7804L8.9999 13.9866Z" fill="#24ADFA"/>
</g>
</svg>
