<svg width="25" height="24" viewBox="0 0 25 24" fill="none" xmlns="http://www.w3.org/2000/svg">
    <mask id="mask0_5841_40916" style="mask-type:alpha" maskUnits="userSpaceOnUse" x="0" y="0"
        width="25" height="24">
        <rect x="0.5" width="24" height="24" fill="currentColor" />
    </mask>
    <g mask="url(#mask0_5841_40916)">
        <path
            d="M1 16.3848V15.4805C1 14.8373 1.34366 14.3036 2.03097 13.8793C2.71846 13.4552 3.60326 13.2432 4.68537 13.2432C4.84507 13.2432 5.0162 13.2508 5.19876 13.2662C5.38149 13.2817 5.57558 13.307 5.781 13.3419C5.61712 13.6277 5.49756 13.921 5.42234 14.2218C5.34729 14.5225 5.30976 14.8239 5.30976 15.126V16.3848H1ZM7.28321 16.3848V15.2067C7.28321 14.7846 7.40574 14.3988 7.65078 14.0492C7.89583 13.6998 8.25729 13.3975 8.73516 13.1424C9.21321 12.8874 9.77006 12.6961 10.4057 12.5685C11.0414 12.4409 11.7432 12.3771 12.5111 12.3771C13.2939 12.3771 14.0031 12.4409 14.6388 12.5685C15.2744 12.6961 15.8313 12.8874 16.3093 13.1424C16.7872 13.3975 17.1477 13.6998 17.3908 14.0492C17.6338 14.3988 17.7552 14.7846 17.7552 15.2067V16.3848H7.28321ZM19.7287 16.3848V15.1321C19.7287 14.798 19.6921 14.4832 19.619 14.1877C19.5459 13.8923 19.4362 13.6103 19.2899 13.3419C19.5086 13.307 19.705 13.2817 19.879 13.2662C20.0528 13.2508 20.2176 13.2432 20.3732 13.2432C21.4554 13.2432 22.3367 13.4543 23.0174 13.8765C23.6981 14.2987 24.0385 14.8333 24.0385 15.4805V16.3848H19.7287ZM4.67987 12.2562C4.26867 12.2562 3.91838 12.1103 3.629 11.8184C3.3398 11.5266 3.1952 11.1758 3.1952 10.766C3.1952 10.3606 3.34111 10.0142 3.63293 9.72692C3.92475 9.43963 4.27556 9.29599 4.68537 9.29599C5.09081 9.29599 5.44057 9.43963 5.73466 9.72692C6.02858 10.0142 6.17554 10.3626 6.17554 10.772C6.17554 11.1694 6.03224 11.5161 5.74566 11.8122C5.4589 12.1082 5.10364 12.2562 4.67987 12.2562ZM20.3732 12.2562C19.9718 12.2562 19.6231 12.1082 19.3271 11.8122C19.0311 11.5161 18.8831 11.1694 18.8831 10.772C18.8831 10.3626 19.0311 10.0142 19.3271 9.72692C19.6231 9.43963 19.9731 9.29599 20.3772 9.29599C20.7934 9.29599 21.1452 9.43963 21.4325 9.72692C21.7198 10.0142 21.8634 10.3606 21.8634 10.766C21.8634 11.1758 21.7206 11.5266 21.4351 11.8184C21.1494 12.1103 20.7954 12.2562 20.3732 12.2562ZM12.5263 11.5917C11.8906 11.5917 11.3479 11.3685 10.8982 10.922C10.4484 10.4758 10.2235 9.93374 10.2235 9.29599C10.2235 8.6455 10.4466 8.10026 10.8929 7.66026C11.3394 7.22009 11.8815 7 12.5192 7C13.1697 7 13.715 7.21939 14.155 7.65817C14.595 8.09677 14.815 8.64035 14.815 9.28892C14.815 9.92457 14.5957 10.4673 14.1571 10.9171C13.7184 11.3668 13.1749 11.5917 12.5263 11.5917Z"
            fill="currentColor" fillOpacity="1" />
    </g>
</svg>