<svg xmlns="http://www.w3.org/2000/svg" width="25" height="24" viewBox="0 0 25 24" fill="none">
    <mask id="mask0_4812_41002" style="mask-type:alpha" maskUnits="userSpaceOnUse" x="0" y="0" width="25" height="24">
        <rect x="0.5" width="24" height="24" fill="#D9D9D9"/>
    </mask>
    <g mask="url(#mask0_4812_41002)">
        <path d="M12.528 17.2308C12.749 17.2308 12.9355 17.1544 13.0875 17.0017C13.2395 16.8491 13.3155 16.6623 13.3155 16.4413C13.3155 16.2201 13.2392 16.0336 13.0865 15.8818C12.9338 15.7298 12.7469 15.6538 12.5258 15.6538C12.3048 15.6538 12.1183 15.7301 11.9663 15.8828C11.8144 16.0354 11.7385 16.2223 11.7385 16.4435C11.7385 16.6645 11.8148 16.851 11.9675 17.003C12.1202 17.1548 12.307 17.2308 12.528 17.2308ZM12.0115 13.9192H12.977C13.0027 13.4846 13.0843 13.1313 13.222 12.8595C13.3598 12.5878 13.6435 12.2411 14.073 11.8193C14.5192 11.3731 14.8513 10.9734 15.0693 10.6203C15.2873 10.2671 15.3962 9.85825 15.3962 9.39375C15.3962 8.60558 15.1193 7.9775 14.5655 7.5095C14.0117 7.04167 13.3565 6.80775 12.6 6.80775C11.8808 6.80775 11.2703 7.00325 10.7683 7.39425C10.2664 7.78525 9.89883 8.23458 9.6655 8.74225L10.5845 9.123C10.7448 8.759 10.974 8.43725 11.272 8.15775C11.5702 7.87825 12 7.7385 12.5615 7.7385C13.2102 7.7385 13.6839 7.91633 13.9827 8.272C14.2814 8.62783 14.4307 9.01925 14.4307 9.44625C14.4307 9.79242 14.3372 10.1017 14.15 10.374C13.9628 10.6465 13.7193 10.9206 13.4193 11.1962C12.8398 11.7308 12.4602 12.1839 12.2808 12.5558C12.1013 12.9276 12.0115 13.3821 12.0115 13.9192ZM12.5033 21C11.2587 21 10.0887 20.7638 8.993 20.2915C7.8975 19.8192 6.9445 19.1782 6.134 18.3685C5.3235 17.5588 4.68192 16.6067 4.20925 15.512C3.73642 14.4175 3.5 13.2479 3.5 12.0033C3.5 10.7587 3.73617 9.58867 4.2085 8.493C4.68083 7.3975 5.32183 6.4445 6.1315 5.634C6.94117 4.8235 7.89333 4.18192 8.988 3.70925C10.0825 3.23642 11.2521 3 12.4967 3C13.7413 3 14.9113 3.23617 16.007 3.7085C17.1025 4.18083 18.0555 4.82183 18.866 5.6315C19.6765 6.44117 20.3181 7.39333 20.7908 8.488C21.2636 9.5825 21.5 10.7521 21.5 11.9967C21.5 13.2413 21.2638 14.4113 20.7915 15.507C20.3192 16.6025 19.6782 17.5555 18.8685 18.366C18.0588 19.1765 17.1067 19.8181 16.012 20.2908C14.9175 20.7636 13.7479 21 12.5033 21ZM12.5 20C14.7333 20 16.625 19.225 18.175 17.675C19.725 16.125 20.5 14.2333 20.5 12C20.5 9.76667 19.725 7.875 18.175 6.325C16.625 4.775 14.7333 4 12.5 4C10.2667 4 8.375 4.775 6.825 6.325C5.275 7.875 4.5 9.76667 4.5 12C4.5 14.2333 5.275 16.125 6.825 17.675C8.375 19.225 10.2667 20 12.5 20Z" fill="white" fill-opacity="0.6"/>
    </g>
</svg>
