<svg xmlns="http://www.w3.org/2000/svg" width="40" height="32" viewBox="0 0 40 32" fill="none">
    <path fill-rule="evenodd" clip-rule="evenodd" d="M3.48113 13.7758C13.8463 9.25985 20.758 6.28267 24.2163 4.84424C34.0905 0.737239 36.1423 0.0238091 37.4796 0.00025118C37.7737 -0.00493012 38.4314 0.0679637 38.8574 0.413632C39.2171 0.705508 39.316 1.09979 39.3634 1.37652C39.4107 1.65325 39.4697 2.28365 39.4228 2.77623C38.8878 8.3984 36.5725 22.0419 35.3946 28.3389C34.8961 31.0033 33.9148 31.8967 32.9647 31.9841C30.8999 32.1741 29.332 30.6196 27.3322 29.3087C24.2028 27.2573 22.4349 25.9804 19.3973 23.9787C15.8869 21.6653 18.1626 20.3939 20.1632 18.316C20.6867 17.7722 29.7842 9.49735 29.9603 8.74669C29.9823 8.65281 30.0027 8.30286 29.7948 8.11807C29.5869 7.93329 29.2801 7.99648 29.0587 8.04673C28.7448 8.11797 23.7456 11.4222 14.0611 17.9596C12.6421 18.9339 11.3568 19.4087 10.2053 19.3838C8.93574 19.3564 6.4937 18.666 4.6783 18.0759C2.45163 17.3521 0.681912 16.9694 0.836015 15.7402C0.916281 15.0999 1.79798 14.4451 3.48113 13.7758Z" fill="white"/>
</svg>
