<svg xmlns="http://www.w3.org/2000/svg" width="67" height="56" viewBox="0 0 67 56" fill="none">
    <path fill-rule="evenodd" clip-rule="evenodd" d="M4.56924 23.7128C22.4112 15.9394 34.3087 10.8146 40.2616 8.33859C57.2584 1.26904 60.7901 0.0409835 63.0921 0.000432366C63.5984 -0.00848641 64.7305 0.116989 65.4638 0.712002C66.0829 1.21442 66.2533 1.89311 66.3348 2.36946C66.4163 2.84581 66.5178 3.93094 66.4371 4.77883C65.5161 14.4565 61.5307 37.9417 59.5031 48.7808C58.6452 53.3673 56.9559 54.9051 55.3204 55.0556C51.7663 55.3826 49.0674 52.7067 45.625 50.4502C40.2383 46.9192 37.1952 44.7211 31.9664 41.2754C25.9238 37.2934 29.841 35.1048 33.2847 31.528C34.1859 30.592 49.8457 16.3482 50.1488 15.056C50.1867 14.8944 50.2219 14.292 49.8641 13.974C49.5062 13.6559 48.978 13.7647 48.5969 13.8512C48.0566 13.9738 39.4513 19.6616 22.781 30.9145C20.3384 32.5918 18.126 33.409 16.1438 33.3661C13.9585 33.3189 9.75491 32.1306 6.62997 31.1148C2.79712 29.8689 -0.24916 29.2101 0.0161022 27.0942C0.154267 25.9921 1.67198 24.865 4.56924 23.7128Z" fill="white"/>
</svg>
