<svg xmlns="http://www.w3.org/2000/svg" width="25" height="24" viewBox="0 0 25 24" fill="none">
    <mask id="mask0_4812_41007" style="mask-type:alpha" maskUnits="userSpaceOnUse" x="0" y="0" width="25" height="24">
        <rect x="0.5" width="24" height="24" fill="#D9D9D9"/>
    </mask>
    <g mask="url(#mask0_4812_41007)">
        <path d="M10.425 13.277L11.2038 10.6962L9.15375 9.19225H11.7155L12.5 6.5845L13.2845 9.19225H15.8462L13.7905 10.6962L14.5693 13.277L12.5 11.675L10.425 13.277ZM7.5 21.4615V14.8713C6.86667 14.2481 6.375 13.5186 6.025 12.6827C5.675 11.8468 5.5 10.9525 5.5 10C5.5 8.04867 6.17883 6.39417 7.5365 5.0365C8.89417 3.67883 10.5487 3 12.5 3C14.4513 3 16.1058 3.67883 17.4635 5.0365C18.8212 6.39417 19.5 8.04867 19.5 10C19.5 10.9525 19.325 11.8468 18.975 12.6827C18.625 13.5186 18.1333 14.2481 17.5 14.8713V21.4615L12.5 19.9615L7.5 21.4615ZM12.5 16C14.1667 16 15.5833 15.4167 16.75 14.25C17.9167 13.0833 18.5 11.6667 18.5 10C18.5 8.33333 17.9167 6.91667 16.75 5.75C15.5833 4.58333 14.1667 4 12.5 4C10.8333 4 9.41667 4.58333 8.25 5.75C7.08333 6.91667 6.5 8.33333 6.5 10C6.5 11.6667 7.08333 13.0833 8.25 14.25C9.41667 15.4167 10.8333 16 12.5 16ZM8.5 20.0443L12.5 18.923L16.5 20.0443V15.7135C15.9423 16.1237 15.3228 16.4407 14.6413 16.6645C13.9599 16.8882 13.2462 17 12.5 17C11.7538 17 11.0401 16.8882 10.3588 16.6645C9.67725 16.4407 9.05767 16.1237 8.5 15.7135V20.0443Z" fill="white" fill-opacity="0.6"/>
    </g>
</svg>
