<svg width="25" height="24" viewBox="0 0 25 24" fill="none" xmlns="http://www.w3.org/2000/svg">
    <mask id="mask0_6170_8032" style="mask-type:alpha" maskUnits="userSpaceOnUse" x="0" y="0"
        width="25" height="24">
        <rect x="0.5" width="24" height="24" fill="currentColor" />
    </mask>
    <g mask="url(#mask0_6170_8032)">
        <path
            d="M7.975 20.0001C6.74033 20.0001 5.68583 19.5629 4.8115 18.6886C3.93717 17.8142 3.5 16.7597 3.5 15.5251C3.5 14.3097 3.92467 13.2677 4.774 12.3991C5.62333 11.5306 6.65575 11.0828 7.87125 11.0558C7.99942 11.0558 8.12758 11.0654 8.25575 11.0846C8.38392 11.1039 8.51217 11.1264 8.6405 11.1521L5.34625 4.53857H10.1155L12.5 9.30782L14.8845 4.53857H19.6538L16.3845 11.0828C16.5 11.0572 16.6187 11.0379 16.7405 11.0251C16.8622 11.0122 16.9872 11.0058 17.1155 11.0058C18.3398 11.0367 19.3767 11.4863 20.226 12.3548C21.0753 13.2235 21.5 14.2719 21.5 15.5001C21.5 16.7514 21.0628 17.8142 20.1885 18.6886C19.3142 19.5629 18.2513 20.0001 17 20.0001C16.8115 20.0001 16.6188 19.9895 16.422 19.9683C16.2253 19.9472 16.0392 19.9071 15.8635 19.8481C16.652 19.5046 17.2052 18.9209 17.523 18.0971C17.841 17.2734 18 16.4077 18 15.5001C18 13.9654 17.467 12.6651 16.401 11.5991C15.335 10.5331 14.0347 10.0001 12.5 10.0001C10.9653 10.0001 9.665 10.5331 8.599 11.5991C7.533 12.6651 7 13.9654 7 15.5001C7 16.4154 7.14683 17.2962 7.4405 18.1423C7.734 18.9885 8.29742 19.5571 9.13075 19.8481C8.94225 19.9071 8.75283 19.9472 8.5625 19.9683C8.37217 19.9895 8.17633 20.0001 7.975 20.0001ZM12.5 20.0001C11.25 20.0001 10.1875 19.5626 9.3125 18.6876C8.4375 17.8126 8 16.7501 8 15.5001C8 14.2501 8.4375 13.1876 9.3125 12.3126C10.1875 11.4376 11.25 11.0001 12.5 11.0001C13.75 11.0001 14.8125 11.4376 15.6875 12.3126C16.5625 13.1876 17 14.2501 17 15.5001C17 16.7501 16.5625 17.8126 15.6875 18.6876C14.8125 19.5626 13.75 20.0001 12.5 20.0001ZM10.9385 17.7886L12.5 16.6001L14.0615 17.7886L13.477 15.8596L15.0385 14.7463H13.1095L12.5 12.7116L11.8905 14.7463H9.9615L11.523 15.8596L10.9385 17.7886Z"
            fill="currentColor" fill-opacity="0.6" />
    </g>
</svg>