<svg width="30" height="30" viewBox="0 0 30 30" fill="none" xmlns="http://www.w3.org/2000/svg">
<mask id="mask0_5615_17579" style="mask-type:alpha" maskUnits="userSpaceOnUse" x="0" y="0" width="30" height="30">
<rect width="30" height="30" fill="#D9D9D9"/>
</mask>
<g mask="url(#mask0_5615_17579)">
<path d="M12.4062 16.5962L13.3797 13.3703L10.8172 11.4903H14.0194L15 8.23063L15.9806 11.4903H19.1828L16.6131 13.3703L17.5866 16.5962L15 14.5938L12.4062 16.5962ZM8.75 26.8269V18.5891C7.95833 17.8101 7.34375 16.8982 6.90625 15.8534C6.46875 14.8084 6.25 13.6906 6.25 12.5C6.25 10.0608 7.09854 7.99271 8.79562 6.29563C10.4927 4.59854 12.5608 3.75 15 3.75C17.4392 3.75 19.5073 4.59854 21.2044 6.29563C22.9015 7.99271 23.75 10.0608 23.75 12.5C23.75 13.6906 23.5312 14.8084 23.0938 15.8534C22.6562 16.8982 22.0417 17.8101 21.25 18.5891V26.8269L15 24.9519L8.75 26.8269ZM15 20C17.0833 20 18.8542 19.2708 20.3125 17.8125C21.7708 16.3542 22.5 14.5833 22.5 12.5C22.5 10.4167 21.7708 8.64583 20.3125 7.1875C18.8542 5.72917 17.0833 5 15 5C12.9167 5 11.1458 5.72917 9.6875 7.1875C8.22917 8.64583 7.5 10.4167 7.5 12.5C7.5 14.5833 8.22917 16.3542 9.6875 17.8125C11.1458 19.2708 12.9167 20 15 20ZM10 25.0553L15 23.6537L20 25.0553V19.6419C19.3029 20.1546 18.5284 20.5508 17.6766 20.8306C16.8249 21.1102 15.9327 21.25 15 21.25C14.0673 21.25 13.1751 21.1102 12.3234 20.8306C11.4716 20.5508 10.6971 20.1546 10 19.6419V25.0553Z" fill="white" fill-opacity="0.99"/>
</g>
</svg>
