<svg width="25" height="24" viewBox="0 0 25 24" fill="none" xmlns="http://www.w3.org/2000/svg">
<mask id="mask0_1_55343" style="mask-type:alpha" maskUnits="userSpaceOnUse" x="0" y="0" width="25" height="24">
<rect x="0.5" width="24" height="24" fill="#D9D9D9"/>
</mask>
<g mask="url(#mask0_1_55343)">
<path d="M8.15385 9.11537V8.11537H20.5V9.11537H8.15385ZM8.15385 12.5V11.5H20.5V12.5H8.15385ZM8.15385 15.8846V14.8846H20.5V15.8846H8.15385ZM5.11538 9.23078C4.94103 9.23078 4.79487 9.16996 4.67692 9.04832C4.55897 8.92669 4.5 8.77597 4.5 8.59615C4.5 8.42723 4.55897 8.28565 4.67692 8.1714C4.79487 8.05713 4.94103 8 5.11538 8C5.28974 8 5.4359 8.05713 5.55385 8.1714C5.6718 8.28565 5.73078 8.42723 5.73078 8.59615C5.73078 8.77597 5.6718 8.92669 5.55385 9.04832C5.4359 9.16996 5.28974 9.23078 5.11538 9.23078ZM5.11538 12.5962C4.94103 12.5962 4.79487 12.539 4.67692 12.4247C4.55897 12.3105 4.5 12.1689 4.5 12C4.5 11.8064 4.55897 11.6523 4.67692 11.5375C4.79487 11.4228 4.94103 11.3654 5.11538 11.3654C5.28974 11.3654 5.4359 11.4228 5.55385 11.5375C5.6718 11.6523 5.73078 11.8064 5.73078 12C5.73078 12.1689 5.6718 12.3105 5.55385 12.4247C5.4359 12.539 5.28974 12.5962 5.11538 12.5962ZM5.11538 16C4.94103 16 4.79487 15.9392 4.67692 15.8176C4.55897 15.6959 4.5 15.5452 4.5 15.3654C4.5 15.1965 4.55897 15.0549 4.67692 14.9406C4.79487 14.8264 4.94103 14.7692 5.11538 14.7692C5.28974 14.7692 5.4359 14.8264 5.55385 14.9406C5.6718 15.0549 5.73078 15.1965 5.73078 15.3654C5.73078 15.5452 5.6718 15.6959 5.55385 15.8176C5.4359 15.9392 5.28974 16 5.11538 16Z" fill="#007AFF"/>
</g>
</svg>
