<svg xmlns="http://www.w3.org/2000/svg" width="24" height="24" viewBox="0 0 24 24" fill="none">
    <g id="pending">
        <mask id="mask0_5045_42280" style="mask-type:alpha" maskUnits="userSpaceOnUse" x="0" y="0"
            width="24" height="24">
            <rect id="Bounding box" width="24" height="24" fill="#D9D9D9" />
        </mask>
        <g mask="url(#mask0_5045_42280)">
            <path id="pending_2"
                d="M6.99775 13C7.27492 13 7.51125 12.903 7.70675 12.709C7.90225 12.515 8 12.2794 8 12.0022C8 11.7251 7.903 11.4888 7.709 11.2933C7.515 11.0977 7.27942 11 7.00225 11C6.72508 11 6.48875 11.097 6.29325 11.291C6.09775 11.485 6 11.7206 6 11.9978C6 12.2749 6.097 12.5112 6.291 12.7067C6.485 12.9023 6.72058 13 6.99775 13ZM11.9978 13C12.2749 13 12.5112 12.903 12.7067 12.709C12.9023 12.515 13 12.2794 13 12.0022C13 11.7251 12.903 11.4888 12.709 11.2933C12.515 11.0977 12.2794 11 12.0022 11C11.7251 11 11.4888 11.097 11.2933 11.291C11.0977 11.485 11 11.7206 11 11.9978C11 12.2749 11.097 12.5112 11.291 12.7067C11.485 12.9023 11.7206 13 11.9978 13ZM16.9977 13C17.2749 13 17.5113 12.903 17.7068 12.709C17.9023 12.515 18 12.2794 18 12.0022C18 11.7251 17.903 11.4888 17.709 11.2933C17.515 11.0977 17.2794 11 17.0023 11C16.7251 11 16.4888 11.097 16.2933 11.291C16.0977 11.485 16 11.7206 16 11.9978C16 12.2749 16.097 12.5112 16.291 12.7067C16.485 12.9023 16.7206 13 16.9977 13ZM12.0033 21C10.7587 21 9.58867 20.7638 8.493 20.2915C7.3975 19.8192 6.4445 19.1782 5.634 18.3685C4.8235 17.5588 4.18192 16.6067 3.70925 15.512C3.23642 14.4175 3 13.2479 3 12.0033C3 10.7587 3.23617 9.58867 3.7085 8.493C4.18083 7.3975 4.82183 6.4445 5.6315 5.634C6.44117 4.8235 7.39333 4.18192 8.488 3.70925C9.5825 3.23642 10.7521 3 11.9967 3C13.2413 3 14.4113 3.23617 15.507 3.7085C16.6025 4.18083 17.5555 4.82183 18.366 5.6315C19.1765 6.44117 19.8181 7.39333 20.2908 8.488C20.7636 9.5825 21 10.7521 21 11.9967C21 13.2413 20.7638 14.4113 20.2915 15.507C19.8192 16.6025 19.1782 17.5555 18.3685 18.366C17.5588 19.1765 16.6067 19.8181 15.512 20.2908C14.4175 20.7636 13.2479 21 12.0033 21ZM12 20C14.2333 20 16.125 19.225 17.675 17.675C19.225 16.125 20 14.2333 20 12C20 9.76667 19.225 7.875 17.675 6.325C16.125 4.775 14.2333 4 12 4C9.76667 4 7.875 4.775 6.325 6.325C4.775 7.875 4 9.76667 4 12C4 14.2333 4.775 16.125 6.325 17.675C7.875 19.225 9.76667 20 12 20Z"
                fill="white" />
        </g>
    </g>
</svg>