<svg xmlns="http://www.w3.org/2000/svg" width="24" height="25" viewBox="0 0 24 25" fill="none">
    <mask id="mask0_4533_62801" style="mask-type:alpha" maskUnits="userSpaceOnUse" x="0" y="0" width="24" height="25">
        <rect y="0.5" width="24" height="24" fill="#D9D9D9"/>
    </mask>
    <g mask="url(#mask0_4533_62801)">
        <path d="M11.6 19H12.35V17.85C13.0334 17.8167 13.7125 17.5792 14.3875 17.1375C15.0625 16.6959 15.4 16 15.4 15.05C15.4 14.35 15.1834 13.7667 14.75 13.3C14.3167 12.8334 13.5 12.3834 12.3 11.95C11.1667 11.55 10.4584 11.2084 10.175 10.925C9.89172 10.6417 9.75005 10.2334 9.75005 9.70005C9.75005 9.16672 9.96255 8.71672 10.3875 8.35005C10.8125 7.98338 11.3667 7.80005 12.05 7.80005C12.55 7.80005 12.975 7.91255 13.325 8.13755C13.675 8.36255 13.9667 8.65005 14.2 9.00005L14.85 8.75005C14.6 8.30005 14.2542 7.92922 13.8125 7.63755C13.3709 7.34588 12.9 7.18338 12.4 7.15005V6.00005H11.65V7.15005C10.7667 7.28338 10.1042 7.59588 9.66255 8.08755C9.22088 8.57922 9.00005 9.11672 9.00005 9.70005C9.00005 10.4 9.22505 10.9584 9.67505 11.375C10.125 11.7917 10.9 12.2 12 12.6C13.0834 13 13.8042 13.3625 14.1625 13.6875C14.5209 14.0125 14.7 14.4667 14.7 15.05C14.7 15.8 14.425 16.3375 13.875 16.6625C13.325 16.9875 12.75 17.15 12.15 17.15C11.5667 17.15 11.0375 16.9834 10.5625 16.65C10.0875 16.3167 9.70005 15.85 9.40005 15.25L8.75005 15.55C9.05005 16.2 9.43755 16.7 9.91255 17.05C10.3875 17.4 10.95 17.65 11.6 17.8V19ZM12 21.2C10.8 21.2 9.67088 20.9709 8.61255 20.5125C7.55422 20.0542 6.63338 19.4334 5.85005 18.65C5.06672 17.8667 4.44588 16.9459 3.98755 15.8875C3.52922 14.8292 3.30005 13.7 3.30005 12.5C3.30005 11.3 3.52922 10.1709 3.98755 9.11255C4.44588 8.05422 5.06672 7.13338 5.85005 6.35005C6.63338 5.56672 7.55422 4.94588 8.61255 4.48755C9.67088 4.02922 10.8 3.80005 12 3.80005C13.2 3.80005 14.3292 4.02922 15.3875 4.48755C16.4459 4.94588 17.3667 5.56672 18.15 6.35005C18.9334 7.13338 19.5542 8.05422 20.0125 9.11255C20.4709 10.1709 20.7 11.3 20.7 12.5C20.7 13.7 20.4709 14.8292 20.0125 15.8875C19.5542 16.9459 18.9334 17.8667 18.15 18.65C17.3667 19.4334 16.4459 20.0542 15.3875 20.5125C14.3292 20.9709 13.2 21.2 12 21.2ZM12 20.5C14.2334 20.5 16.125 19.725 17.675 18.175C19.225 16.625 20 14.7334 20 12.5C20 10.2667 19.225 8.37505 17.675 6.82505C16.125 5.27505 14.2334 4.50005 12 4.50005C9.76672 4.50005 7.87505 5.27505 6.32505 6.82505C4.77505 8.37505 4.00005 10.2667 4.00005 12.5C4.00005 14.7334 4.77505 16.625 6.32505 18.175C7.87505 19.725 9.76672 20.5 12 20.5Z" fill="white"/>
    </g>
</svg>
