<svg xmlns="http://www.w3.org/2000/svg" width="20" height="20" viewBox="0 0 20 20" fill="none">
    <path d="M2.735 20C1.98852 20 1.34611 19.7307 0.807778 19.1922C0.269259 18.6539 0 18.0115 0 17.265C0 16.5185 0.269259 15.876 0.807778 15.3375C1.34611 14.7992 1.98852 14.53 2.735 14.53C3.05352 14.53 3.36324 14.5859 3.66417 14.6978C3.96491 14.8094 4.23287 14.9679 4.46806 15.1731L9.44444 10.1967V5.41028C8.82907 5.28343 8.31194 4.97019 7.89306 4.47056C7.47435 3.97074 7.265 3.39222 7.265 2.735C7.265 1.98852 7.53426 1.34611 8.07278 0.807778C8.61111 0.26926 9.25352 0 10 0C10.7465 0 11.3889 0.26926 11.9272 0.807778C12.4657 1.34611 12.735 1.98852 12.735 2.735C12.735 3.39222 12.5292 3.97074 12.1175 4.47056C11.7058 4.97019 11.1852 5.28343 10.5556 5.41028V10.1967L15.5383 15.1731C15.7735 14.9679 16.0393 14.8094 16.3356 14.6978C16.6319 14.5859 16.9417 14.53 17.265 14.53C18.0115 14.53 18.6539 14.7992 19.1922 15.3375C19.7307 15.876 20 16.5185 20 17.265C20 18.0115 19.7307 18.6539 19.1922 19.1922C18.6539 19.7307 18.0115 20 17.265 20C16.5185 20 15.876 19.7307 15.3375 19.1922C14.7992 18.6539 14.53 18.0115 14.53 17.265C14.53 17.045 14.5538 16.8312 14.6014 16.6236C14.6492 16.4158 14.7257 16.223 14.8311 16.045L10 11.2136L5.16889 16.045C5.27426 16.223 5.35083 16.4158 5.39861 16.6236C5.4462 16.8312 5.47 17.045 5.47 17.265C5.47 18.0115 5.20083 18.6539 4.6625 19.1922C4.12398 19.7307 3.48148 20 2.735 20ZM17.2625 18.8889C17.7129 18.8889 18.0965 18.7313 18.4133 18.4161C18.7304 18.1007 18.8889 17.7179 18.8889 17.2675C18.8889 16.8171 18.7313 16.4334 18.4161 16.1164C18.1007 15.7995 17.7179 15.6411 17.2675 15.6411C16.8171 15.6411 16.4334 15.7987 16.1164 16.1139C15.7995 16.4293 15.6411 16.8121 15.6411 17.2625C15.6411 17.7129 15.7987 18.0965 16.1139 18.4133C16.4293 18.7304 16.8121 18.8889 17.2625 18.8889ZM9.9975 4.35889C10.4479 4.35889 10.8316 4.2013 11.1486 3.88611C11.4655 3.57074 11.6239 3.18787 11.6239 2.7375C11.6239 2.28713 11.4663 1.90352 11.1511 1.58667C10.8357 1.26963 10.4529 1.11111 10.0025 1.11111C9.55213 1.11111 9.16843 1.2687 8.85139 1.58389C8.53454 1.89926 8.37611 2.28213 8.37611 2.7325C8.37611 3.18287 8.5337 3.56657 8.84889 3.88361C9.16426 4.20046 9.54713 4.35889 9.9975 4.35889ZM2.7325 18.8889C3.18287 18.8889 3.56657 18.7313 3.88361 18.4161C4.20046 18.1007 4.35889 17.7179 4.35889 17.2675C4.35889 16.8171 4.2013 16.4334 3.88611 16.1164C3.57074 15.7995 3.18787 15.6411 2.7375 15.6411C2.28713 15.6411 1.90352 15.7987 1.58667 16.1139C1.26963 16.4293 1.11111 16.8121 1.11111 17.2625C1.11111 17.7129 1.2687 18.0965 1.58389 18.4133C1.89926 18.7304 2.28213 18.8889 2.7325 18.8889Z" fill="white"/>
</svg>
