<svg width="26" height="26" viewBox="0 0 30 30" fill="none" xmlns="http://www.w3.org/2000/svg">
<path d="M0.733398 25.2667V20.5111H2.7334V5.48906H0.733398V0.733398H5.48907V2.7334H20.5111V0.733398H25.2667V5.48906H23.2667V20.5111H25.2667V25.2667H20.5111V23.2667H5.48907V25.2667H0.733398ZM5.48907 22.4667H20.5111V20.5111H22.4667V5.48906H20.5111V3.5334H5.48907V5.48906H3.5334V20.5111H5.48907V22.4667ZM1.5334 4.68906H4.68907V1.5334H1.5334V4.68906ZM21.3111 4.68906H24.4667V1.5334H21.3111V4.68906ZM21.3111 24.4667H24.4667V21.3111H21.3111V24.4667ZM1.5334 24.4667H4.68907V21.3111H1.5334V24.4667Z" fill="white"/>
</svg>
