<svg width="25" height="26" viewBox="0 0 25 26" fill="none" xmlns="http://www.w3.org/2000/svg">
    <g clip-path="url(#clip0_1582_312)">
        <path d="M12.5 25.5C19.4036 25.5 25 19.9036 25 13C25 6.09644 19.4036 0.5 12.5 0.5C5.59644 0.5 0 6.09644 0 13C0 19.9036 5.59644 25.5 12.5 25.5Z" fill="black"/>
        <path fill-rule="evenodd" clip-rule="evenodd" d="M9.01805 8.75879H16.027C16.2948 8.75879 16.518 8.80343 16.7859 8.93736C17.0984 9.07129 17.277 9.2945 17.3663 9.47307C17.3663 9.47307 17.3663 9.51772 17.4109 9.51772C17.5448 9.74093 17.6341 10.0088 17.6341 10.3213C17.6341 10.5891 17.5895 10.857 17.4109 11.1249L12.9913 18.7141C12.902 18.8927 12.7234 18.982 12.5002 18.982C12.3216 18.982 12.143 18.8927 12.0091 18.7141L7.67876 11.1249C7.58948 10.9463 7.4109 10.7231 7.4109 10.3659C7.36626 10.0534 7.45555 9.78558 7.58948 9.51772C7.7234 9.24986 7.94662 9.02665 8.25912 8.93736C8.52698 8.75879 8.83948 8.75879 9.01805 8.75879ZM11.9645 9.83022H9.01805C8.83948 9.83022 8.75019 9.83022 8.70555 9.87486C8.61626 9.9195 8.57162 9.96415 8.52698 10.0534C8.48233 10.0981 8.48233 10.1874 8.48233 10.2766C8.48233 10.3213 8.52698 10.3659 8.61626 10.5445L11.9645 16.3481V9.83022ZM13.0359 9.83022V16.3927L16.4288 10.5445C16.4734 10.4552 16.4734 10.3659 16.4734 10.2766C16.4734 10.1874 16.4734 10.0981 16.4288 10.0534C16.3841 10.0088 16.3841 9.96415 16.3395 9.96415L16.2948 9.9195C16.2055 9.87486 16.1163 9.87486 15.9823 9.87486H13.0359V9.83022Z" fill="white"/>
    </g>
    <defs>
        <clipPath id="clip0_1582_312">
            <rect width="25" height="25" fill="white" transform="translate(0 0.5)"/>
        </clipPath>
    </defs>
</svg>
