<svg width="20" height="21" viewBox="0 0 20 21" fill="none" xmlns="http://www.w3.org/2000/svg">
<path id="Subtract" fill-rule="evenodd" clip-rule="evenodd" d="M10 20.5C15.5228 20.5 20 16.0228 20 10.5C20 4.97715 15.5228 0.5 10 0.5C4.47715 0.5 0 4.97715 0 10.5C0 16.0228 4.47715 20.5 10 20.5ZM4.52721 5.48327C4.86477 5.17384 5.32261 5 5.8 5H14.2C14.6774 5 15.1352 5.17384 15.4728 5.48327C15.8104 5.79271 16 6.21239 16 6.65V14.35C16 14.7876 15.8104 15.2073 15.4728 15.5167C15.1352 15.8262 14.6774 16 14.2 16H5.8C5.32261 16 4.86477 15.8262 4.52721 15.5167C4.18964 15.2073 4 14.7876 4 14.35V6.65C4 6.21239 4.18964 5.79271 4.52721 5.48327ZM9.46668 7.93538C9.26935 7.81451 9.03734 7.75 8.8 7.75C8.48174 7.75 8.17652 7.86589 7.95147 8.07218C7.72643 8.27847 7.6 8.55826 7.6 8.85C7.6 9.06756 7.67038 9.28023 7.80224 9.46113C7.93409 9.64202 8.12151 9.78301 8.34078 9.86627C8.56005 9.94952 8.80133 9.97131 9.03411 9.92886C9.26689 9.88642 9.48071 9.78166 9.64853 9.62782C9.81635 9.47398 9.93064 9.27798 9.97694 9.0646C10.0232 8.85122 9.99948 8.63005 9.90866 8.42905C9.81783 8.22805 9.66402 8.05625 9.46668 7.93538ZM5.8 14.9H7.294L8.632 13.2225L8.032 12.491C7.97734 12.4242 7.90679 12.3696 7.8257 12.3315C7.74461 12.2934 7.65511 12.2727 7.564 12.271C7.47435 12.2721 7.38593 12.2903 7.30434 12.3244C7.22275 12.3585 7.14977 12.4077 7.09 12.469L5.236 14.5095C5.27282 14.6209 5.34726 14.7188 5.44861 14.789C5.54997 14.8591 5.673 14.898 5.8 14.9ZM14.6243 14.7389C14.7368 14.6358 14.8 14.4959 14.8 14.35V12.3755L12.994 10.698C12.9324 10.6414 12.8581 10.5979 12.7762 10.5703C12.6943 10.5428 12.6069 10.5319 12.52 10.5385C12.4336 10.5448 12.3496 10.5683 12.274 10.6072C12.1984 10.6461 12.1329 10.6996 12.082 10.764L8.8 14.9H14.2C14.3591 14.9 14.5117 14.8421 14.6243 14.7389Z" fill="white"/>
</svg>
