<svg width="35" height="36" viewBox="0 0 35 36" fill="none" xmlns="http://www.w3.org/2000/svg">
<mask id="mask0_6417_70674" style="mask-type:alpha" maskUnits="userSpaceOnUse" x="0" y="0" width="35" height="36">
<rect y="0.5" width="35" height="35" fill="#D9D9D9"/>
</mask>
<g mask="url(#mask0_6417_70674)">
<path d="M6.89046 28.9375C5.60032 28.9375 4.50888 28.4897 3.61614 27.594C2.7234 26.6986 2.27143 25.5991 2.26025 24.2956C2.26025 24.1034 2.26779 23.9166 2.28286 23.7353C2.29768 23.5539 2.3294 23.3633 2.37801 23.1632L5.44051 10.9132C5.7385 9.76747 6.34529 8.83924 7.26088 8.12854C8.17623 7.41785 9.21942 7.0625 10.3905 7.0625H24.6092C25.7803 7.0625 26.8235 7.41785 27.7388 8.12854C28.6544 8.83924 29.2612 9.76747 29.5592 10.9132L32.6217 23.1632C32.6703 23.3633 32.7081 23.56 32.735 23.7535C32.7623 23.947 32.7759 24.1398 32.7759 24.3321C32.7759 25.6356 32.322 26.729 31.4142 27.6122C30.5066 28.4957 29.4056 28.9375 28.111 28.9375C27.2198 28.9375 26.4021 28.7028 25.6581 28.2335C24.9139 27.7642 24.3417 27.1332 23.9417 26.3406L22.8928 24.1979C22.7153 23.8333 22.4489 23.5599 22.0936 23.3776C21.7382 23.1953 21.3615 23.1042 20.9634 23.1042H14.0363C13.6428 23.1042 13.2673 23.193 12.9097 23.3707C12.552 23.5484 12.2844 23.8241 12.1069 24.1979L11.058 26.3406C10.6767 27.1519 10.1074 27.7876 9.35031 28.2477C8.59343 28.7076 7.77348 28.9375 6.89046 28.9375ZM7.00749 27.4792C7.59496 27.4792 8.13782 27.3202 8.63609 27.0023C9.13435 26.6846 9.50878 26.263 9.75937 25.7376L10.7802 23.6314C11.0872 23.0096 11.5374 22.5233 12.131 22.1723C12.7243 21.8213 13.3594 21.6458 14.0363 21.6458H20.9634C21.6515 21.6458 22.289 21.8319 22.876 22.204C23.4632 22.5761 23.9232 23.0613 24.2559 23.6594L25.2768 25.7376C25.5274 26.263 25.9018 26.6846 26.4 27.0023C26.8983 27.3202 27.4477 27.4792 28.0483 27.4792C28.9333 27.4792 29.692 27.1796 30.3244 26.5805C30.9566 25.9811 31.2755 25.2477 31.2811 24.3802C31.2811 24.3297 31.2474 24.0426 31.1801 23.5191L28.1176 11.3055C27.91 10.4998 27.4809 9.83431 26.8303 9.30906C26.1796 8.78358 25.4393 8.52083 24.6092 8.52083H10.3905C9.54025 8.52083 8.78885 8.78358 8.13624 9.30906C7.4834 9.83431 7.06534 10.4998 6.88208 11.3055L3.81958 23.5191C3.78968 23.6277 3.75602 23.9026 3.71859 24.3438C3.71859 25.2304 4.04246 25.9747 4.6902 26.5765C5.33819 27.1783 6.11062 27.4792 7.00749 27.4792ZM19.6873 16.2052C19.9882 16.2052 20.2505 16.0935 20.4741 15.8701C20.6975 15.6465 20.8092 15.3842 20.8092 15.0833C20.8092 14.7824 20.6975 14.5202 20.4741 14.2966C20.2505 14.0732 19.9882 13.9615 19.6873 13.9615C19.3864 13.9615 19.1242 14.0732 18.9006 14.2966C18.6772 14.5202 18.5655 14.7824 18.5655 15.0833C18.5655 15.3842 18.6772 15.6465 18.9006 15.8701C19.1242 16.0935 19.3864 16.2052 19.6873 16.2052ZM22.604 13.2885C22.9049 13.2885 23.1672 13.1768 23.3908 12.9534C23.6141 12.7298 23.7258 12.4676 23.7258 12.1667C23.7258 11.8658 23.6141 11.6035 23.3908 11.3799C23.1672 11.1565 22.9049 11.0448 22.604 11.0448C22.3031 11.0448 22.0408 11.1565 21.8172 11.3799C21.5939 11.6035 21.4822 11.8658 21.4822 12.1667C21.4822 12.4676 21.5939 12.7298 21.8172 12.9534C22.0408 13.1768 22.3031 13.2885 22.604 13.2885ZM22.604 19.1218C22.9049 19.1218 23.1672 19.0101 23.3908 18.7868C23.6141 18.5632 23.7258 18.3009 23.7258 18C23.7258 17.6991 23.6141 17.4368 23.3908 17.2132C23.1672 16.9899 22.9049 16.8782 22.604 16.8782C22.3031 16.8782 22.0408 16.9899 21.8172 17.2132C21.5939 17.4368 21.4822 17.6991 21.4822 18C21.4822 18.3009 21.5939 18.5632 21.8172 18.7868C22.0408 19.0101 22.3031 19.1218 22.604 19.1218ZM25.5207 16.2052C25.8216 16.2052 26.0838 16.0935 26.3074 15.8701C26.5308 15.6465 26.6425 15.3842 26.6425 15.0833C26.6425 14.7824 26.5308 14.5202 26.3074 14.2966C26.0838 14.0732 25.8216 13.9615 25.5207 13.9615C25.2198 13.9615 24.9575 14.0732 24.7339 14.2966C24.5105 14.5202 24.3988 14.7824 24.3988 15.0833C24.3988 15.3842 24.5105 15.6465 24.7339 15.8701C24.9575 16.0935 25.2198 16.2052 25.5207 16.2052ZM12.3942 18.2804C12.5804 18.2804 12.7346 18.2195 12.8569 18.0977C12.9794 17.9759 13.0406 17.8218 13.0406 17.6354V15.7283H14.9478C15.1342 15.7283 15.2883 15.6675 15.41 15.546C15.5318 15.4245 15.5927 15.2707 15.5927 15.0848C15.5927 14.8986 15.5318 14.7444 15.41 14.6221C15.2883 14.4996 15.1342 14.4384 14.9478 14.4384H13.0406V12.5312C13.0406 12.3448 12.9799 12.1907 12.8583 12.069C12.7368 11.9472 12.5831 11.8863 12.3971 11.8863C12.2109 11.8863 12.0567 11.9472 11.9345 12.069C11.812 12.1907 11.7507 12.3448 11.7507 12.5312V14.4384H9.84359C9.65716 14.4384 9.50307 14.4991 9.3813 14.6207C9.25953 14.7422 9.19864 14.8959 9.19864 15.0819C9.19864 15.2681 9.25953 15.4223 9.3813 15.5445C9.50307 15.667 9.65716 15.7283 9.84359 15.7283H11.7507V17.6354C11.7507 17.8218 11.8115 17.9759 11.933 18.0977C12.0545 18.2195 12.2083 18.2804 12.3942 18.2804Z" fill="white"/>
</g>
</svg>
