<svg width="26" height="30" viewBox="0 0 26 30" fill="none" xmlns="http://www.w3.org/2000/svg">
<path d="M12.9998 29.5003C11.2221 29.5003 9.55539 29.167 7.99984 28.5003C6.44428 27.8337 5.08317 26.917 3.9165 25.7503C2.74984 24.5837 1.83317 23.2225 1.1665 21.667C0.499837 20.1114 0.166504 18.4448 0.166504 16.667H1.1665C1.1665 19.9539 2.31525 22.748 4.61275 25.0491C6.91053 27.3499 9.70623 28.5003 12.9998 28.5003C16.2934 28.5003 19.0891 27.3516 21.3869 25.0541C23.6844 22.7563 24.8332 19.9606 24.8332 16.667C24.8332 13.3734 23.6919 10.5777 21.4094 8.27991C19.1272 5.98241 16.3425 4.83366 13.0553 4.83366H12.1665L14.9998 7.66699L14.2778 8.36158L10.2219 4.26408L14.3611 0.166992L15.0832 0.861575L12.1111 3.83366H12.9998C14.7776 3.83366 16.4443 4.16699 17.9998 4.83366C19.5554 5.50033 20.9165 6.41699 22.0832 7.58366C23.2498 8.75033 24.1665 10.1114 24.8332 11.667C25.4998 13.2225 25.8332 14.8892 25.8332 16.667C25.8332 18.4448 25.4998 20.1114 24.8332 21.667C24.1665 23.2225 23.2498 24.5837 22.0832 25.7503C20.9165 26.917 19.5554 27.8337 17.9998 28.5003C16.4443 29.167 14.7776 29.5003 12.9998 29.5003ZM8.9165 21.0837V13.3057H6.72192V12.2503H9.99984V21.0837H8.9165ZM14.3053 21.0837C13.8386 21.0837 13.4396 20.918 13.1082 20.5866C12.7768 20.2549 12.6111 19.8557 12.6111 19.3891V13.9449C12.6111 13.4782 12.7768 13.0791 13.1082 12.7474C13.4396 12.416 13.8386 12.2503 14.3053 12.2503H17.1665C17.6332 12.2503 18.0322 12.416 18.3636 12.7474C18.6953 13.0791 18.8611 13.4782 18.8611 13.9449V19.3891C18.8611 19.8557 18.6953 20.2549 18.3636 20.5866C18.0322 20.918 17.6332 21.0837 17.1665 21.0837H14.3053ZM14.1944 20.0003H17.2778C17.4444 20.0003 17.5694 19.9587 17.6528 19.8753C17.7361 19.792 17.7778 19.667 17.7778 19.5003V13.8057C17.7778 13.6391 17.7361 13.5141 17.6528 13.4307C17.5694 13.3474 17.4444 13.3057 17.2778 13.3057H14.1944C14.0278 13.3057 13.9028 13.3474 13.8194 13.4307C13.7361 13.5141 13.6944 13.6391 13.6944 13.8057V19.5003C13.6944 19.667 13.7361 19.792 13.8194 19.8753C13.9028 19.9587 14.0278 20.0003 14.1944 20.0003Z" fill="white"/>
</svg>
