<svg width="18" height="18" viewBox="0 0 18 18" fill="none" xmlns="http://www.w3.org/2000/svg">
<g id="4092559_search_magnifier_mobile ui_zoom_icon 1">
<g id="search">
<path id="Vector" d="M16.7117 15.9131L13.0554 12.2569H13.016C14.143 10.9281 14.7125 9.21503 14.6054 7.47602C14.4983 5.737 13.723 4.10675 12.4415 2.92628C11.16 1.74581 9.47175 1.10657 7.7298 1.14229C5.98786 1.178 4.32719 1.8859 3.09519 3.1179C1.8632 4.3499 1.1553 6.01056 1.11958 7.75251C1.08387 9.49445 1.72311 11.1827 2.90357 12.4642C4.08404 13.7457 5.71429 14.521 7.45331 14.6281C9.19233 14.7352 10.9054 14.1657 12.2342 13.0387C12.2342 13.0387 12.2342 13.0669 12.2342 13.0781L15.8904 16.7344C15.9427 16.7871 16.0049 16.8289 16.0735 16.8575C16.142 16.8861 16.2155 16.9008 16.2898 16.9008C16.364 16.9008 16.4376 16.8861 16.5061 16.8575C16.5747 16.8289 16.6369 16.7871 16.6892 16.7344C16.7468 16.6833 16.7934 16.6209 16.826 16.5512C16.8586 16.4814 16.8765 16.4056 16.8786 16.3286C16.8807 16.2516 16.867 16.175 16.8382 16.1035C16.8095 16.0321 16.7664 15.9673 16.7117 15.9131ZM7.87479 13.5C6.76227 13.5 5.67473 13.1701 4.7497 12.552C3.82468 11.9339 3.10371 11.0554 2.67796 10.0276C2.25222 8.99975 2.14083 7.86875 2.35787 6.77761C2.57491 5.68647 3.11064 4.68419 3.89731 3.89752C4.68398 3.11085 5.68626 2.57512 6.7774 2.35807C7.86855 2.14103 8.99955 2.25243 10.0274 2.67817C11.0552 3.10391 11.9337 3.82488 12.5518 4.74991C13.1699 5.67494 13.4998 6.76247 13.4998 7.87499C13.4998 8.61368 13.3543 9.34513 13.0716 10.0276C12.7889 10.71 12.3746 11.3301 11.8523 11.8525C11.3299 12.3748 10.7098 12.7891 10.0274 13.0718C9.34492 13.3545 8.61347 13.5 7.87479 13.5Z" fill="url(#paint0_linear_31724_82683)"/>
</g>
</g>
<defs>
<linearGradient id="paint0_linear_31724_82683" x1="1.18729" y1="1.25415" x2="19.3103" y2="13.2173" gradientUnits="userSpaceOnUse">
<stop stop-color="#F2F4F8"/>
<stop offset="1" stop-color="white"/>
</linearGradient>
</defs>
</svg>
