<svg xmlns="http://www.w3.org/2000/svg" width="21" height="20" fill="none">
  <path
    fill="url(#weredsewe)"
    d="M6.139 5.909c-.651.101-3.561.56-4.934.777C.264 6.834-.332 7.883.2 8.635a11.031 11.031 0 0 0 1.462 1.681c.306.293.7.917 2.302 1.032 1.633.117 5.951-.7 6.727-.93.766-.226 1.072.01.118.36-1.322.483-3.73 1.87-4.709 2.595-.946.703-1.83 1.733-2.021 2.434-.191.7-.382 1.872-.51 2.739-.126.866.904 1.936 2.214 1.21 1.31-.727 4.107-2.23 4.323-2.344.216-.115.509-.191.776-.038.496.284 3.93 2.114 4.718 2.458.788.344 2.047-.153 1.856-1.529-.19-1.375-.75-4.114-.8-4.56-.052-.446-.268-.854.177-1.3.548-.548 2.81-2.751 3.586-3.54.776-.79.56-2.294-.94-2.434-1.501-.14-3.523-.408-4.439-.56-.915-.153-.954-.28-1.195-.765C13.603 4.66 12.09 1.692 11.58.66c-.464-.943-1.909-.815-2.34 0-.457.866-1.69 3.435-2.25 4.612-.067.14-.201.535-.852.637Z"
  />
  <defs>
    <linearGradient
      id="weredsewe"
      x1="1.895"
      x2="20.391"
      y1="19.261"
      y2="7.405"
      gradientUnits="userSpaceOnUse"
    >
      <stop stop-color="#1895FF" />
      <stop offset="1" stop-color="#FA48FF" />
    </linearGradient>
  </defs>
</svg>
