<svg width="14" height="14" viewBox="0 0 14 14" fill="none" xmlns="http://www.w3.org/2000/svg">
<path d="M6.50963 1.14661C6.69416 0.715121 7.30584 0.71512 7.49037 1.14661L9.02841 4.74292C9.10555 4.92329 9.27548 5.04675 9.47086 5.06438L13.3664 5.41582C13.8338 5.45798 14.0228 6.03972 13.6695 6.34856L10.7245 8.92264C10.5768 9.05174 10.5119 9.2515 10.5555 9.44277L11.425 13.2563C11.5294 13.7138 11.0345 14.0734 10.6316 13.8327L7.27345 11.8273C7.10502 11.7267 6.89498 11.7267 6.72655 11.8273L3.3684 13.8327C2.96548 14.0734 2.47063 13.7138 2.57496 13.2563L3.44452 9.44277C3.48813 9.2515 3.42323 9.05174 3.27552 8.92264L0.330505 6.34856C-0.0228406 6.03972 0.166176 5.45798 0.633571 5.41582L4.52914 5.06438C4.72452 5.04675 4.89446 4.92329 4.97159 4.74292L6.50963 1.14661Z" fill="url(#paint0_linear_8946_87246)"/>
<defs>
<linearGradient id="paint0_linear_8946_87246" x1="-1" y1="8" x2="15" y2="8" gradientUnits="userSpaceOnUse">
<stop stop-color="#4FACFE"/>
<stop offset="1" stop-color="#00F2FE"/>
</linearGradient>
</defs>
</svg>
