<svg width="32" height="32" viewBox="0 0 32 32" fill="none" xmlns="http://www.w3.org/2000/svg">
    <path fill-rule="evenodd" clip-rule="evenodd"
        d="M7.3749 14.3184C12.7436 11.9193 16.3236 10.3377 18.1148 9.5735C23.2292 7.39166 24.2919 7.01265 24.9846 7.00013C25.1369 6.99738 25.4776 7.03611 25.6982 7.21974C25.8845 7.3748 25.9358 7.58426 25.9603 7.73128C25.9848 7.87829 26.0154 8.21319 25.9911 8.47487C25.714 11.4616 24.5147 18.7098 23.9046 22.055C23.6465 23.4705 23.1382 23.9451 22.6461 23.9916C21.5766 24.0925 20.7645 23.2667 19.7287 22.5702C18.1078 21.4805 17.1921 20.8021 15.6188 19.7387C13.8005 18.5097 14.9792 17.8343 16.0155 16.7304C16.2866 16.4415 20.9987 12.0455 21.0899 11.6467C21.1013 11.5968 21.1119 11.4109 21.0042 11.3127C20.8965 11.2146 20.7376 11.2481 20.6229 11.2748C20.4604 11.3127 17.871 13.0681 12.8549 16.541C12.1199 17.0587 11.4542 17.3109 10.8577 17.2977C10.2001 17.2831 8.93528 16.9163 7.99498 16.6028C6.84166 16.2183 5.92503 16.015 6.00485 15.362C6.04642 15.0218 6.5031 14.674 7.3749 14.3184Z"
        fill="currentColor" />
</svg>