<svg width="24" height="24" viewBox="0 0 24 24" fill="none" xmlns="http://www.w3.org/2000/svg">
<path d="M7.47482 20.0004C7.07482 20.0004 6.72902 19.8546 6.43742 19.563C6.14582 19.2714 6.00002 18.934 6.00002 18.5508V5.77563H4.99982V4.92543H8.89982V4.22583H15.1002V4.92543H19.0002V5.77563H18V18.5508C18 18.9508 17.8584 19.2924 17.5752 19.5756C17.2916 19.8588 16.9416 20.0004 16.5252 20.0004H7.47482ZM17.1498 5.77563H6.85022V18.5508C6.85022 18.7172 6.90842 18.8588 7.02482 18.9756C7.14162 19.0924 7.29162 19.1508 7.47482 19.1508H16.5252C16.6916 19.1508 16.8374 19.0882 16.9626 18.963C17.0874 18.8382 17.1498 18.7008 17.1498 18.5508V5.77563ZM9.85022 17.1006H10.6998V7.80063H9.85022V17.1006ZM13.3002 17.1006H14.1498V7.80063H13.3002V17.1006ZM6.85022 5.77563V19.1508V18.5508V5.77563Z" fill="#FF453A"/>
</svg>
