<svg width="18" height="18" viewBox="0 0 18 18" fill="none" xmlns="http://www.w3.org/2000/svg">
<path d="M16.7119 15.9129L13.0557 12.2566H13.0163C14.1432 10.9279 14.7127 9.21479 14.6056 7.47577C14.4986 5.73675 13.7232 4.1065 12.4417 2.92603C11.1603 1.74557 9.47199 1.10633 7.73005 1.14204C5.9881 1.17776 4.32744 1.88566 3.09544 3.11766C1.86344 4.34966 1.15554 6.01032 1.11983 7.75226C1.08411 9.49421 1.72335 11.1825 2.90382 12.464C4.08428 13.7454 5.71454 14.5208 7.45355 14.6279C9.19257 14.7349 10.9056 14.1654 12.2344 13.0385C12.2344 13.0385 12.2344 13.0666 12.2344 13.0779L15.8907 16.7341C15.9429 16.7868 16.0052 16.8287 16.0737 16.8572C16.1423 16.8858 16.2158 16.9005 16.29 16.9005C16.3643 16.9005 16.4378 16.8858 16.5064 16.8572C16.5749 16.8287 16.6371 16.7868 16.6894 16.7341C16.7471 16.6831 16.7936 16.6207 16.8262 16.5509C16.8588 16.4811 16.8767 16.4054 16.8788 16.3284C16.8809 16.2514 16.8672 16.1748 16.8385 16.1033C16.8098 16.0318 16.7667 15.967 16.7119 15.9129ZM7.87503 13.4997C6.76251 13.4997 5.67497 13.1698 4.74995 12.5518C3.82492 11.9337 3.10395 11.0552 2.67821 10.0273C2.25247 8.99951 2.14107 7.86851 2.35811 6.77737C2.57516 5.68622 3.11088 4.68394 3.89756 3.89727C4.68423 3.1106 5.6865 2.57487 6.77765 2.35783C7.86879 2.14079 8.99979 2.25218 10.0276 2.67793C11.0555 3.10367 11.934 3.82464 12.552 4.74967C13.1701 5.67469 13.5 6.76223 13.5 7.87475C13.5 8.61343 13.3545 9.34489 13.0719 10.0273C12.7892 10.7098 12.3748 11.3299 11.8525 11.8522C11.3302 12.3746 10.7101 12.7889 10.0276 13.0716C9.34517 13.3543 8.61372 13.4997 7.87503 13.4997Z" fill="url(#paint0_linear_4333_70729)"/>
<defs>
<linearGradient id="paint0_linear_4333_70729" x1="1.18753" y1="1.2539" x2="19.3105" y2="13.217" gradientUnits="userSpaceOnUse">
<stop stop-color="#F2F4F8"/>
<stop offset="1" stop-color="white"/>
</linearGradient>
</defs>
</svg>
