<svg xmlns="http://www.w3.org/2000/svg" width="24" height="24" viewBox="0 0 24 24" fill="none">
<mask id="mask0_6304_74016" style="mask-type:alpha" maskUnits="userSpaceOnUse" x="0" y="0" width="24" height="24">
<rect width="24" height="24" fill="#E4E7EC"/>
</mask>
<g mask="url(#mask0_6304_74016)">
<path d="M19.3928 20L13.1463 13.7523C12.6192 14.1564 12.0393 14.4684 11.4067 14.6886C10.774 14.9079 10.1503 15.0176 9.53538 15.0176C7.98842 15.0176 6.67933 14.4815 5.60811 13.4095C4.53604 12.3374 4 11.0372 4 9.50878C4 7.98039 4.53604 6.68016 5.60811 5.6081C6.67933 4.53603 7.97957 4 9.50881 4C11.0372 4 12.3421 4.53603 13.4234 5.6081C14.5039 6.68016 15.0442 7.98039 15.0442 9.50878C15.0442 10.1768 14.9257 10.8271 14.6887 11.4597C14.4508 12.0924 14.1387 12.6457 13.7524 13.1197L20.0254 19.3927L19.3928 20ZM9.53538 14.1749C10.8352 14.1749 11.9376 13.7266 12.8427 12.83C13.7477 11.9334 14.2003 10.8263 14.2003 9.50878C14.2003 8.19126 13.7477 7.08419 12.8427 6.18757C11.9376 5.29095 10.8352 4.84264 9.53538 4.84264C8.21701 4.84264 7.10529 5.29095 6.20023 6.18757C5.29517 7.08419 4.84264 8.19126 4.84264 9.50878C4.84264 10.8263 5.29517 11.9334 6.20023 12.83C7.10529 13.7266 8.21701 14.1749 9.53538 14.1749Z" fill="#9B9B9B"/>
</g>
</svg>