<svg xmlns="http://www.w3.org/2000/svg" width="40" height="40" viewBox="0 0 40 40" fill="none">
    <mask id="mask0_5248_41339" style="mask-type:alpha" maskUnits="userSpaceOnUse" x="0" y="0" width="40" height="40">
        <rect width="40" height="40" fill="#D9D9D9"/>
    </mask>
    <g mask="url(#mask0_5248_41339)">
        <path d="M19.2288 31.1133H20.6817V29.1237C21.9681 29.0604 23.1514 28.6449 24.2317 27.8771C25.3122 27.1093 25.8525 25.9587 25.8525 24.4254C25.8525 23.1774 25.4764 22.1556 24.7242 21.36C23.9722 20.5644 22.6097 19.7921 20.6367 19.0429C18.8078 18.3704 17.6244 17.7888 17.0867 17.2979C16.5489 16.8074 16.28 16.1097 16.28 15.205C16.28 14.3192 16.631 13.5796 17.3329 12.9862C18.0349 12.3929 18.9517 12.0963 20.0833 12.0963C20.9208 12.0963 21.6374 12.2833 22.2329 12.6575C22.8285 13.0319 23.3306 13.535 23.7392 14.1667L24.9788 13.6367C24.5335 12.8356 23.94 12.1882 23.1983 11.6946C22.4564 11.201 21.6453 10.921 20.765 10.8546V8.89333H19.3121V10.8546C17.8549 11.0649 16.7465 11.5819 15.9871 12.4058C15.2279 13.23 14.8483 14.1631 14.8483 15.205C14.8483 16.4267 15.2339 17.3975 16.005 18.1175C16.7758 18.8375 18.0647 19.5369 19.8717 20.2158C21.6958 20.9258 22.9172 21.5636 23.5358 22.1292C24.1544 22.6947 24.4638 23.4601 24.4638 24.4254C24.4638 25.594 24.0258 26.4521 23.15 26.9996C22.2744 27.5468 21.3099 27.8204 20.2563 27.8204C19.2571 27.8204 18.3499 27.5379 17.5346 26.9729C16.7196 26.4076 16.0813 25.6154 15.6196 24.5963L14.3333 25.1304C14.8661 26.2485 15.5372 27.1129 16.3467 27.7238C17.1561 28.3346 18.1168 28.7735 19.2288 29.0404V31.1133ZM20 35C17.9339 35 15.9919 34.6053 14.1742 33.8158C12.3564 33.0261 10.7676 31.9515 9.40792 30.5921C8.04847 29.2324 6.97389 27.6436 6.18417 25.8258C5.39472 24.0081 5 22.0661 5 20C5 17.9294 5.39472 15.9818 6.18417 14.1571C6.97389 12.3324 8.04847 10.7447 9.40792 9.39417C10.7676 8.04389 12.3564 6.97389 14.1742 6.18417C15.9919 5.39472 17.9339 5 20 5C22.0706 5 24.0182 5.39472 25.8429 6.18417C27.6676 6.97389 29.2553 8.04389 30.6058 9.39417C31.9561 10.7447 33.0261 12.3324 33.8158 14.1571C34.6053 15.9818 35 17.9294 35 20C35 22.0661 34.6053 24.0081 33.8158 25.8258C33.0261 27.6436 31.9561 29.2324 30.6058 30.5921C29.2553 31.9515 27.6676 33.0261 25.8429 33.8158C24.0182 34.6053 22.0706 35 20 35ZM20 33.5896C23.785 33.5896 26.9963 32.2699 29.6338 29.6304C32.271 26.9907 33.5896 23.7806 33.5896 20C33.5896 16.215 32.271 13.0037 29.6338 10.3662C26.9963 7.72903 23.785 6.41042 20 6.41042C16.2194 6.41042 13.0093 7.72903 10.3696 10.3662C7.73014 13.0037 6.41042 16.215 6.41042 20C6.41042 23.7806 7.73014 26.9907 10.3696 29.6304C13.0093 32.2699 16.2194 33.5896 20 33.5896Z" fill="white"/>
    </g>
</svg>
