<svg xmlns="http://www.w3.org/2000/svg" width="40" height="40" viewBox="0 0 40 40" fill="none">
    <mask id="mask0_5248_41332" style="mask-type:alpha" maskUnits="userSpaceOnUse" x="0" y="0" width="40" height="40">
        <rect width="40" height="40" fill="#D9D9D9"/>
    </mask>
    <g mask="url(#mask0_5248_41332)">
        <path d="M20.0054 35C17.9312 35 15.9811 34.6064 14.155 33.8192C12.3292 33.0319 10.7408 31.9636 9.39 30.6142C8.03917 29.2647 6.96986 27.6778 6.18208 25.8533C5.39403 24.0292 5 22.0799 5 20.0054C5 17.9312 5.39361 15.9811 6.18083 14.155C6.96806 12.3292 8.03639 10.7408 9.38583 9.39C10.7353 8.03917 12.3222 6.96986 14.1467 6.18208C15.9708 5.39403 17.9201 5 19.9946 5C22.0688 5 24.0189 5.39361 25.845 6.18083C27.6708 6.96806 29.2592 8.03639 30.61 9.38583C31.9608 10.7353 33.0301 12.3222 33.8179 14.1467C34.606 15.9708 35 17.9201 35 19.9946C35 22.0688 34.6064 24.0189 33.8192 25.845C33.0319 27.6708 31.9636 29.2592 30.6142 30.61C29.2647 31.9608 27.6778 33.0301 25.8533 33.8179C24.0292 34.606 22.0799 35 20.0054 35ZM19.9979 33.5896C23.7913 33.5896 27.0049 32.2732 29.6388 29.6404C32.2726 27.0074 33.5896 23.7939 33.5896 20C33.5896 18.1881 33.2447 16.4522 32.555 14.7925C31.8656 13.1328 30.886 11.6658 29.6162 10.3917L20.0096 20V6.41042C16.2182 6.41042 13.0037 7.72667 10.3663 10.3592C7.72903 12.9917 6.41042 16.2046 6.41042 19.9979C6.41042 23.7913 7.72667 27.0049 10.3592 29.6388C12.9917 32.2726 16.2046 33.5896 19.9979 33.5896Z" fill="white"/>
    </g>
</svg>
