<svg width="17" height="17" viewBox="0 0 17 17" fill="none" xmlns="http://www.w3.org/2000/svg">
<path d="M16.5566 3.66714V14.6286C16.5566 15.089 16.4025 15.4733 16.0941 15.7816C15.7858 16.09 15.4015 16.2441 14.9411 16.2441H2.17214C1.71181 16.2441 1.32747 16.09 1.01914 15.7816C0.710807 15.4733 0.556641 15.089 0.556641 14.6286V1.85964C0.556641 1.39931 0.710807 1.01497 1.01914 0.706641C1.32747 0.398307 1.71181 0.244141 2.17214 0.244141H13.1336L16.5566 3.66714ZM15.5566 4.09414L12.7066 1.24414H2.17214C1.99264 1.24414 1.84514 1.30181 1.72964 1.41714C1.61431 1.53264 1.55664 1.68014 1.55664 1.85964V14.6286C1.55664 14.8081 1.61431 14.9556 1.72964 15.0711C1.84514 15.1865 1.99264 15.2441 2.17214 15.2441H14.9411C15.1206 15.2441 15.2681 15.1865 15.3836 15.0711C15.499 14.9556 15.5566 14.8081 15.5566 14.6286V4.09414ZM8.55664 12.7826C9.10797 12.7826 9.57914 12.5871 9.97014 12.1961C10.3611 11.8051 10.5566 11.334 10.5566 10.7826C10.5566 10.2313 10.3611 9.76014 9.97014 9.36914C9.57914 8.97814 9.10797 8.78264 8.55664 8.78264C8.00531 8.78264 7.53414 8.97814 7.14314 9.36914C6.75214 9.76014 6.55664 10.2313 6.55664 10.7826C6.55664 11.334 6.75214 11.8051 7.14314 12.1961C7.53414 12.5871 8.00531 12.7826 8.55664 12.7826ZM3.32589 6.01339H10.7489V3.01339H3.32589V6.01339Z" fill="white"/>
</svg>
