<svg width="18" height="18" viewBox="0 0 18 18" fill="none" xmlns="http://www.w3.org/2000/svg">
<path d="M9.00325 18C7.75875 18 6.58867 17.7638 5.493 17.2915C4.3975 16.8192 3.4445 16.1782 2.634 15.3685C1.8235 14.5588 1.18192 13.6067 0.70925 12.512C0.236417 11.4175 0 10.2479 0 9.00325C0 7.75875 0.23625 6.58867 0.70875 5.493C1.18125 4.3975 1.8225 3.4445 2.6325 2.634C3.4425 1.8235 4.395 1.18192 5.49 0.70925C6.585 0.236417 7.755 0 9 0C10.0235 0 10.9918 0.158333 11.905 0.475C12.8183 0.791667 13.6513 1.23333 14.4038 1.8L13.6845 2.54425C13.0257 2.05442 12.3008 1.67458 11.51 1.40475C10.7193 1.13492 9.88267 1 9 1C6.78333 1 4.89583 1.77917 3.3375 3.3375C1.77917 4.89583 1 6.78333 1 9C1 11.2167 1.77917 13.1042 3.3375 14.6625C4.89583 16.2208 6.78333 17 9 17C11.2167 17 13.1042 16.2208 14.6625 14.6625C16.2208 13.1042 17 11.2167 17 9C17 8.5975 16.9705 8.20267 16.9115 7.8155C16.8525 7.4285 16.7641 7.05217 16.6462 6.6865L17.4443 5.86925C17.6276 6.36408 17.766 6.87183 17.8595 7.3925C17.9532 7.913 18 8.44883 18 9C18 10.245 17.7638 11.415 17.2915 12.51C16.8192 13.605 16.1782 14.5575 15.3685 15.3675C14.5588 16.1775 13.6067 16.8188 12.512 17.2913C11.4175 17.7638 10.2479 18 9.00325 18ZM7.5615 12.9078L4.00375 9.35L4.7115 8.64225L7.5615 11.4923L17.2922 1.75575L18 2.4635L7.5615 12.9078Z" fill="white"/>
</svg>
