<svg width="18" height="14" viewBox="0 0 18 14" fill="none" xmlns="http://www.w3.org/2000/svg">
<path d="M3 14C2.16917 14 1.4615 13.7077 0.877 13.123C0.292333 12.5385 0 11.8308 0 11V3C0 2.16917 0.292333 1.4615 0.877 0.877C1.4615 0.292334 2.16917 0 3 0H15C15.8308 0 16.5385 0.292334 17.123 0.877C17.7077 1.4615 18 2.16917 18 3V11C18 11.8308 17.7077 12.5385 17.123 13.123C16.5385 13.7077 15.8308 14 15 14H3ZM3 3.5H15C15.3923 3.5 15.7583 3.56733 16.098 3.702C16.4378 3.8365 16.7385 4.03392 17 4.29425V3C17 2.45 16.8042 1.97917 16.4125 1.5875C16.0208 1.19583 15.55 1 15 1H3C2.45 1 1.97917 1.19583 1.5875 1.5875C1.19583 1.97917 1 2.45 1 3V4.29425C1.2615 4.03392 1.56217 3.8365 1.902 3.702C2.24167 3.56733 2.60767 3.5 3 3.5ZM1.0345 6.23075L12.3712 8.9885C12.4956 9.02183 12.6231 9.025 12.7538 8.998C12.8846 8.97117 12.9974 8.91417 13.0922 8.827L16.8173 5.677C16.6724 5.32433 16.4359 5.04 16.1077 4.824C15.7796 4.608 15.4103 4.5 15 4.5H3C2.48967 4.5 2.04958 4.66375 1.67975 4.99125C1.30992 5.31892 1.09483 5.73208 1.0345 6.23075Z" fill="white"/>
</svg>
