<svg width="32" height="32" viewBox="0 0 32 32" fill="none" xmlns="http://www.w3.org/2000/svg">
<mask id="mask0_8112_83387" style="mask-type:alpha" maskUnits="userSpaceOnUse" x="0" y="0" width="32" height="32">
<rect width="32" height="32" fill="#D9D9D9"/>
</mask>
<g mask="url(#mask0_8112_83387)">
<g filter="url(#filter0_d_8112_83387)">
<path d="M15.0002 22.333H17.0002V14.6663H15.0002V22.333ZM16.0002 12.3843C16.3053 12.3843 16.5611 12.2811 16.7675 12.0747C16.9739 11.8682 17.0772 11.6125 17.0772 11.3073C17.0772 11.0022 16.9739 10.7465 16.7675 10.54C16.5611 10.3338 16.3053 10.2307 16.0002 10.2307C15.6951 10.2307 15.4393 10.3338 15.2328 10.54C15.0264 10.7465 14.9232 11.0022 14.9232 11.3073C14.9232 11.6125 15.0264 11.8682 15.2328 12.0747C15.4393 12.2811 15.6951 12.3843 16.0002 12.3843ZM16.0025 28.6663C14.2505 28.6663 12.6037 28.3339 11.0622 27.669C9.52061 27.0041 8.17972 26.1018 7.0395 24.962C5.89927 23.8222 4.9965 22.4819 4.33116 20.941C3.66605 19.4001 3.3335 17.7538 3.3335 16.002C3.3335 14.25 3.66594 12.6032 4.33083 11.0617C4.99572 9.52012 5.89805 8.17923 7.03783 7.03901C8.17761 5.89879 9.51794 4.99601 11.0588 4.33067C12.5997 3.66556 14.2461 3.33301 15.9978 3.33301C17.7498 3.33301 19.3966 3.66545 20.9382 4.33034C22.4797 4.99523 23.8206 5.89756 24.9608 7.03734C26.1011 8.17712 27.0038 9.51745 27.6692 11.0583C28.3343 12.5992 28.6668 14.2456 28.6668 15.9973C28.6668 17.7493 28.3344 19.3961 27.6695 20.9377C27.0046 22.4792 26.1023 23.8201 24.9625 24.9603C23.8227 26.1006 22.4824 27.0033 20.9415 27.6687C19.4006 28.3338 17.7543 28.6663 16.0025 28.6663Z" fill="white"/>
</g>
</g>
<defs>
<filter id="filter0_d_8112_83387" x="-10.5665" y="-6.56699" width="53.1335" height="53.133" filterUnits="userSpaceOnUse" color-interpolation-filters="sRGB">
<feFlood flood-opacity="0" result="BackgroundImageFix"/>
<feColorMatrix in="SourceAlpha" type="matrix" values="0 0 0 0 0 0 0 0 0 0 0 0 0 0 0 0 0 0 127 0" result="hardAlpha"/>
<feOffset dy="4"/>
<feGaussianBlur stdDeviation="6.95"/>
<feComposite in2="hardAlpha" operator="out"/>
<feColorMatrix type="matrix" values="0 0 0 0 0 0 0 0 0 0 0 0 0 0 0 0 0 0 1 0"/>
<feBlend mode="normal" in2="BackgroundImageFix" result="effect1_dropShadow_8112_83387"/>
<feBlend mode="normal" in="SourceGraphic" in2="effect1_dropShadow_8112_83387" result="shape"/>
</filter>
</defs>
</svg>
