<svg width="26" height="24" viewBox="0 0 26 24" fill="none" xmlns="http://www.w3.org/2000/svg">
<path d="M12.9997 23.1025L11.528 21.7795C9.31779 19.7744 7.49001 18.0514 6.04467 16.6105C4.59934 15.1694 3.45401 13.8869 2.60867 12.7629C1.76334 11.6391 1.17279 10.6139 0.837008 9.68719C0.501008 8.76075 0.333008 7.82064 0.333008 6.86686C0.333008 4.97464 0.971008 3.39042 2.24701 2.11419C3.52323 0.838195 5.10745 0.200195 6.99967 0.200195C8.16367 0.200195 9.26367 0.472418 10.2997 1.01686C11.3357 1.56131 12.2357 2.34208 12.9997 3.3592C13.7637 2.34208 14.6637 1.56131 15.6997 1.01686C16.7357 0.472418 17.8357 0.200195 18.9997 0.200195C20.8919 0.200195 22.4761 0.838195 23.7523 2.11419C25.0283 3.39042 25.6663 4.97464 25.6663 6.86686C25.6663 7.82064 25.4983 8.76075 25.1623 9.68719C24.8266 10.6139 24.236 11.6391 23.3907 12.7629C22.5453 13.8869 21.4021 15.1694 19.961 16.6105C18.5201 18.0514 16.6902 19.7744 14.4713 21.7795L12.9997 23.1025Z" fill="currentColor"/>
</svg>
